{
copyright = "Copyright (c) 2015, Cadson Demak (info@cadsondemak.com)";
customParameters = (
{
name = vendorID;
value = CDK;
},
{
name = description;
value = "Copyright (c) 2015, Cadson Demak (info@cadsondemak.com)";
},
{
name = license;

glyphs = (
{
glyphname = A;
lastChange = "2015-11-25 05:32:27 +0000";
layers = (
{
layerId = "51D8E656-CCF3-4A73-A171-84F1BD8DE29C";
name = "Regular Italic";
paths = (
{
closed = 1;
nodes = (
"100 0 LINE",
"199 166 LINE",
"458 166 LINE",
"487 0 LINE",
"595 0 LINE",
"487 644 LINE",
"365 644 LINE",
"-17 0 LINE"
);
},
{
closed = 1;
nodes = (
"408 545 LINE",
"458 250 LINE",
"234 250 LINE"
);
}
);
width = 699;
}
);
leftKerningGroup = A;
note = A;
rightKerningGroup = A;
unicode = 0041;
},
{
glyphname = Aacute;
lastChange = "2015-11-25 05:32:26 +0000";
layers = (
{
layerId = "51D8E656-CCF3-4A73-A171-84F1BD8DE29C";
name = "Regular Italic";
paths = (
{
closed = 1;
nodes = (
"100 0 LINE",
"199 166 LINE",
"458 166 LINE",
"487 0 LINE",
"595 0 LINE",
"487 644 LINE",
"365 644 LINE",
"-17 0 LINE"
);
},
{
closed = 1;
nodes = (
"408 545 LINE",
"458 250 LINE",
"234 250 LINE"
);
},
{
closed = 1;
nodes = (
"482 688 LINE",
"604 865 LINE",
"508 865 LINE",
"395 688 LINE"
);
}
);
width = 699;
}
);
leftKerningGroup = A;
note = Aacute;
rightKerningGroup = A;
unicode = 00C1;
},
{
glyphname = Abreve;
lastChange = "2015-11-25 05:32:26 +0000";
layers = (
{
layerId = "51D8E656-CCF3-4A73-A171-84F1BD8DE29C";
name = "Regular Italic";
paths = (
{
closed = 1;
nodes = (
"100 0 LINE",
"199 166 LINE",
"458 166 LINE",
"487 0 LINE",
"595 0 LINE",
"487 644 LINE",
"365 644 LINE",
"-17 0 LINE"
);
},
{
closed = 1;
nodes = (
"408 545 LINE",
"458 250 LINE",
"234 250 LINE"
);
},
{
closed = 1;
nodes = (
"522 688 OFFCURVE",
"589 743 OFFCURVE",
"607 829 CURVE",
"530 829 LINE",
"520 783 OFFCURVE",
"489 753 OFFCURVE",
"444 753 CURVE SMOOTH",
"393 753 OFFCURVE",
"383 783 OFFCURVE",
"393 829 CURVE",
"323 829 LINE",
"305 743 OFFCURVE",
"345 688 OFFCURVE",
"433 688 CURVE SMOOTH"
);
}
);
width = 699;
}
);
leftKerningGroup = A;
note = Abreve;
rightKerningGroup = A;
unicode = 0102;
},
{
glyphname = Abreveacute;
lastChange = "2015-11-25 05:32:27 +0000";
layers = (
{
layerId = "51D8E656-CCF3-4A73-A171-84F1BD8DE29C";
name = "Regular Italic";
paths = (
{
closed = 1;
nodes = (
"100 0 LINE",
"199 166 LINE",
"458 166 LINE",
"487 0 LINE",
"595 0 LINE",
"487 644 LINE",
"365 644 LINE",
"-17 0 LINE"
);
},
{
closed = 1;
nodes = (
"408 545 LINE",
"458 250 LINE",
"234 250 LINE"
);
},
{
closed = 1;
nodes = (
"530 688 OFFCURVE",
"600 729 OFFCURVE",
"622 836 CURVE",
"554 836 LINE",
"542 777 OFFCURVE",
"501 747 OFFCURVE",
"446 747 CURVE SMOOTH",
"381 747 OFFCURVE",
"362 777 OFFCURVE",
"374 836 CURVE",
"310 836 LINE",
"288 729 OFFCURVE",
"348 688 OFFCURVE",
"435 688 CURVE SMOOTH"
);
},
{
closed = 1;
nodes = (
"490 805 LINE",
"589 938 LINE",
"505 938 LINE",
"413 805 LINE"
);
}
);
width = 699;
}
);
leftKerningGroup = A;
note = Abreveacute;
rightKerningGroup = A;
unicode = 1EAE;
},
{
glyphname = Abrevedotbelow;
lastChange = "2015-11-25 05:32:52 +0000";
layers = (
{
layerId = "51D8E656-CCF3-4A73-A171-84F1BD8DE29C";
name = "Regular Italic";
paths = (
{
closed = 1;
nodes = (
"100 0 LINE",
"199 166 LINE",
"458 166 LINE",
"487 0 LINE",
"595 0 LINE",
"487 644 LINE",
"365 644 LINE",
"-17 0 LINE"
);
},
{
closed = 1;
nodes = (
"408 545 LINE",
"458 250 LINE",
"234 250 LINE"
);
},
{
closed = 1;
nodes = (
"300 -173 LINE",
"318 -85 LINE",
"224 -85 LINE",
"206 -173 LINE"
);
},
{
closed = 1;
nodes = (
"521 688 OFFCURVE",
"588 743 OFFCURVE",
"606 829 CURVE",
"529 829 LINE",
"519 783 OFFCURVE",
"488 753 OFFCURVE",
"443 753 CURVE SMOOTH",
"392 753 OFFCURVE",
"382 783 OFFCURVE",
"392 829 CURVE",
"322 829 LINE",
"304 743 OFFCURVE",
"344 688 OFFCURVE",
"432 688 CURVE SMOOTH"
);
}
);
width = 699;
}
);
leftKerningGroup = A;
note = Abrevedotbelow;
rightKerningGroup = A;
unicode = 1EB6;
},
{
glyphname = Abrevegrave;
lastChange = "2015-11-25 05:32:27 +0000";
layers = (
{
layerId = "51D8E656-CCF3-4A73-A171-84F1BD8DE29C";
name = "Regular Italic";
paths = (
{
closed = 1;
nodes = (
"100 0 LINE",
"199 166 LINE",
"458 166 LINE",
"487 0 LINE",
"595 0 LINE",
"487 644 LINE",
"365 644 LINE",
"-17 0 LINE"
);
},
{
closed = 1;
nodes = (
"408 545 LINE",
"458 250 LINE",
"234 250 LINE"
);
},
{
closed = 1;
nodes = (
"530 688 OFFCURVE",
"600 729 OFFCURVE",
"622 836 CURVE",
"554 836 LINE",
"542 777 OFFCURVE",
"501 747 OFFCURVE",
"446 747 CURVE SMOOTH",
"381 747 OFFCURVE",
"362 777 OFFCURVE",
"374 836 CURVE",
"310 836 LINE",
"288 729 OFFCURVE",
"348 688 OFFCURVE",
"435 688 CURVE SMOOTH"
);
},
{
closed = 1;
nodes = (
"507 805 LINE",
"471 938 LINE",
"387 938 LINE",
"430 805 LINE"
);
}
);
width = 699;
}
);
leftKerningGroup = A;
note = Abrevegrave;
rightKerningGroup = A;
unicode = 1EB0;
},
{
glyphname = Abrevehookabove;
lastChange = "2015-11-25 05:32:24 +0000";
layers = (
{
layerId = "51D8E656-CCF3-4A73-A171-84F1BD8DE29C";
name = "Regular Italic";
paths = (
{
closed = 1;
nodes = (
"100 0 LINE",
"199 166 LINE",
"458 166 LINE",
"487 0 LINE",
"595 0 LINE",
"487 644 LINE",
"365 644 LINE",
"-17 0 LINE"
);
},
{
closed = 1;
nodes = (
"408 545 LINE",
"458 250 LINE",
"234 250 LINE"
);
},
{
closed = 1;
nodes = (
"530 688 OFFCURVE",
"600 729 OFFCURVE",
"622 836 CURVE",
"554 836 LINE",
"542 777 OFFCURVE",
"501 747 OFFCURVE",
"446 747 CURVE SMOOTH",
"381 747 OFFCURVE",
"362 777 OFFCURVE",
"374 836 CURVE",
"310 836 LINE",
"288 729 OFFCURVE",
"348 688 OFFCURVE",
"435 688 CURVE SMOOTH"
);
},
{
closed = 1;
nodes = (
"493 810 LINE",
"500 843 LINE",
"558 853 OFFCURVE",
"585 875 OFFCURVE",
"594 919 CURVE SMOOTH",
"604 966 OFFCURVE",
"574 996 OFFCURVE",
"511 996 CURVE SMOOTH",
"480 996 OFFCURVE",
"449 991 OFFCURVE",
"428 984 CURVE",
"417 933 LINE",
"435 940 OFFCURVE",
"454 945 OFFCURVE",
"475 945 CURVE SMOOTH",
"510 945 OFFCURVE",
"525 938 OFFCURVE",
"520 912 CURVE",
"514 886 OFFCURVE",
"494 872 OFFCURVE",
"429 869 CURVE",
"417 810 LINE"
);
}
);
width = 699;
}
);
leftKerningGroup = A;
note = Abrevehookabove;
rightKerningGroup = A;
unicode = 1EB2;
},
{
glyphname = Abrevetilde;
lastChange = "2015-11-25 05:32:26 +0000";
layers = (
{
layerId = "51D8E656-CCF3-4A73-A171-84F1BD8DE29C";
name = "Regular Italic";
paths = (
{
closed = 1;
nodes = (
"100 0 LINE",
"199 166 LINE",
"458 166 LINE",
"487 0 LINE",
"595 0 LINE",
"487 644 LINE",
"365 644 LINE",
"-17 0 LINE"
);
},
{
closed = 1;
nodes = (
"408 545 LINE",
"458 250 LINE",
"234 250 LINE"
);
},
{
closed = 1;
nodes = (
"530 688 OFFCURVE",
"600 729 OFFCURVE",
"622 836 CURVE",
"554 836 LINE",
"542 777 OFFCURVE",
"501 747 OFFCURVE",
"446 747 CURVE SMOOTH",
"381 747 OFFCURVE",
"362 777 OFFCURVE",
"374 836 CURVE",
"310 836 LINE",
"288 729 OFFCURVE",
"348 688 OFFCURVE",
"435 688 CURVE SMOOTH"
);
},
{
closed = 1;
nodes = (
"583 857 OFFCURVE",
"614 869 OFFCURVE",
"631 886 CURVE",
"645 958 LINE",
"624 934 OFFCURVE",
"596 922 OFFCURVE",
"562 922 CURVE SMOOTH",
"511 922 OFFCURVE",
"479 960 OFFCURVE",
"423 960 CURVE SMOOTH",
"391 960 OFFCURVE",
"355 948 OFFCURVE",
"335 931 CURVE",
"320 860 LINE",
"347 884 OFFCURVE",
"377 894 OFFCURVE",
"410 894 CURVE SMOOTH",
"455 894 OFFCURVE",
"496 857 OFFCURVE",
"549 857 CURVE SMOOTH"
);
}
);
width = 699;
}
);
leftKerningGroup = A;
note = Abrevetilde;
rightKerningGroup = A;
unicode = 1EB4;
},
{
glyphname = Acaron;
lastChange = "2015-11-25 05:32:28 +0000";
layers = (
{
layerId = "51D8E656-CCF3-4A73-A171-84F1BD8DE29C";
name = "Regular Italic";
paths = (
{
closed = 1;
nodes = (
"100 0 LINE",
"199 166 LINE",
"458 166 LINE",
"487 0 LINE",
"595 0 LINE",
"487 644 LINE",
"365 644 LINE",
"-17 0 LINE"
);
},
{
closed = 1;
nodes = (
"408 545 LINE",
"458 250 LINE",
"234 250 LINE"
);
},
{
closed = 1;
nodes = (
"471 687 LINE",
"630 848 LINE",
"540 848 LINE",
"443 747 LINE",
"390 848 LINE",
"305 848 LINE",
"395 687 LINE"
);
}
);
width = 699;
}
);
leftKerningGroup = A;
note = Acaron;
rightKerningGroup = A;
unicode = 01CD;
},
{
glyphname = Acircumflex;
lastChange = "2015-11-25 05:32:25 +0000";
layers = (
{
layerId = "51D8E656-CCF3-4A73-A171-84F1BD8DE29C";
name = "Regular Italic";
paths = (
{
closed = 1;
nodes = (
"100 0 LINE",
"199 166 LINE",
"458 166 LINE",
"487 0 LINE",
"595 0 LINE",
"487 644 LINE",
"365 644 LINE",
"-17 0 LINE"
);
},
{
closed = 1;
nodes = (
"408 545 LINE",
"458 250 LINE",
"234 250 LINE"
);
},
{
closed = 1;
nodes = (
"362 687 LINE",
"457 788 LINE",
"512 687 LINE",
"596 687 LINE",
"505 848 LINE",
"429 848 LINE",
"271 687 LINE"
);
}
);
width = 699;
}
);
leftKerningGroup = A;
note = Acircumflex;
rightKerningGroup = A;
unicode = 00C2;
},
{
glyphname = Acircumflexacute;
lastChange = "2015-11-25 05:32:28 +0000";
layers = (
{
layerId = "51D8E656-CCF3-4A73-A171-84F1BD8DE29C";
name = "Regular Italic";
paths = (
{
closed = 1;
nodes = (
"100 0 LINE",
"199 166 LINE",
"458 166 LINE",
"487 0 LINE",
"595 0 LINE",
"487 644 LINE",
"365 644 LINE",
"-17 0 LINE"
);
},
{
closed = 1;
nodes = (
"408 545 LINE",
"458 250 LINE",
"234 250 LINE"
);
},
{
closed = 1;
nodes = (
"363 687 LINE",
"451 769 LINE",
"505 687 LINE",
"591 687 LINE",
"499 814 LINE",
"415 814 LINE",
"269 687 LINE"
);
},
{
closed = 1;
nodes = (
"622 800 LINE",
"720 933 LINE",
"637 933 LINE",
"545 800 LINE"
);
}
);
width = 699;
}
);
leftKerningGroup = A;
note = Acircumflexacute;
rightKerningGroup = A;
unicode = 1EA4;
},
{
glyphname = Acircumflexdotbelow;
lastChange = "2015-11-25 05:33:12 +0000";
layers = (
{
layerId = "51D8E656-CCF3-4A73-A171-84F1BD8DE29C";
name = "Regular Italic";
paths = (
{
closed = 1;
nodes = (
"100 0 LINE",
"199 166 LINE",
"458 166 LINE",
"487 0 LINE",
"595 0 LINE",
"487 644 LINE",
"365 644 LINE",
"-17 0 LINE"
);
},
{
closed = 1;
nodes = (
"408 545 LINE",
"458 250 LINE",
"234 250 LINE"
);
},
{
closed = 1;
nodes = (
"300 -173 LINE",
"318 -85 LINE",
"224 -85 LINE",
"206 -173 LINE"
);
},
{
closed = 1;
nodes = (
"362 687 LINE",
"457 788 LINE",
"512 687 LINE",
"596 687 LINE",
"505 848 LINE",
"429 848 LINE",
"271 687 LINE"
);
}
);
width = 699;
}
);
leftKerningGroup = A;
note = Acircumflexdotbelow;
rightKerningGroup = A;
unicode = 1EAC;
},
{
glyphname = Acircumflexgrave;
lastChange = "2015-11-25 05:32:27 +0000";
layers = (
{
layerId = "51D8E656-CCF3-4A73-A171-84F1BD8DE29C";
name = "Regular Italic";
paths = (
{
closed = 1;
nodes = (
"100 0 LINE",
"199 166 LINE",
"458 166 LINE",
"487 0 LINE",
"595 0 LINE",
"487 644 LINE",
"365 644 LINE",
"-17 0 LINE"
);
},
{
closed = 1;
nodes = (
"408 545 LINE",
"458 250 LINE",
"234 250 LINE"
);
},
{
closed = 1;
nodes = (
"366 800 LINE",
"331 933 LINE",
"247 933 LINE",
"289 800 LINE"
);
},
{
closed = 1;
nodes = (
"364 687 LINE",
"453 769 LINE",
"506 687 LINE",
"592 687 LINE",
"502 814 LINE",
"417 814 LINE",
"272 687 LINE"
);
}
);
width = 699;
}
);
leftKerningGroup = A;
note = Acircumflexgrave;
rightKerningGroup = A;
unicode = 1EA6;
},
{
glyphname = Acircumflexhookabove;
lastChange = "2015-11-25 05:32:28 +0000";
layers = (
{
layerId = "51D8E656-CCF3-4A73-A171-84F1BD8DE29C";
name = "Regular Italic";
paths = (
{
closed = 1;
nodes = (
"100 0 LINE",
"199 166 LINE",
"458 166 LINE",
"487 0 LINE",
"595 0 LINE",
"487 644 LINE",
"365 644 LINE",
"-17 0 LINE"
);
},
{
closed = 1;
nodes = (
"408 545 LINE",
"458 250 LINE",
"234 250 LINE"
);
},
{
closed = 1;
nodes = (
"366 687 LINE",
"455 769 LINE",
"508 687 LINE",
"594 687 LINE",
"503 814 LINE",
"418 814 LINE",
"273 687 LINE"
);
},
{
closed = 1;
nodes = (
"629 779 LINE",
"636 813 LINE",
"692 821 OFFCURVE",
"720 846 OFFCURVE",
"730 890 CURVE SMOOTH",
"740 937 OFFCURVE",
"708 968 OFFCURVE",
"643 968 CURVE SMOOTH",
"610 968 OFFCURVE",
"586 963 OFFCURVE",
"565 956 CURVE",
"553 903 LINE",
"571 910 OFFCURVE",
"590 915 OFFCURVE",
"611 915 CURVE SMOOTH",
"643 915 OFFCURVE",
"656 906 OFFCURVE",
"651 884 CURVE SMOOTH",
"646 860 OFFCURVE",
"631 848 OFFCURVE",
"567 845 CURVE",
"553 779 LINE"
);
}
);
width = 699;
}
);
leftKerningGroup = A;
note = Acircumflexhookabove;
rightKerningGroup = A;
unicode = 1EA8;
},
{
glyphname = Acircumflextilde;
lastChange = "2015-11-25 05:32:28 +0000";
layers = (
{
layerId = "51D8E656-CCF3-4A73-A171-84F1BD8DE29C";
name = "Regular Italic";
paths = (
{
closed = 1;
nodes = (
"100 0 LINE",
"199 166 LINE",
"458 166 LINE",
"487 0 LINE",
"595 0 LINE",
"487 644 LINE",
"365 644 LINE",
"-17 0 LINE"
);
},
{
closed = 1;
nodes = (
"408 545 LINE",
"458 250 LINE",
"234 250 LINE"
);
},
{
closed = 1;
nodes = (
"367 687 LINE",
"456 769 LINE",
"509 687 LINE",
"595 687 LINE",
"504 814 LINE",
"419 814 LINE",
"274 687 LINE"
);
},
{
closed = 1;
nodes = (
"580 822 OFFCURVE",
"611 835 OFFCURVE",
"627 852 CURVE",
"643 923 LINE",
"621 900 OFFCURVE",
"593 888 OFFCURVE",
"559 888 CURVE SMOOTH",
"508 888 OFFCURVE",
"476 925 OFFCURVE",
"420 925 CURVE SMOOTH",
"388 925 OFFCURVE",
"352 913 OFFCURVE",
"332 896 CURVE",
"317 825 LINE",
"344 850 OFFCURVE",
"374 860 OFFCURVE",
"407 860 CURVE SMOOTH",
"452 860 OFFCURVE",
"493 822 OFFCURVE",
"546 822 CURVE SMOOTH"
);
}
);
width = 699;
}
);
leftKerningGroup = A;
note = Acircumflextilde;
rightKerningGroup = A;
unicode = 1EAA;
},
{
glyphname = Adieresis;
lastChange = "2015-11-25 05:32:26 +0000";
layers = (
{
layerId = "51D8E656-CCF3-4A73-A171-84F1BD8DE29C";
name = "Regular Italic";
paths = (
{
closed = 1;
nodes = (
"100 0 LINE",
"199 166 LINE",
"458 166 LINE",
"487 0 LINE",
"595 0 LINE",
"487 644 LINE",
"365 644 LINE",
"-17 0 LINE"
);
},
{
closed = 1;
nodes = (
"408 545 LINE",
"458 250 LINE",
"234 250 LINE"
);
},
{
closed = 1;
nodes = (
"391 711 LINE",
"410 797 LINE",
"319 797 LINE",
"300 711 LINE"
);
},
{
closed = 1;
nodes = (
"577 711 LINE",
"596 797 LINE",
"504 797 LINE",
"485 711 LINE"
);
}
);
width = 699;
}
);
leftKerningGroup = A;
note = Adieresis;
rightKerningGroup = A;
unicode = 00C4;
},
{
glyphname = Adotbelow;
lastChange = "2015-11-25 05:33:20 +0000";
layers = (
{
layerId = "51D8E656-CCF3-4A73-A171-84F1BD8DE29C";
name = "Regular Italic";
paths = (
{
closed = 1;
nodes = (
"100 0 LINE",
"199 166 LINE",
"458 166 LINE",
"487 0 LINE",
"595 0 LINE",
"487 644 LINE",
"365 644 LINE",
"-17 0 LINE"
);
},
{
closed = 1;
nodes = (
"408 545 LINE",
"458 250 LINE",
"234 250 LINE"
);
},
{
closed = 1;
nodes = (
"300 -173 LINE",
"318 -85 LINE",
"224 -85 LINE",
"206 -173 LINE"
);
}
);
width = 699;
}
);
leftKerningGroup = A;
note = Adotbelow;
rightKerningGroup = A;
unicode = 1EA0;
},
{
glyphname = Agrave;
lastChange = "2015-11-25 05:32:25 +0000";
layers = (
{
layerId = "51D8E656-CCF3-4A73-A171-84F1BD8DE29C";
name = "Regular Italic";
paths = (
{
closed = 1;
nodes = (
"100 0 LINE",
"199 166 LINE",
"458 166 LINE",
"487 0 LINE",
"595 0 LINE",
"487 644 LINE",
"365 644 LINE",
"-17 0 LINE"
);
},
{
closed = 1;
nodes = (
"408 545 LINE",
"458 250 LINE",
"234 250 LINE"
);
},
{
closed = 1;
nodes = (
"471 688 LINE",
"433 865 LINE",
"338 865 LINE",
"383 688 LINE"
);
}
);
width = 699;
}
);
leftKerningGroup = A;
note = Agrave;
rightKerningGroup = A;
unicode = 00C0;
},
{
glyphname = Ahookabove;
lastChange = "2015-11-25 05:32:25 +0000";
layers = (
{
layerId = "51D8E656-CCF3-4A73-A171-84F1BD8DE29C";
name = "Regular Italic";
paths = (
{
closed = 1;
nodes = (
"100 0 LINE",
"199 166 LINE",
"458 166 LINE",
"487 0 LINE",
"595 0 LINE",
"487 644 LINE",
"365 644 LINE",
"-17 0 LINE"
);
},
{
closed = 1;
nodes = (
"408 545 LINE",
"458 250 LINE",
"234 250 LINE"
);
},
{
closed = 1;
nodes = (
"478 688 LINE",
"488 735 LINE",
"556 745 OFFCURVE",
"585 774 OFFCURVE",
"596 829 CURVE SMOOTH",
"609 886 OFFCURVE",
"572 922 OFFCURVE",
"490 922 CURVE SMOOTH",
"456 922 OFFCURVE",
"418 917 OFFCURVE",
"394 909 CURVE",
"382 850 LINE",
"400 857 OFFCURVE",
"428 862 OFFCURVE",
"448 862 CURVE SMOOTH",
"496 862 OFFCURVE",
"520 850 OFFCURVE",
"514 820 CURVE SMOOTH",
"507 787 OFFCURVE",
"488 774 OFFCURVE",
"411 770 CURVE",
"393 688 LINE"
);
}
);
width = 699;
}
);
leftKerningGroup = A;
note = Ahookabove;
rightKerningGroup = A;
unicode = 1EA2;
},
{
glyphname = Amacron;
lastChange = "2015-11-25 05:32:25 +0000";
layers = (
{
layerId = "51D8E656-CCF3-4A73-A171-84F1BD8DE29C";
name = "Regular Italic";
paths = (
{
closed = 1;
nodes = (
"100 0 LINE",
"199 166 LINE",
"458 166 LINE",
"487 0 LINE",
"595 0 LINE",
"487 644 LINE",
"365 644 LINE",
"-17 0 LINE"
);
},
{
closed = 1;
nodes = (
"408 545 LINE",
"458 250 LINE",
"234 250 LINE"
);
},
{
closed = 1;
nodes = (
"587 709 LINE",
"602 780 LINE",
"305 780 LINE",
"290 709 LINE"
);
}
);
width = 699;
}
);
leftKerningGroup = A;
note = Amacron;
rightKerningGroup = A;
unicode = 0100;
},
{
glyphname = Aogonek;
lastChange = "2015-11-25 05:33:28 +0000";
layers = (
{
layerId = "51D8E656-CCF3-4A73-A171-84F1BD8DE29C";
name = "Regular Italic";
paths = (
{
closed = 1;
nodes = (
"529 -220 OFFCURVE",
"560 -215 OFFCURVE",
"579 -207 CURVE",
"593 -141 LINE",
"579 -148 OFFCURVE",
"557 -152 OFFCURVE",
"541 -152 CURVE SMOOTH",
"511 -152 OFFCURVE",
"496 -143 OFFCURVE",
"503 -112 CURVE SMOOTH",
"511 -72 OFFCURVE",
"536 -33 OFFCURVE",
"595 0 CURVE",
"487 644 LINE",
"365 644 LINE",
"-17 0 LINE",
"100 0 LINE",
"199 166 LINE",
"458 166 LINE",
"487 0 LINE",
"445 -45 OFFCURVE",
"423 -75 OFFCURVE",
"412 -131 CURVE SMOOTH",
"400 -193 OFFCURVE",
"443 -220 OFFCURVE",
"500 -220 CURVE SMOOTH"
);
},
{
closed = 1;
nodes = (
"408 545 LINE",
"458 250 LINE",
"234 250 LINE"
);
}
);
width = 699;
}
);
leftKerningGroup = A;
note = Aogonek;
rightKerningGroup = A;
unicode = 0104;
},
{
glyphname = Aring;
lastChange = "2015-11-25 05:32:25 +0000";
layers = (
{
layerId = "51D8E656-CCF3-4A73-A171-84F1BD8DE29C";
name = "Regular Italic";
paths = (
{
closed = 1;
nodes = (
"100 0 LINE",
"199 166 LINE",
"458 166 LINE",
"487 0 LINE",
"595 0 LINE",
"491 620 LINE",
"525 641 OFFCURVE",
"549 675 OFFCURVE",
"557 714 CURVE SMOOTH",
"571 778 OFFCURVE",
"535 828 OFFCURVE",
"463 828 CURVE SMOOTH",
"387 828 OFFCURVE",
"337 778 OFFCURVE",
"323 714 CURVE SMOOTH",
"315 675 OFFCURVE",
"325 641 OFFCURVE",
"351 620 CURVE",
"-17 0 LINE"
);
},
{
closed = 1;
nodes = (
"408 545 LINE",
"458 250 LINE",
"234 250 LINE"
);
},
{
closed = 1;
nodes = (
"386 655 OFFCURVE",
"373 681 OFFCURVE",
"380 714 CURVE SMOOTH",
"387 747 OFFCURVE",
"417 773 OFFCURVE",
"452 773 CURVE SMOOTH",
"494 773 OFFCURVE",
"507 747 OFFCURVE",
"500 714 CURVE SMOOTH",
"493 681 OFFCURVE",
"464 655 OFFCURVE",
"427 655 CURVE SMOOTH"
);
}
);
width = 699;
}
);
leftKerningGroup = A;
note = Aring;
rightKerningGroup = A;
unicode = 00C5;
},
{
glyphname = Aringacute;
lastChange = "2015-11-25 05:32:27 +0000";
layers = (
{
layerId = "51D8E656-CCF3-4A73-A171-84F1BD8DE29C";
name = "Regular Italic";
paths = (
{
closed = 1;
nodes = (
"100 0 LINE",
"199 166 LINE",
"458 166 LINE",
"487 0 LINE",
"595 0 LINE",
"491 620 LINE",
"525 641 OFFCURVE",
"549 675 OFFCURVE",
"557 714 CURVE SMOOTH",
"571 778 OFFCURVE",
"535 828 OFFCURVE",
"463 828 CURVE SMOOTH",
"387 828 OFFCURVE",
"337 778 OFFCURVE",
"323 714 CURVE SMOOTH",
"315 675 OFFCURVE",
"325 641 OFFCURVE",
"351 620 CURVE",
"-17 0 LINE"
);
},
{
closed = 1;
nodes = (
"408 545 LINE",
"458 250 LINE",
"234 250 LINE"
);
},
{
closed = 1;
nodes = (
"386 655 OFFCURVE",
"373 681 OFFCURVE",
"380 714 CURVE SMOOTH",
"387 747 OFFCURVE",
"417 773 OFFCURVE",
"452 773 CURVE SMOOTH",
"494 773 OFFCURVE",
"507 747 OFFCURVE",
"500 714 CURVE SMOOTH",
"493 681 OFFCURVE",
"464 655 OFFCURVE",
"427 655 CURVE SMOOTH"
);
},
{
closed = 1;
nodes = (
"500 853 LINE",
"622 1030 LINE",
"526 1030 LINE",
"413 853 LINE"
);
}
);
width = 699;
}
);
leftKerningGroup = A;
note = Aringacute;
rightKerningGroup = A;
unicode = 01FA;
},
{
glyphname = Atilde;
lastChange = "2015-11-25 05:32:25 +0000";
layers = (
{
layerId = "51D8E656-CCF3-4A73-A171-84F1BD8DE29C";
name = "Regular Italic";
paths = (
{
closed = 1;
nodes = (
"100 0 LINE",
"199 166 LINE",
"458 166 LINE",
"487 0 LINE",
"595 0 LINE",
"487 644 LINE",
"365 644 LINE",
"-17 0 LINE"
);
},
{
closed = 1;
nodes = (
"408 545 LINE",
"458 250 LINE",
"234 250 LINE"
);
},
{
closed = 1;
nodes = (
"552 695 OFFCURVE",
"585 708 OFFCURVE",
"602 726 CURVE",
"619 806 LINE",
"596 782 OFFCURVE",
"567 769 OFFCURVE",
"531 769 CURVE SMOOTH",
"478 769 OFFCURVE",
"444 808 OFFCURVE",
"386 808 CURVE SMOOTH",
"353 808 OFFCURVE",
"316 796 OFFCURVE",
"295 778 CURVE",
"278 698 LINE",
"307 724 OFFCURVE",
"338 734 OFFCURVE",
"373 734 CURVE SMOOTH",
"419 734 OFFCURVE",
"461 695 OFFCURVE",
"516 695 CURVE SMOOTH"
);
}
);
width = 699;
}
);
leftKerningGroup = A;
note = Atilde;
rightKerningGroup = A;
unicode = 00C3;
},
{
glyphname = AE;
lastChange = "2015-11-25 05:32:25 +0000";
layers = (
{
layerId = "51D8E656-CCF3-4A73-A171-84F1BD8DE29C";
name = "Regular Italic";
paths = (
{
closed = 1;
nodes = (
"100 0 LINE",
"199 167 LINE",
"381 167 LINE",
"346 0 LINE",
"741 0 LINE",
"758 84 LINE",
"471 84 LINE",
"513 280 LINE",
"763 280 LINE",
"781 364 LINE",
"531 364 LINE",
"572 559 LINE",
"859 559 LINE",
"877 644 LINE",
"365 644 LINE",
"-17 0 LINE"
);
},
{
closed = 1;
nodes = (
"426 561 LINE",
"465 561 LINE",
"399 251 LINE",
"245 251 LINE"
);
}
);
width = 844;
}
);
leftKerningGroup = A;
note = AE;
rightKerningGroup = E;
unicode = 00C6;
},
{
glyphname = AEacute;
lastChange = "2015-11-25 05:32:27 +0000";
layers = (
{
layerId = "51D8E656-CCF3-4A73-A171-84F1BD8DE29C";
name = "Regular Italic";
paths = (
{
closed = 1;
nodes = (
"100 0 LINE",
"199 167 LINE",
"381 167 LINE",
"346 0 LINE",
"741 0 LINE",
"758 84 LINE",
"471 84 LINE",
"513 280 LINE",
"763 280 LINE",
"781 364 LINE",
"531 364 LINE",
"572 559 LINE",
"859 559 LINE",
"877 644 LINE",
"365 644 LINE",
"-17 0 LINE"
);
},
{
closed = 1;
nodes = (
"426 561 LINE",
"465 561 LINE",
"399 251 LINE",
"245 251 LINE"
);
},
{
closed = 1;
nodes = (
"599 688 LINE",
"721 865 LINE",
"625 865 LINE",
"512 688 LINE"
);
}
);
width = 844;
}
);
leftKerningGroup = A;
note = AEacute;
rightKerningGroup = E;
unicode = 01FC;
},
{
glyphname = B;
lastChange = "2015-11-25 05:32:27 +0000";
layers = (
{
layerId = "51D8E656-CCF3-4A73-A171-84F1BD8DE29C";
name = "Regular Italic";
paths = (
{
closed = 1;
nodes = (
"329 0 LINE SMOOTH",
"459 0 OFFCURVE",
"540 61 OFFCURVE",
"567 186 CURVE SMOOTH",
"585 272 OFFCURVE",
"554 313 OFFCURVE",
"496 331 CURVE",
"548 355 OFFCURVE",
"588 402 OFFCURVE",
"603 472 CURVE SMOOTH",
"626 581 OFFCURVE",
"568 644 OFFCURVE",
"451 644 CURVE SMOOTH",
"139 644 LINE",
"3 0 LINE"
);
},
{
closed = 1;
nodes = (
"173 289 LINE",
"356 289 LINE SMOOTH",
"449 289 OFFCURVE",
"472 256 OFFCURVE",
"458 190 CURVE SMOOTH",
"441 109 OFFCURVE",
"400 80 OFFCURVE",
"323 80 CURVE SMOOTH",
"129 80 LINE"
);
},
{
closed = 1;
nodes = (
"231 562 LINE",
"407 562 LINE SMOOTH",
"505 562 OFFCURVE",
"514 529 OFFCURVE",
"500 463 CURVE SMOOTH",
"488 406 OFFCURVE",
"451 369 OFFCURVE",
"378 369 CURVE SMOOTH",
"190 369 LINE"
);
}
);
width = 631;
}
);
note = B;
unicode = 0042;
},
{
glyphname = C;
lastChange = "2015-11-25 05:32:27 +0000";
layers = (
{
layerId = "51D8E656-CCF3-4A73-A171-84F1BD8DE29C";
name = "Regular Italic";
paths = (
{
closed = 1;
nodes = (
"377 -10 OFFCURVE",
"440 0 OFFCURVE",
"497 17 CURVE",
"518 113 LINE",
"458 92 OFFCURVE",
"392 82 OFFCURVE",
"331 82 CURVE SMOOTH",
"169 82 OFFCURVE",
"127 161 OFFCURVE",
"159 312 CURVE SMOOTH",
"193 473 OFFCURVE",
"271 561 OFFCURVE",
"431 561 CURVE SMOOTH",
"497 561 OFFCURVE",
"555 549 OFFCURVE",
"605 528 CURVE",
"625 623 LINE",
"575 642 OFFCURVE",
"518 654 OFFCURVE",
"443 654 CURVE SMOOTH",
"209 654 OFFCURVE",
"94 523 OFFCURVE",
"49 312 CURVE SMOOTH",
"7 115 OFFCURVE",
"107 -10 OFFCURVE",
"302 -10 CURVE SMOOTH"
);
}
);
width = 597;
}
);
leftKerningGroup = C;
note = C;
rightKerningGroup = C;
unicode = 0043;
},
{
glyphname = Cacute;
lastChange = "2015-11-25 05:32:27 +0000";
layers = (
{
layerId = "51D8E656-CCF3-4A73-A171-84F1BD8DE29C";
name = "Regular Italic";
paths = (
{
closed = 1;
nodes = (
"377 -10 OFFCURVE",
"440 0 OFFCURVE",
"497 17 CURVE",
"518 113 LINE",
"458 92 OFFCURVE",
"392 82 OFFCURVE",
"331 82 CURVE SMOOTH",
"169 82 OFFCURVE",
"127 161 OFFCURVE",
"159 312 CURVE SMOOTH",
"193 473 OFFCURVE",
"271 561 OFFCURVE",
"431 561 CURVE SMOOTH",
"497 561 OFFCURVE",
"555 549 OFFCURVE",
"605 528 CURVE",
"625 623 LINE",
"575 642 OFFCURVE",
"518 654 OFFCURVE",
"443 654 CURVE SMOOTH",
"209 654 OFFCURVE",
"94 523 OFFCURVE",
"49 312 CURVE SMOOTH",
"7 115 OFFCURVE",
"107 -10 OFFCURVE",
"302 -10 CURVE SMOOTH"
);
},
{
closed = 1;
nodes = (
"475 688 LINE",
"597 865 LINE",
"501 865 LINE",
"388 688 LINE"
);
}
);
width = 597;
}
);
leftKerningGroup = C;
note = Cacute;
rightKerningGroup = C;
unicode = 0106;
},
{
glyphname = Ccaron;
lastChange = "2015-11-25 05:32:25 +0000";
layers = (
{
layerId = "51D8E656-CCF3-4A73-A171-84F1BD8DE29C";
name = "Regular Italic";
paths = (
{
closed = 1;
nodes = (
"377 -10 OFFCURVE",
"440 0 OFFCURVE",
"497 17 CURVE",
"518 113 LINE",
"458 92 OFFCURVE",
"392 82 OFFCURVE",
"331 82 CURVE SMOOTH",
"169 82 OFFCURVE",
"127 161 OFFCURVE",
"159 312 CURVE SMOOTH",
"193 473 OFFCURVE",
"271 561 OFFCURVE",
"431 561 CURVE SMOOTH",
"497 561 OFFCURVE",
"555 549 OFFCURVE",
"605 528 CURVE",
"625 623 LINE",
"575 642 OFFCURVE",
"518 654 OFFCURVE",
"443 654 CURVE SMOOTH",
"209 654 OFFCURVE",
"94 523 OFFCURVE",
"49 312 CURVE SMOOTH",
"7 115 OFFCURVE",
"107 -10 OFFCURVE",
"302 -10 CURVE SMOOTH"
);
},
{
closed = 1;
nodes = (
"487 687 LINE",
"646 848 LINE",
"556 848 LINE",
"459 747 LINE",
"406 848 LINE",
"321 848 LINE",
"411 687 LINE"
);
}
);
width = 597;
}
);
leftKerningGroup = C;
note = Ccaron;
rightKerningGroup = C;
unicode = 010C;
},
{
glyphname = Ccedilla;
lastChange = "2015-11-25 05:32:28 +0000";
layers = (
{
layerId = "51D8E656-CCF3-4A73-A171-84F1BD8DE29C";
name = "Regular Italic";
paths = (
{
closed = 1;
nodes = (
"326 -240 OFFCURVE",
"380 -203 OFFCURVE",
"394 -137 CURVE SMOOTH",
"406 -81 OFFCURVE",
"377 -47 OFFCURVE",
"306 -47 CURVE",
"326 -10 LINE",
"390 -8 OFFCURVE",
"446 2 OFFCURVE",
"497 17 CURVE",
"518 113 LINE",
"458 92 OFFCURVE",
"392 82 OFFCURVE",
"331 82 CURVE SMOOTH",
"169 82 OFFCURVE",
"127 161 OFFCURVE",
"159 312 CURVE SMOOTH",
"193 473 OFFCURVE",
"271 561 OFFCURVE",
"431 561 CURVE SMOOTH",
"497 561 OFFCURVE",
"555 549 OFFCURVE",
"605 528 CURVE",
"625 623 LINE",
"575 642 OFFCURVE",
"518 654 OFFCURVE",
"443 654 CURVE SMOOTH",
"209 654 OFFCURVE",
"94 523 OFFCURVE",
"49 312 CURVE SMOOTH",
"10 132 OFFCURVE",
"91 11 OFFCURVE",
"254 -7 CURVE",
"209 -95 LINE",
"249 -95 LINE SMOOTH",
"301 -95 OFFCURVE",
"328 -99 OFFCURVE",
"321 -136 CURVE SMOOTH",
"313 -173 OFFCURVE",
"287 -181 OFFCURVE",
"227 -181 CURVE SMOOTH",
"206 -181 OFFCURVE",
"184 -178 OFFCURVE",
"167 -173 CURVE",
"154 -232 LINE",
"168 -236 OFFCURVE",
"203 -240 OFFCURVE",
"225 -240 CURVE SMOOTH"
);
}
);
width = 597;
}
);
leftKerningGroup = C;
note = Ccedilla;
rightKerningGroup = C;
unicode = 00C7;
},
{
glyphname = Ccircumflex;
lastChange = "2015-11-25 05:32:27 +0000";
layers = (
{
layerId = "51D8E656-CCF3-4A73-A171-84F1BD8DE29C";
name = "Regular Italic";
paths = (
{
closed = 1;
nodes = (
"377 -10 OFFCURVE",
"440 0 OFFCURVE",
"497 17 CURVE",
"518 113 LINE",
"458 92 OFFCURVE",
"392 82 OFFCURVE",
"331 82 CURVE SMOOTH",
"169 82 OFFCURVE",
"127 161 OFFCURVE",
"159 312 CURVE SMOOTH",
"193 473 OFFCURVE",
"271 561 OFFCURVE",
"431 561 CURVE SMOOTH",
"497 561 OFFCURVE",
"555 549 OFFCURVE",
"605 528 CURVE",
"625 623 LINE",
"575 642 OFFCURVE",
"518 654 OFFCURVE",
"443 654 CURVE SMOOTH",
"209 654 OFFCURVE",
"94 523 OFFCURVE",
"49 312 CURVE SMOOTH",
"7 115 OFFCURVE",
"107 -10 OFFCURVE",
"302 -10 CURVE SMOOTH"
);
},
{
closed = 1;
nodes = (
"350 687 LINE",
"445 788 LINE",
"500 687 LINE",
"584 687 LINE",
"493 848 LINE",
"417 848 LINE",
"259 687 LINE"
);
}
);
width = 597;
}
);
leftKerningGroup = C;
note = Ccircumflex;
rightKerningGroup = C;
unicode = 0108;
},
{
glyphname = Cdotaccent;
lastChange = "2015-11-25 05:32:27 +0000";
layers = (
{
layerId = "51D8E656-CCF3-4A73-A171-84F1BD8DE29C";
name = "Regular Italic";
paths = (
{
closed = 1;
nodes = (
"377 -10 OFFCURVE",
"440 0 OFFCURVE",
"497 17 CURVE",
"518 113 LINE",
"458 92 OFFCURVE",
"392 82 OFFCURVE",
"331 82 CURVE SMOOTH",
"169 82 OFFCURVE",
"127 161 OFFCURVE",
"159 312 CURVE SMOOTH",
"193 473 OFFCURVE",
"271 561 OFFCURVE",
"431 561 CURVE SMOOTH",
"497 561 OFFCURVE",
"555 549 OFFCURVE",
"605 528 CURVE",
"625 623 LINE",
"575 642 OFFCURVE",
"518 654 OFFCURVE",
"443 654 CURVE SMOOTH",
"209 654 OFFCURVE",
"94 523 OFFCURVE",
"49 312 CURVE SMOOTH",
"7 115 OFFCURVE",
"107 -10 OFFCURVE",
"302 -10 CURVE SMOOTH"
);
},
{
closed = 1;
nodes = (
"490 711 LINE",
"509 799 LINE",
"417 799 LINE",
"398 711 LINE"
);
}
);
width = 597;
}
);
leftKerningGroup = C;
note = Cdotaccent;
rightKerningGroup = C;
unicode = 010A;
},
{
glyphname = D;
lastChange = "2015-11-25 05:32:27 +0000";
layers = (
{
layerId = "51D8E656-CCF3-4A73-A171-84F1BD8DE29C";
name = "Regular Italic";
paths = (
{
closed = 1;
nodes = (
"267 0 LINE SMOOTH",
"460 0 OFFCURVE",
"565 98 OFFCURVE",
"612 318 CURVE SMOOTH",
"661 546 OFFCURVE",
"583 644 OFFCURVE",
"400 644 CURVE SMOOTH",
"139 644 LINE",
"3 0 LINE"
);
},
{
closed = 1;
nodes = (
"230 559 LINE",
"365 559 LINE SMOOTH",
"522 559 OFFCURVE",
"543 507 OFFCURVE",
"503 318 CURVE SMOOTH",
"462 127 OFFCURVE",
"395 84 OFFCURVE",
"264 84 CURVE SMOOTH",
"129 84 LINE"
);
}
);
width = 649;
}
);
note = D;
rightKerningGroup = D;
unicode = 0044;
},
{
glyphname = Eth;
lastChange = "2015-11-25 05:32:27 +0000";
layers = (
{
layerId = "51D8E656-CCF3-4A73-A171-84F1BD8DE29C";
name = "Regular Italic";
paths = (
{
closed = 1;
nodes = (
"307 0 LINE SMOOTH",
"500 0 OFFCURVE",
"605 98 OFFCURVE",
"652 318 CURVE SMOOTH",
"701 546 OFFCURVE",
"623 644 OFFCURVE",
"440 644 CURVE SMOOTH",
"179 644 LINE",
"118 358 LINE",
"49 358 LINE",
"31 274 LINE",
"101 274 LINE",
"43 0 LINE"
);
},
{
closed = 1;
nodes = (
"209 274 LINE",
"375 274 LINE",
"393 358 LINE",
"227 358 LINE",
"270 559 LINE",
"405 559 LINE SMOOTH",
"562 559 OFFCURVE",
"583 507 OFFCURVE",
"543 318 CURVE SMOOTH",
"502 127 OFFCURVE",
"435 84 OFFCURVE",
"304 84 CURVE SMOOTH",
"169 84 LINE"
);
}
);
width = 689;
}
);
note = Eth;
rightKerningGroup = D;
unicode = 00D0;
},
{
glyphname = Dcaron;
lastChange = "2015-11-25 05:32:26 +0000";
layers = (
{
layerId = "51D8E656-CCF3-4A73-A171-84F1BD8DE29C";
name = "Regular Italic";
paths = (
{
closed = 1;
nodes = (
"267 0 LINE SMOOTH",
"460 0 OFFCURVE",
"565 98 OFFCURVE",
"612 318 CURVE SMOOTH",
"661 546 OFFCURVE",
"583 644 OFFCURVE",
"400 644 CURVE SMOOTH",
"139 644 LINE",
"3 0 LINE"
);
},
{
closed = 1;
nodes = (
"230 559 LINE",
"365 559 LINE SMOOTH",
"522 559 OFFCURVE",
"543 507 OFFCURVE",
"503 318 CURVE SMOOTH",
"462 127 OFFCURVE",
"395 84 OFFCURVE",
"264 84 CURVE SMOOTH",
"129 84 LINE"
);
},
{
closed = 1;
nodes = (
"427 698 LINE",
"586 859 LINE",
"496 859 LINE",
"399 758 LINE",
"346 859 LINE",
"261 859 LINE",
"351 698 LINE"
);
}
);
width = 649;
}
);
note = Dcaron;
rightKerningGroup = D;
unicode = 010E;
},
{
glyphname = Dcroat;
lastChange = "2015-11-25 05:32:27 +0000";
layers = (
{
layerId = "51D8E656-CCF3-4A73-A171-84F1BD8DE29C";
name = "Regular Italic";
paths = (
{
closed = 1;
nodes = (
"297 0 LINE SMOOTH",
"490 0 OFFCURVE",
"595 98 OFFCURVE",
"642 318 CURVE SMOOTH",
"691 546 OFFCURVE",
"613 644 OFFCURVE",
"430 644 CURVE SMOOTH",
"169 644 LINE",
"108 358 LINE",
"39 358 LINE",
"21 274 LINE",
"91 274 LINE",
"33 0 LINE"
);
},
{
closed = 1;
nodes = (
"199 274 LINE",
"365 274 LINE",
"383 358 LINE",
"217 358 LINE",
"260 559 LINE",
"395 559 LINE SMOOTH",
"552 559 OFFCURVE",
"573 507 OFFCURVE",
"533 318 CURVE SMOOTH",
"492 127 OFFCURVE",
"425 84 OFFCURVE",
"294 84 CURVE SMOOTH",
"159 84 LINE"
);
}
);
width = 679;
}
);
note = Dcroat;
rightKerningGroup = D;
unicode = 0110;
},
{
glyphname = Ddotbelow;
lastChange = "2015-11-25 05:34:04 +0000";
layers = (
{
layerId = "51D8E656-CCF3-4A73-A171-84F1BD8DE29C";
name = "Regular Italic";
paths = (
{
closed = 1;
nodes = (
"267 0 LINE SMOOTH",
"460 0 OFFCURVE",
"565 98 OFFCURVE",
"612 318 CURVE SMOOTH",
"661 546 OFFCURVE",
"583 644 OFFCURVE",
"400 644 CURVE SMOOTH",
"139 644 LINE",
"3 0 LINE"
);
},
{
closed = 1;
nodes = (
"230 559 LINE",
"365 559 LINE SMOOTH",
"522 559 OFFCURVE",
"543 507 OFFCURVE",
"503 318 CURVE SMOOTH",
"462 127 OFFCURVE",
"395 84 OFFCURVE",
"264 84 CURVE SMOOTH",
"129 84 LINE"
);
},
{
closed = 1;
nodes = (
"269 -173 LINE",
"287 -85 LINE",
"193 -85 LINE",
"175 -173 LINE"
);
}
);
width = 649;
}
);
note = Ddotbelow;
rightKerningGroup = D;
unicode = 1E0C;
},
{
glyphname = Dlinebelow;
lastChange = "2015-11-25 05:34:08 +0000";
layers = (
{
layerId = "51D8E656-CCF3-4A73-A171-84F1BD8DE29C";
name = "Regular Italic";
paths = (
{
closed = 1;
nodes = (
"267 0 LINE SMOOTH",
"460 0 OFFCURVE",
"565 98 OFFCURVE",
"612 318 CURVE SMOOTH",
"661 546 OFFCURVE",
"583 644 OFFCURVE",
"400 644 CURVE SMOOTH",
"139 644 LINE",
"3 0 LINE"
);
},
{
closed = 1;
nodes = (
"230 559 LINE",
"365 559 LINE SMOOTH",
"522 559 OFFCURVE",
"543 507 OFFCURVE",
"503 318 CURVE SMOOTH",
"462 127 OFFCURVE",
"395 84 OFFCURVE",
"264 84 CURVE SMOOTH",
"129 84 LINE"
);
},
{
closed = 1;
nodes = (
"333 -164 LINE",
"348 -93 LINE",
"51 -93 LINE",
"36 -164 LINE"
);
}
);
width = 649;
}
);
note = Dlinebelow;
rightKerningGroup = D;
unicode = 1E0E;
},
{
glyphname = E;
lastChange = "2015-11-25 05:32:27 +0000";
layers = (
{
layerId = "51D8E656-CCF3-4A73-A171-84F1BD8DE29C";
name = "Regular Italic";
paths = (
{
closed = 1;
nodes = (
"452 0 LINE",
"469 84 LINE",
"129 84 LINE",
"171 280 LINE",
"474 280 LINE",
"492 364 LINE",
"189 364 LINE",
"230 559 LINE",
"570 559 LINE",
"588 644 LINE",
"139 644 LINE",
"3 0 LINE"
);
}
);
width = 550;
}
);
leftKerningGroup = E;
note = E;
rightKerningGroup = E;
unicode = 0045;
},
{
glyphname = Eacute;
lastChange = "2015-11-25 05:32:26 +0000";
layers = (
{
layerId = "51D8E656-CCF3-4A73-A171-84F1BD8DE29C";
name = "Regular Italic";
paths = (
{
closed = 1;
nodes = (
"452 0 LINE",
"469 84 LINE",
"129 84 LINE",
"171 280 LINE",
"474 280 LINE",
"492 364 LINE",
"189 364 LINE",
"230 559 LINE",
"570 559 LINE",
"588 644 LINE",
"139 644 LINE",
"3 0 LINE"
);
},
{
closed = 1;
nodes = (
"403 688 LINE",
"525 865 LINE",
"429 865 LINE",
"316 688 LINE"
);
}
);
width = 550;
}
);
leftKerningGroup = E;
note = Eacute;
rightKerningGroup = E;
unicode = 00C9;
},
{
glyphname = Ebreve;
lastChange = "2015-11-25 05:35:06 +0000";
layers = (
{
layerId = "51D8E656-CCF3-4A73-A171-84F1BD8DE29C";
name = "Regular Italic";
paths = (
{
closed = 1;
nodes = (
"452 0 LINE",
"469 84 LINE",
"129 84 LINE",
"171 280 LINE",
"474 280 LINE",
"492 364 LINE",
"189 364 LINE",
"230 559 LINE",
"570 559 LINE",
"588 644 LINE",
"139 644 LINE",
"3 0 LINE"
);
},
{
closed = 1;
nodes = (
"463 688 OFFCURVE",
"530 743 OFFCURVE",
"548 829 CURVE",
"471 829 LINE",
"461 783 OFFCURVE",
"430 753 OFFCURVE",
"385 753 CURVE SMOOTH",
"334 753 OFFCURVE",
"324 783 OFFCURVE",
"334 829 CURVE",
"264 829 LINE",
"246 743 OFFCURVE",
"286 688 OFFCURVE",
"374 688 CURVE SMOOTH"
);
}
);
width = 550;
}
);
leftKerningGroup = E;
note = Ebreve;
rightKerningGroup = E;
unicode = 0114;
},
{
glyphname = Ecaron;
lastChange = "2015-11-25 05:35:06 +0000";
layers = (
{
layerId = "51D8E656-CCF3-4A73-A171-84F1BD8DE29C";
name = "Regular Italic";
paths = (
{
closed = 1;
nodes = (
"452 0 LINE",
"469 84 LINE",
"129 84 LINE",
"171 280 LINE",
"474 280 LINE",
"492 364 LINE",
"189 364 LINE",
"230 559 LINE",
"570 559 LINE",
"588 644 LINE",
"139 644 LINE",
"3 0 LINE"
);
},
{
closed = 1;
nodes = (
"414 687 LINE",
"573 848 LINE",
"483 848 LINE",
"386 747 LINE",
"333 848 LINE",
"248 848 LINE",
"338 687 LINE"
);
}
);
width = 550;
}
);
leftKerningGroup = E;
note = Ecaron;
rightKerningGroup = E;
unicode = 011A;
},
{
glyphname = Ecircumflex;
lastChange = "2015-11-25 05:35:06 +0000";
layers = (
{
layerId = "51D8E656-CCF3-4A73-A171-84F1BD8DE29C";
name = "Regular Italic";
paths = (
{
closed = 1;
nodes = (
"452 0 LINE",
"469 84 LINE",
"129 84 LINE",
"171 280 LINE",
"474 280 LINE",
"492 364 LINE",
"189 364 LINE",
"230 559 LINE",
"570 559 LINE",
"588 644 LINE",
"139 644 LINE",
"3 0 LINE"
);
},
{
closed = 1;
nodes = (
"294 687 LINE",
"389 788 LINE",
"444 687 LINE",
"528 687 LINE",
"437 848 LINE",
"361 848 LINE",
"203 687 LINE"
);
}
);
width = 550;
}
);
leftKerningGroup = E;
note = Ecircumflex;
rightKerningGroup = E;
unicode = 00CA;
},
{
glyphname = Ecircumflexacute;
lastChange = "2015-11-25 05:35:06 +0000";
layers = (
{
layerId = "51D8E656-CCF3-4A73-A171-84F1BD8DE29C";
name = "Regular Italic";
paths = (
{
closed = 1;
nodes = (
"452 0 LINE",
"469 84 LINE",
"129 84 LINE",
"171 280 LINE",
"474 280 LINE",
"492 364 LINE",
"189 364 LINE",
"230 559 LINE",
"570 559 LINE",
"588 644 LINE",
"139 644 LINE",
"3 0 LINE"
);
},
{
closed = 1;
nodes = (
"300 686 LINE",
"388 768 LINE",
"442 686 LINE",
"528 686 LINE",
"436 813 LINE",
"352 813 LINE",
"206 686 LINE"
);
},
{
closed = 1;
nodes = (
"559 799 LINE",
"657 932 LINE",
"574 932 LINE",
"482 799 LINE"
);
}
);
width = 550;
}
);
leftKerningGroup = E;
note = Ecircumflexacute;
rightKerningGroup = E;
unicode = 1EBE;
},
{
glyphname = Ecircumflexdotbelow;
lastChange = "2015-11-25 05:35:06 +0000";
layers = (
{
layerId = "51D8E656-CCF3-4A73-A171-84F1BD8DE29C";
name = "Regular Italic";
paths = (
{
closed = 1;
nodes = (
"452 0 LINE",
"469 84 LINE",
"129 84 LINE",
"171 280 LINE",
"474 280 LINE",
"492 364 LINE",
"189 364 LINE",
"230 559 LINE",
"570 559 LINE",
"588 644 LINE",
"139 644 LINE",
"3 0 LINE"
);
},
{
closed = 1;
nodes = (
"227 -173 LINE",
"245 -85 LINE",
"151 -85 LINE",
"133 -173 LINE"
);
},
{
closed = 1;
nodes = (
"290 687 LINE",
"385 788 LINE",
"440 687 LINE",
"524 687 LINE",
"433 848 LINE",
"357 848 LINE",
"199 687 LINE"
);
}
);
width = 550;
}
);
leftKerningGroup = E;
note = Ecircumflexdotbelow;
rightKerningGroup = E;
unicode = 1EC6;
},
{
glyphname = Ecircumflexgrave;
lastChange = "2015-11-25 05:35:06 +0000";
layers = (
{
layerId = "51D8E656-CCF3-4A73-A171-84F1BD8DE29C";
name = "Regular Italic";
paths = (
{
closed = 1;
nodes = (
"452 0 LINE",
"469 84 LINE",
"129 84 LINE",
"171 280 LINE",
"474 280 LINE",
"492 364 LINE",
"189 364 LINE",
"230 559 LINE",
"570 559 LINE",
"588 644 LINE",
"139 644 LINE",
"3 0 LINE"
);
},
{
closed = 1;
nodes = (
"310 799 LINE",
"275 932 LINE",
"191 932 LINE",
"233 799 LINE"
);
},
{
closed = 1;
nodes = (
"308 686 LINE",
"397 768 LINE",
"450 686 LINE",
"536 686 LINE",
"446 813 LINE",
"361 813 LINE",
"216 686 LINE"
);
}
);
width = 550;
}
);
leftKerningGroup = E;
note = Ecircumflexgrave;
rightKerningGroup = E;
unicode = 1EC0;
},
{
glyphname = Ecircumflexhookabove;
lastChange = "2015-11-25 05:35:06 +0000";
layers = (
{
layerId = "51D8E656-CCF3-4A73-A171-84F1BD8DE29C";
name = "Regular Italic";
paths = (
{
closed = 1;
nodes = (
"452 0 LINE",
"469 84 LINE",
"129 84 LINE",
"171 280 LINE",
"474 280 LINE",
"492 364 LINE",
"189 364 LINE",
"230 559 LINE",
"570 559 LINE",
"588 644 LINE",
"139 644 LINE",
"3 0 LINE"
);
},
{
closed = 1;
nodes = (
"302 686 LINE",
"391 768 LINE",
"444 686 LINE",
"530 686 LINE",
"439 813 LINE",
"354 813 LINE",
"209 686 LINE"
);
},
{
closed = 1;
nodes = (
"565 778 LINE",
"572 812 LINE",
"628 820 OFFCURVE",
"656 845 OFFCURVE",
"666 889 CURVE SMOOTH",
"676 936 OFFCURVE",
"644 967 OFFCURVE",
"579 967 CURVE SMOOTH",
"546 967 OFFCURVE",
"522 962 OFFCURVE",
"501 955 CURVE",
"489 902 LINE",
"507 909 OFFCURVE",
"526 914 OFFCURVE",
"547 914 CURVE SMOOTH",
"579 914 OFFCURVE",
"592 905 OFFCURVE",
"587 883 CURVE SMOOTH",
"582 859 OFFCURVE",
"567 847 OFFCURVE",
"503 844 CURVE",
"489 778 LINE"
);
}
);
width = 550;
}
);
leftKerningGroup = E;
note = Ecircumflexhookabove;
rightKerningGroup = E;
unicode = 1EC2;
},
{
glyphname = Ecircumflextilde;
lastChange = "2015-11-25 05:35:06 +0000";
layers = (
{
layerId = "51D8E656-CCF3-4A73-A171-84F1BD8DE29C";
name = "Regular Italic";
paths = (
{
closed = 1;
nodes = (
"452 0 LINE",
"469 84 LINE",
"129 84 LINE",
"171 280 LINE",
"474 280 LINE",
"492 364 LINE",
"189 364 LINE",
"230 559 LINE",
"570 559 LINE",
"588 644 LINE",
"139 644 LINE",
"3 0 LINE"
);
},
{
closed = 1;
nodes = (
"304 687 LINE",
"393 769 LINE",
"446 687 LINE",
"532 687 LINE",
"441 814 LINE",
"356 814 LINE",
"211 687 LINE"
);
},
{
closed = 1;
nodes = (
"517 822 OFFCURVE",
"548 835 OFFCURVE",
"564 852 CURVE",
"580 923 LINE",
"558 900 OFFCURVE",
"530 888 OFFCURVE",
"496 888 CURVE SMOOTH",
"445 888 OFFCURVE",
"413 925 OFFCURVE",
"357 925 CURVE SMOOTH",
"325 925 OFFCURVE",
"289 913 OFFCURVE",
"269 896 CURVE",
"254 825 LINE",
"281 850 OFFCURVE",
"311 860 OFFCURVE",
"344 860 CURVE SMOOTH",
"389 860 OFFCURVE",
"430 822 OFFCURVE",
"483 822 CURVE SMOOTH"
);
}
);
width = 550;
}
);
leftKerningGroup = E;
note = Ecircumflextilde;
rightKerningGroup = E;
unicode = 1EC4;
},
{
glyphname = Edieresis;
lastChange = "2015-11-25 05:35:06 +0000";
layers = (
{
layerId = "51D8E656-CCF3-4A73-A171-84F1BD8DE29C";
name = "Regular Italic";
paths = (
{
closed = 1;
nodes = (
"452 0 LINE",
"469 84 LINE",
"129 84 LINE",
"171 280 LINE",
"474 280 LINE",
"492 364 LINE",
"189 364 LINE",
"230 559 LINE",
"570 559 LINE",
"588 644 LINE",
"139 644 LINE",
"3 0 LINE"
);
},
{
closed = 1;
nodes = (
"328 712 LINE",
"347 798 LINE",
"256 798 LINE",
"237 712 LINE"
);
},
{
closed = 1;
nodes = (
"514 712 LINE",
"533 798 LINE",
"441 798 LINE",
"422 712 LINE"
);
}
);
width = 550;
}
);
leftKerningGroup = E;
note = Edieresis;
rightKerningGroup = E;
unicode = 00CB;
},
{
glyphname = Edotaccent;
lastChange = "2015-11-25 05:35:06 +0000";
layers = (
{
layerId = "51D8E656-CCF3-4A73-A171-84F1BD8DE29C";
name = "Regular Italic";
paths = (
{
closed = 1;
nodes = (
"452 0 LINE",
"469 84 LINE",
"129 84 LINE",
"171 280 LINE",
"474 280 LINE",
"492 364 LINE",
"189 364 LINE",
"230 559 LINE",
"570 559 LINE",
"588 644 LINE",
"139 644 LINE",
"3 0 LINE"
);
},
{
closed = 1;
nodes = (
"419 711 LINE",
"438 799 LINE",
"346 799 LINE",
"327 711 LINE"
);
}
);
width = 550;
}
);
leftKerningGroup = E;
note = Edotaccent;
rightKerningGroup = E;
unicode = 0116;
},
{
glyphname = Edotbelow;
lastChange = "2015-11-25 05:35:06 +0000";
layers = (
{
layerId = "51D8E656-CCF3-4A73-A171-84F1BD8DE29C";
name = "Regular Italic";
paths = (
{
closed = 1;
nodes = (
"452 0 LINE",
"469 84 LINE",
"129 84 LINE",
"171 280 LINE",
"474 280 LINE",
"492 364 LINE",
"189 364 LINE",
"230 559 LINE",
"570 559 LINE",
"588 644 LINE",
"139 644 LINE",
"3 0 LINE"
);
},
{
closed = 1;
nodes = (
"231 -173 LINE",
"249 -85 LINE",
"155 -85 LINE",
"137 -173 LINE"
);
}
);
width = 550;
}
);
leftKerningGroup = E;
note = Edotbelow;
rightKerningGroup = E;
unicode = 1EB8;
},
{
glyphname = Egrave;
lastChange = "2015-11-25 05:35:06 +0000";
layers = (
{
layerId = "51D8E656-CCF3-4A73-A171-84F1BD8DE29C";
name = "Regular Italic";
paths = (
{
closed = 1;
nodes = (
"452 0 LINE",
"469 84 LINE",
"129 84 LINE",
"171 280 LINE",
"474 280 LINE",
"492 364 LINE",
"189 364 LINE",
"230 559 LINE",
"570 559 LINE",
"588 644 LINE",
"139 644 LINE",
"3 0 LINE"
);
},
{
closed = 1;
nodes = (
"426 688 LINE",
"388 865 LINE",
"293 865 LINE",
"338 688 LINE"
);
}
);
width = 550;
}
);
leftKerningGroup = E;
note = Egrave;
rightKerningGroup = E;
unicode = 00C8;
},
{
glyphname = Ehookabove;
lastChange = "2015-11-25 05:35:06 +0000";
layers = (
{
layerId = "51D8E656-CCF3-4A73-A171-84F1BD8DE29C";
name = "Regular Italic";
paths = (
{
closed = 1;
nodes = (
"452 0 LINE",
"469 84 LINE",
"129 84 LINE",
"171 280 LINE",
"474 280 LINE",
"492 364 LINE",
"189 364 LINE",
"230 559 LINE",
"570 559 LINE",
"588 644 LINE",
"139 644 LINE",
"3 0 LINE"
);
},
{
closed = 1;
nodes = (
"408 687 LINE",
"418 734 LINE",
"486 744 OFFCURVE",
"515 773 OFFCURVE",
"526 828 CURVE SMOOTH",
"539 885 OFFCURVE",
"502 921 OFFCURVE",
"420 921 CURVE SMOOTH",
"386 921 OFFCURVE",
"348 916 OFFCURVE",
"324 908 CURVE",
"312 849 LINE",
"330 856 OFFCURVE",
"358 861 OFFCURVE",
"378 861 CURVE SMOOTH",
"426 861 OFFCURVE",
"450 849 OFFCURVE",
"444 819 CURVE SMOOTH",
"437 786 OFFCURVE",
"418 773 OFFCURVE",
"341 769 CURVE",
"323 687 LINE"
);
}
);
width = 550;
}
);
leftKerningGroup = E;
note = Ehookabove;
rightKerningGroup = E;
unicode = 1EBA;
},
{
glyphname = Emacron;
lastChange = "2015-11-25 05:35:06 +0000";
layers = (
{
layerId = "51D8E656-CCF3-4A73-A171-84F1BD8DE29C";
name = "Regular Italic";
paths = (
{
closed = 1;
nodes = (
"452 0 LINE",
"469 84 LINE",
"129 84 LINE",
"171 280 LINE",
"474 280 LINE",
"492 364 LINE",
"189 364 LINE",
"230 559 LINE",
"570 559 LINE",
"588 644 LINE",
"139 644 LINE",
"3 0 LINE"
);
},
{
closed = 1;
nodes = (
"518 721 LINE",
"533 792 LINE",
"236 792 LINE",
"221 721 LINE"
);
}
);
width = 550;
}
);
leftKerningGroup = E;
note = Emacron;
rightKerningGroup = E;
unicode = 0112;
},
{
glyphname = Eogonek;
lastChange = "2015-11-25 05:35:06 +0000";
layers = (
{
layerId = "51D8E656-CCF3-4A73-A171-84F1BD8DE29C";
name = "Regular Italic";
paths = (
{
closed = 1;
nodes = (
"345 -220 OFFCURVE",
"376 -215 OFFCURVE",
"395 -207 CURVE",
"409 -141 LINE",
"395 -148 OFFCURVE",
"373 -152 OFFCURVE",
"357 -152 CURVE SMOOTH",
"327 -152 OFFCURVE",
"312 -143 OFFCURVE",
"319 -112 CURVE SMOOTH",
"327 -72 OFFCURVE",
"361 -33 OFFCURVE",
"411 0 CURVE",
"452 0 LINE",
"469 84 LINE",
"129 84 LINE",
"171 280 LINE",
"474 280 LINE",
"492 364 LINE",
"189 364 LINE",
"230 559 LINE",
"570 559 LINE",
"588 644 LINE",
"139 644 LINE",
"3 0 LINE",
"329 0 LINE",
"278 -31 OFFCURVE",
"239 -80 OFFCURVE",
"228 -131 CURVE SMOOTH",
"215 -193 OFFCURVE",
"259 -220 OFFCURVE",
"316 -220 CURVE SMOOTH"
);
}
);
width = 550;
}
);
leftKerningGroup = E;
note = Eogonek;
rightKerningGroup = E;
unicode = 0118;
},
{
glyphname = Etilde;
lastChange = "2015-11-25 05:35:06 +0000";
layers = (
{
layerId = "51D8E656-CCF3-4A73-A171-84F1BD8DE29C";
name = "Regular Italic";
paths = (
{
closed = 1;
nodes = (
"452 0 LINE",
"469 84 LINE",
"129 84 LINE",
"171 280 LINE",
"474 280 LINE",
"492 364 LINE",
"189 364 LINE",
"230 559 LINE",
"570 559 LINE",
"588 644 LINE",
"139 644 LINE",
"3 0 LINE"
);
},
{
closed = 1;
nodes = (
"487 703 OFFCURVE",
"520 716 OFFCURVE",
"537 734 CURVE",
"554 814 LINE",
"531 790 OFFCURVE",
"502 777 OFFCURVE",
"466 777 CURVE SMOOTH",
"413 777 OFFCURVE",
"379 816 OFFCURVE",
"321 816 CURVE SMOOTH",
"288 816 OFFCURVE",
"251 804 OFFCURVE",
"230 786 CURVE",
"213 706 LINE",
"242 732 OFFCURVE",
"273 742 OFFCURVE",
"308 742 CURVE SMOOTH",
"354 742 OFFCURVE",
"396 703 OFFCURVE",
"451 703 CURVE SMOOTH"
);
}
);
width = 550;
}
);
leftKerningGroup = E;
note = Etilde;
rightKerningGroup = E;
unicode = 1EBC;
},
{
glyphname = F;
lastChange = "2015-11-25 05:32:27 +0000";
layers = (
{
layerId = "51D8E656-CCF3-4A73-A171-84F1BD8DE29C";
name = "Regular Italic";
paths = (
{
closed = 1;
nodes = (
"112 0 LINE",
"171 280 LINE",
"463 280 LINE",
"481 364 LINE",
"189 364 LINE",
"230 559 LINE",
"559 559 LINE",
"577 644 LINE",
"139 644 LINE",
"3 0 LINE"
);
}
);
width = 524;
}
);
note = F;
unicode = 0046;
},
{
glyphname = G;
lastChange = "2015-11-25 05:32:24 +0000";
layers = (
{
layerId = "51D8E656-CCF3-4A73-A171-84F1BD8DE29C";
name = "Regular Italic";
paths = (
{
closed = 1;
nodes = (
"419 -10 OFFCURVE",
"499 16 OFFCURVE",
"547 43 CURVE",
"613 353 LINE",
"359 353 LINE",
"343 282 LINE",
"504 282 LINE",
"466 102 LINE",
"426 88 OFFCURVE",
"382 82 OFFCURVE",
"323 82 CURVE SMOOTH",
"170 82 OFFCURVE",
"126 152 OFFCURVE",
"158 309 CURVE SMOOTH",
"191 472 OFFCURVE",
"276 561 OFFCURVE",
"434 561 CURVE SMOOTH",
"499 561 OFFCURVE",
"559 551 OFFCURVE",
"609 531 CURVE",
"629 625 LINE",
"578 644 OFFCURVE",
"521 654 OFFCURVE",
"445 654 CURVE SMOOTH",
"217 654 OFFCURVE",
"93 521 OFFCURVE",
"48 309 CURVE SMOOTH",
"7 113 OFFCURVE",
"96 -10 OFFCURVE",
"300 -10 CURVE SMOOTH"
);
}
);
width = 641;
}
);
leftKerningGroup = G;
note = G;
unicode = 0047;
},
{
glyphname = Gbreve;
lastChange = "2015-11-25 05:32:26 +0000";
layers = (
{
layerId = "51D8E656-CCF3-4A73-A171-84F1BD8DE29C";
name = "Regular Italic";
paths = (
{
closed = 1;
nodes = (
"419 -10 OFFCURVE",
"499 16 OFFCURVE",
"547 43 CURVE",
"613 353 LINE",
"359 353 LINE",
"343 282 LINE",
"504 282 LINE",
"466 102 LINE",
"426 88 OFFCURVE",
"382 82 OFFCURVE",
"323 82 CURVE SMOOTH",
"170 82 OFFCURVE",
"126 152 OFFCURVE",
"158 309 CURVE SMOOTH",
"191 472 OFFCURVE",
"276 561 OFFCURVE",
"434 561 CURVE SMOOTH",
"499 561 OFFCURVE",
"559 551 OFFCURVE",
"609 531 CURVE",
"629 625 LINE",
"578 644 OFFCURVE",
"521 654 OFFCURVE",
"445 654 CURVE SMOOTH",
"217 654 OFFCURVE",
"93 521 OFFCURVE",
"48 309 CURVE SMOOTH",
"7 113 OFFCURVE",
"96 -10 OFFCURVE",
"300 -10 CURVE SMOOTH"
);
},
{
closed = 1;
nodes = (
"532 688 OFFCURVE",
"599 743 OFFCURVE",
"617 829 CURVE",
"540 829 LINE",
"530 783 OFFCURVE",
"499 753 OFFCURVE",
"454 753 CURVE SMOOTH",
"403 753 OFFCURVE",
"393 783 OFFCURVE",
"403 829 CURVE",
"333 829 LINE",
"315 743 OFFCURVE",
"355 688 OFFCURVE",
"443 688 CURVE SMOOTH"
);
}
);
width = 641;
}
);
leftKerningGroup = G;
note = Gbreve;
unicode = 011E;
},
{
glyphname = Gcaron;
lastChange = "2015-11-25 05:32:27 +0000";
layers = (
{
layerId = "51D8E656-CCF3-4A73-A171-84F1BD8DE29C";
name = "Regular Italic";
paths = (
{
closed = 1;
nodes = (
"419 -10 OFFCURVE",
"499 16 OFFCURVE",
"547 43 CURVE",
"613 353 LINE",
"359 353 LINE",
"343 282 LINE",
"504 282 LINE",
"466 102 LINE",
"426 88 OFFCURVE",
"382 82 OFFCURVE",
"323 82 CURVE SMOOTH",
"170 82 OFFCURVE",
"126 152 OFFCURVE",
"158 309 CURVE SMOOTH",
"191 472 OFFCURVE",
"276 561 OFFCURVE",
"434 561 CURVE SMOOTH",
"499 561 OFFCURVE",
"559 551 OFFCURVE",
"609 531 CURVE",
"629 625 LINE",
"578 644 OFFCURVE",
"521 654 OFFCURVE",
"445 654 CURVE SMOOTH",
"217 654 OFFCURVE",
"93 521 OFFCURVE",
"48 309 CURVE SMOOTH",
"7 113 OFFCURVE",
"96 -10 OFFCURVE",
"300 -10 CURVE SMOOTH"
);
},
{
closed = 1;
nodes = (
"481 686 LINE",
"640 847 LINE",
"550 847 LINE",
"453 746 LINE",
"400 847 LINE",
"315 847 LINE",
"405 686 LINE"
);
}
);
width = 641;
}
);
leftKerningGroup = G;
note = Gcaron;
unicode = 01E6;
},
{
glyphname = Gcircumflex;
lastChange = "2015-11-25 05:32:26 +0000";
layers = (
{
layerId = "51D8E656-CCF3-4A73-A171-84F1BD8DE29C";
name = "Regular Italic";
paths = (
{
closed = 1;
nodes = (
"419 -10 OFFCURVE",
"499 16 OFFCURVE",
"547 43 CURVE",
"613 353 LINE",
"359 353 LINE",
"343 282 LINE",
"504 282 LINE",
"466 102 LINE",
"426 88 OFFCURVE",
"382 82 OFFCURVE",
"323 82 CURVE SMOOTH",
"170 82 OFFCURVE",
"126 152 OFFCURVE",
"158 309 CURVE SMOOTH",
"191 472 OFFCURVE",
"276 561 OFFCURVE",
"434 561 CURVE SMOOTH",
"499 561 OFFCURVE",
"559 551 OFFCURVE",
"609 531 CURVE",
"629 625 LINE",
"578 644 OFFCURVE",
"521 654 OFFCURVE",
"445 654 CURVE SMOOTH",
"217 654 OFFCURVE",
"93 521 OFFCURVE",
"48 309 CURVE SMOOTH",
"7 113 OFFCURVE",
"96 -10 OFFCURVE",
"300 -10 CURVE SMOOTH"
);
},
{
closed = 1;
nodes = (
"371 687 LINE",
"466 788 LINE",
"521 687 LINE",
"605 687 LINE",
"514 848 LINE",
"438 848 LINE",
"280 687 LINE"
);
}
);
width = 641;
}
);
leftKerningGroup = G;
note = Gcircumflex;
unicode = 011C;
},
{
glyphname = Gcommaaccent;
lastChange = "2015-11-25 05:32:28 +0000";
layers = (
{
layerId = "51D8E656-CCF3-4A73-A171-84F1BD8DE29C";
name = "Regular Italic";
paths = (
{
closed = 1;
nodes = (
"419 -10 OFFCURVE",
"499 16 OFFCURVE",
"547 43 CURVE",
"613 353 LINE",
"359 353 LINE",
"343 282 LINE",
"504 282 LINE",
"466 102 LINE",
"426 88 OFFCURVE",
"382 82 OFFCURVE",
"323 82 CURVE SMOOTH",
"170 82 OFFCURVE",
"126 152 OFFCURVE",
"158 309 CURVE SMOOTH",
"191 472 OFFCURVE",
"276 561 OFFCURVE",
"434 561 CURVE SMOOTH",
"499 561 OFFCURVE",
"559 551 OFFCURVE",
"609 531 CURVE",
"629 625 LINE",
"578 644 OFFCURVE",
"521 654 OFFCURVE",
"445 654 CURVE SMOOTH",
"217 654 OFFCURVE",
"93 521 OFFCURVE",
"48 309 CURVE SMOOTH",
"7 113 OFFCURVE",
"96 -10 OFFCURVE",
"300 -10 CURVE SMOOTH"
);
},
{
closed = 1;
nodes = (
"263 -231 LINE",
"350 -42 LINE",
"260 -42 LINE",
"191 -231 LINE"
);
}
);
width = 641;
}
);
leftKerningGroup = G;
note = Gcommaaccent;
unicode = 0122;
},
{
glyphname = Gdotaccent;
lastChange = "2015-11-25 05:32:27 +0000";
layers = (
{
layerId = "51D8E656-CCF3-4A73-A171-84F1BD8DE29C";
name = "Regular Italic";
paths = (
{
closed = 1;
nodes = (
"419 -10 OFFCURVE",
"499 16 OFFCURVE",
"547 43 CURVE",
"613 353 LINE",
"359 353 LINE",
"343 282 LINE",
"504 282 LINE",
"466 102 LINE",
"426 88 OFFCURVE",
"382 82 OFFCURVE",
"323 82 CURVE SMOOTH",
"170 82 OFFCURVE",
"126 152 OFFCURVE",
"158 309 CURVE SMOOTH",
"191 472 OFFCURVE",
"276 561 OFFCURVE",
"434 561 CURVE SMOOTH",
"499 561 OFFCURVE",
"559 551 OFFCURVE",
"609 531 CURVE",
"629 625 LINE",
"578 644 OFFCURVE",
"521 654 OFFCURVE",
"445 654 CURVE SMOOTH",
"217 654 OFFCURVE",
"93 521 OFFCURVE",
"48 309 CURVE SMOOTH",
"7 113 OFFCURVE",
"96 -10 OFFCURVE",
"300 -10 CURVE SMOOTH"
);
},
{
closed = 1;
nodes = (
"499 711 LINE",
"518 799 LINE",
"426 799 LINE",
"407 711 LINE"
);
}
);
width = 641;
}
);
leftKerningGroup = G;
note = Gdotaccent;
unicode = 0120;
},
{
glyphname = Gmacron;
lastChange = "2015-11-25 05:32:26 +0000";
layers = (
{
layerId = "51D8E656-CCF3-4A73-A171-84F1BD8DE29C";
name = "Regular Italic";
paths = (
{
closed = 1;
nodes = (
"419 -10 OFFCURVE",
"499 16 OFFCURVE",
"547 43 CURVE",
"613 353 LINE",
"359 353 LINE",
"343 282 LINE",
"504 282 LINE",
"466 102 LINE",
"426 88 OFFCURVE",
"382 82 OFFCURVE",
"323 82 CURVE SMOOTH",
"170 82 OFFCURVE",
"126 152 OFFCURVE",
"158 309 CURVE SMOOTH",
"191 472 OFFCURVE",
"276 561 OFFCURVE",
"434 561 CURVE SMOOTH",
"499 561 OFFCURVE",
"559 551 OFFCURVE",
"609 531 CURVE",
"629 625 LINE",
"578 644 OFFCURVE",
"521 654 OFFCURVE",
"445 654 CURVE SMOOTH",
"217 654 OFFCURVE",
"93 521 OFFCURVE",
"48 309 CURVE SMOOTH",
"7 113 OFFCURVE",
"96 -10 OFFCURVE",
"300 -10 CURVE SMOOTH"
);
},
{
closed = 1;
nodes = (
"601 717 LINE",
"616 788 LINE",
"319 788 LINE",
"304 717 LINE"
);
}
);
width = 641;
}
);
leftKerningGroup = G;
note = Gmacron;
unicode = 1E20;
},
{
glyphname = H;
lastChange = "2015-11-25 05:32:27 +0000";
layers = (
{
layerId = "51D8E656-CCF3-4A73-A171-84F1BD8DE29C";
name = "Regular Italic";
paths = (
{
closed = 1;
nodes = (
"112 0 LINE",
"171 280 LINE",
"481 280 LINE",
"422 0 LINE",
"531 0 LINE",
"667 644 LINE",
"558 644 LINE",
"499 364 LINE",
"189 364 LINE",
"248 644 LINE",
"139 644 LINE",
"3 0 LINE"
);
}
);
width = 654;
}
);
note = H;
unicode = 0048;
},
{
glyphname = Hbar;
lastChange = "2015-11-25 05:39:33 +0000";
layers = (
{
layerId = "51D8E656-CCF3-4A73-A171-84F1BD8DE29C";
name = "Regular Italic";
paths = (
{
closed = 1;
nodes = (
"112 0 LINE",
"171 280 LINE",
"481 280 LINE",
"422 0 LINE",
"531 0 LINE",
"627 457 LINE",
"679 457 LINE",
"697 542 LINE",
"645 542 LINE",
"667 644 LINE",
"558 644 LINE",
"536 542 LINE",
"226 542 LINE",
"248 644 LINE",
"139 644 LINE",
"117 542 LINE",
"68 542 LINE",
"50 457 LINE",
"99 457 LINE",
"3 0 LINE"
);
},
{
closed = 1;
nodes = (
"208 457 LINE",
"518 457 LINE",
"499 364 LINE",
"189 364 LINE"
);
}
);
width = 654;
}
);
note = Hbar;
unicode = 0126;
},
{
glyphname = Hbrevebelow;
lastChange = "2015-11-25 05:39:24 +0000";
layers = (
{
layerId = "51D8E656-CCF3-4A73-A171-84F1BD8DE29C";
name = "Regular Italic";
paths = (
{
closed = 1;
nodes = (
"112 0 LINE",
"171 280 LINE",
"481 280 LINE",
"422 0 LINE",
"531 0 LINE",
"667 644 LINE",
"558 644 LINE",
"499 364 LINE",
"189 364 LINE",
"248 644 LINE",
"139 644 LINE",
"3 0 LINE"
);
},
{
closed = 1;
nodes = (
"310 -207 OFFCURVE",
"376 -152 OFFCURVE",
"395 -65 CURVE",
"318 -65 LINE",
"308 -112 OFFCURVE",
"277 -142 OFFCURVE",
"232 -142 CURVE SMOOTH",
"182 -142 OFFCURVE",
"172 -112 OFFCURVE",
"182 -65 CURVE",
"111 -65 LINE",
"92 -152 OFFCURVE",
"134 -207 OFFCURVE",
"222 -207 CURVE SMOOTH"
);
}
);
width = 654;
}
);
note = Hbrevebelow;
unicode = 1E2A;
},
{
glyphname = Hcircumflex;
lastChange = "2015-11-25 05:39:42 +0000";
layers = (
{
layerId = "51D8E656-CCF3-4A73-A171-84F1BD8DE29C";
name = "Regular Italic";
paths = (
{
closed = 1;
nodes = (
"112 0 LINE",
"171 280 LINE",
"481 280 LINE",
"422 0 LINE",
"531 0 LINE",
"667 644 LINE",
"558 644 LINE",
"499 364 LINE",
"189 364 LINE",
"248 644 LINE",
"139 644 LINE",
"3 0 LINE"
);
},
{
closed = 1;
nodes = (
"340 687 LINE",
"435 788 LINE",
"490 687 LINE",
"574 687 LINE",
"483 848 LINE",
"407 848 LINE",
"249 687 LINE"
);
}
);
width = 654;
}
);
note = Hcircumflex;
unicode = 0124;
},
{
glyphname = Hdotbelow;
lastChange = "2015-11-25 05:39:50 +0000";
layers = (
{
layerId = "51D8E656-CCF3-4A73-A171-84F1BD8DE29C";
name = "Regular Italic";
paths = (
{
closed = 1;
nodes = (
"112 0 LINE",
"171 280 LINE",
"481 280 LINE",
"422 0 LINE",
"531 0 LINE",
"667 644 LINE",
"558 644 LINE",
"499 364 LINE",
"189 364 LINE",
"248 644 LINE",
"139 644 LINE",
"3 0 LINE"
);
},
{
closed = 1;
nodes = (
"278 -173 LINE",
"296 -85 LINE",
"202 -85 LINE",
"184 -173 LINE"
);
}
);
width = 654;
}
);
note = Hdotbelow;
unicode = 1E24;
},
{
glyphname = I;
lastChange = "2015-11-25 05:32:26 +0000";
layers = (
{
layerId = "51D8E656-CCF3-4A73-A171-84F1BD8DE29C";
name = "Regular Italic";
paths = (
{
closed = 1;
nodes = (
"112 0 LINE",
"248 644 LINE",
"139 644 LINE",
"3 0 LINE"
);
}
);
width = 235;
}
);
note = I;
unicode = 0049;
},
{
glyphname = IJ;
lastChange = "2015-11-25 05:32:28 +0000";
layers = (
{
layerId = "51D8E656-CCF3-4A73-A171-84F1BD8DE29C";
name = "Regular Italic";
paths = (
{
closed = 1;
nodes = (
"468 -10 OFFCURVE",
"544 57 OFFCURVE",
"570 180 CURVE SMOOTH",
"668 644 LINE",
"559 644 LINE",
"465 198 LINE SMOOTH",
"447 117 OFFCURVE",
"409 82 OFFCURVE",
"320 82 CURVE SMOOTH",
"277 82 OFFCURVE",
"233 91 OFFCURVE",
"204 105 CURVE",
"184 13 LINE",
"219 -2 OFFCURVE",
"264 -10 OFFCURVE",
"319 -10 CURVE SMOOTH"
);
},
{
closed = 1;
nodes = (
"112 0 LINE",
"248 644 LINE",
"139 644 LINE",
"3 0 LINE"
);
}
);
width = 651;
}
);
note = IJ;
unicode = 0132;
},
{
glyphname = Iacute;
lastChange = "2015-11-25 05:32:27 +0000";
layers = (
{
layerId = "51D8E656-CCF3-4A73-A171-84F1BD8DE29C";
name = "Regular Italic";
paths = (
{
closed = 1;
nodes = (
"112 0 LINE",
"248 644 LINE",
"139 644 LINE",
"3 0 LINE"
);
},
{
closed = 1;
nodes = (
"243 688 LINE",
"365 865 LINE",
"269 865 LINE",
"156 688 LINE"
);
}
);
width = 236;
}
);
note = Iacute;
unicode = 00CD;
},
{
glyphname = Ibreve;
lastChange = "2015-11-25 05:32:28 +0000";
layers = (
{
layerId = "51D8E656-CCF3-4A73-A171-84F1BD8DE29C";
name = "Regular Italic";
paths = (
{
closed = 1;
nodes = (
"112 0 LINE",
"248 644 LINE",
"139 644 LINE",
"3 0 LINE"
);
},
{
closed = 1;
nodes = (
"293 698 OFFCURVE",
"360 753 OFFCURVE",
"378 839 CURVE",
"301 839 LINE",
"291 793 OFFCURVE",
"260 763 OFFCURVE",
"215 763 CURVE SMOOTH",
"164 763 OFFCURVE",
"154 793 OFFCURVE",
"164 839 CURVE",
"94 839 LINE",
"76 753 OFFCURVE",
"116 698 OFFCURVE",
"204 698 CURVE SMOOTH"
);
}
);
width = 236;
}
);
note = Ibreve;
unicode = 012C;
},
{
glyphname = Icaron;
lastChange = "2015-11-25 05:40:23 +0000";
layers = (
{
layerId = "51D8E656-CCF3-4A73-A171-84F1BD8DE29C";
name = "Regular Italic";
paths = (
{
closed = 1;
nodes = (
"112 0 LINE",
"248 644 LINE",
"139 644 LINE",
"3 0 LINE"
);
},
{
closed = 1;
nodes = (
"236 687 LINE",
"395 848 LINE",
"305 848 LINE",
"208 747 LINE",
"155 848 LINE",
"70 848 LINE",
"160 687 LINE"
);
}
);
width = 236;
}
);
note = Icaron;
unicode = 01CF;
},
{
glyphname = Icircumflex;
lastChange = "2015-11-25 05:32:27 +0000";
layers = (
{
layerId = "51D8E656-CCF3-4A73-A171-84F1BD8DE29C";
name = "Regular Italic";
paths = (
{
closed = 1;
nodes = (
"112 0 LINE",
"248 644 LINE",
"139 644 LINE",
"3 0 LINE"
);
},
{
closed = 1;
nodes = (
"131 687 LINE",
"226 788 LINE",
"281 687 LINE",
"365 687 LINE",
"274 848 LINE",
"198 848 LINE",
"40 687 LINE"
);
}
);
width = 235;
}
);
note = Icircumflex;
unicode = 00CE;
},
{
glyphname = Idieresis;
lastChange = "2015-11-25 05:32:27 +0000";
layers = (
{
layerId = "51D8E656-CCF3-4A73-A171-84F1BD8DE29C";
name = "Regular Italic";
paths = (
{
closed = 1;
nodes = (
"112 0 LINE",
"248 644 LINE",
"139 644 LINE",
"3 0 LINE"
);
},
{
closed = 1;
nodes = (
"161 715 LINE",
"180 801 LINE",
"89 801 LINE",
"70 715 LINE"
);
},
{
closed = 1;
nodes = (
"347 715 LINE",
"366 801 LINE",
"274 801 LINE",
"255 715 LINE"
);
}
);
width = 235;
}
);
note = Idieresis;
unicode = 00CF;
},
{
glyphname = Idotaccent;
lastChange = "2015-11-25 05:32:26 +0000";
layers = (
{
layerId = "51D8E656-CCF3-4A73-A171-84F1BD8DE29C";
name = "Regular Italic";
paths = (
{
closed = 1;
nodes = (
"112 0 LINE",
"248 644 LINE",
"139 644 LINE",
"3 0 LINE"
);
},
{
closed = 1;
nodes = (
"254 714 LINE",
"273 802 LINE",
"181 802 LINE",
"162 714 LINE"
);
}
);
width = 235;
}
);
note = Idotaccent;
unicode = 0130;
},
{
glyphname = Idotbelow;
lastChange = "2015-11-25 05:32:28 +0000";
layers = (
{
layerId = "51D8E656-CCF3-4A73-A171-84F1BD8DE29C";
name = "Regular Italic";
paths = (
{
closed = 1;
nodes = (
"112 0 LINE",
"248 644 LINE",
"139 644 LINE",
"3 0 LINE"
);
},
{
closed = 1;
nodes = (
"68 -173 LINE",
"86 -85 LINE",
"-8 -85 LINE",
"-26 -173 LINE"
);
}
);
width = 235;
}
);
note = Idotbelow;
unicode = 1ECA;
},
{
glyphname = Igrave;
lastChange = "2015-11-25 05:32:26 +0000";
layers = (
{
layerId = "51D8E656-CCF3-4A73-A171-84F1BD8DE29C";
name = "Regular Italic";
paths = (
{
closed = 1;
nodes = (
"112 0 LINE",
"248 644 LINE",
"139 644 LINE",
"3 0 LINE"
);
},
{
closed = 1;
nodes = (
"248 688 LINE",
"210 865 LINE",
"115 865 LINE",
"160 688 LINE"
);
}
);
width = 235;
}
);
note = Igrave;
unicode = 00CC;
},
{
glyphname = Ihookabove;
lastChange = "2015-11-25 05:32:26 +0000";
layers = (
{
layerId = "51D8E656-CCF3-4A73-A171-84F1BD8DE29C";
name = "Regular Italic";
paths = (
{
closed = 1;
nodes = (
"112 0 LINE",
"248 644 LINE",
"139 644 LINE",
"3 0 LINE"
);
},
{
closed = 1;
nodes = (
"245 687 LINE",
"255 734 LINE",
"323 744 OFFCURVE",
"352 773 OFFCURVE",
"363 828 CURVE SMOOTH",
"376 885 OFFCURVE",
"339 921 OFFCURVE",
"257 921 CURVE SMOOTH",
"223 921 OFFCURVE",
"185 916 OFFCURVE",
"161 908 CURVE",
"149 849 LINE",
"167 856 OFFCURVE",
"195 861 OFFCURVE",
"215 861 CURVE SMOOTH",
"263 861 OFFCURVE",
"287 849 OFFCURVE",
"281 819 CURVE SMOOTH",
"274 786 OFFCURVE",
"255 773 OFFCURVE",
"178 769 CURVE",
"160 687 LINE"
);
}
);
width = 236;
}
);
note = Ihookabove;
unicode = 1EC8;
},
{
glyphname = Imacron;
lastChange = "2015-11-25 05:32:24 +0000";
layers = (
{
layerId = "51D8E656-CCF3-4A73-A171-84F1BD8DE29C";
name = "Regular Italic";
paths = (
{
closed = 1;
nodes = (
"112 0 LINE",
"248 644 LINE",
"139 644 LINE",
"3 0 LINE"
);
},
{
closed = 1;
nodes = (
"359 721 LINE",
"374 792 LINE",
"76 792 LINE",
"61 721 LINE"
);
}
);
width = 236;
}
);
note = Imacron;
unicode = 012A;
},
{
glyphname = Iogonek;
lastChange = "2015-11-25 05:32:28 +0000";
layers = (
{
layerId = "51D8E656-CCF3-4A73-A171-84F1BD8DE29C";
name = "Regular Italic";
paths = (
{
closed = 1;
nodes = (
"36 -220 OFFCURVE",
"67 -215 OFFCURVE",
"86 -207 CURVE",
"100 -141 LINE",
"86 -148 OFFCURVE",
"64 -152 OFFCURVE",
"48 -152 CURVE SMOOTH",
"18 -152 OFFCURVE",
"3 -143 OFFCURVE",
"10 -112 CURVE SMOOTH",
"18 -72 OFFCURVE",
"52 -33 OFFCURVE",
"102 0 CURVE",
"112 0 LINE",
"248 644 LINE",
"139 644 LINE",
"3 0 LINE",
"20 0 LINE",
"-31 -31 OFFCURVE",
"-70 -80 OFFCURVE",
"-81 -131 CURVE SMOOTH",
"-94 -193 OFFCURVE",
"-50 -220 OFFCURVE",
"7 -220 CURVE SMOOTH"
);
}
);
width = 236;
}
);
note = Iogonek;
unicode = 012E;
},
{
glyphname = Itilde;
lastChange = "2015-11-25 05:32:27 +0000";
layers = (
{
layerId = "51D8E656-CCF3-4A73-A171-84F1BD8DE29C";
name = "Regular Italic";
paths = (
{
closed = 1;
nodes = (
"112 0 LINE",
"248 644 LINE",
"139 644 LINE",
"3 0 LINE"
);
},
{
closed = 1;
nodes = (
"321 696 OFFCURVE",
"354 709 OFFCURVE",
"371 727 CURVE",
"388 807 LINE",
"365 783 OFFCURVE",
"336 770 OFFCURVE",
"300 770 CURVE SMOOTH",
"247 770 OFFCURVE",
"213 809 OFFCURVE",
"155 809 CURVE SMOOTH",
"122 809 OFFCURVE",
"85 797 OFFCURVE",
"64 779 CURVE",
"47 699 LINE",
"76 725 OFFCURVE",
"107 735 OFFCURVE",
"142 735 CURVE SMOOTH",
"188 735 OFFCURVE",
"230 696 OFFCURVE",
"285 696 CURVE SMOOTH"
);
}
);
width = 236;
}
);
note = Itilde;
unicode = 0128;
},
{
glyphname = J;
lastChange = "2015-11-25 05:32:25 +0000";
layers = (
{
layerId = "51D8E656-CCF3-4A73-A171-84F1BD8DE29C";
name = "Regular Italic";
paths = (
{
closed = 1;
nodes = (
"249 -10 OFFCURVE",
"325 57 OFFCURVE",
"351 180 CURVE SMOOTH",
"449 644 LINE",
"340 644 LINE",
"246 198 LINE SMOOTH",
"228 117 OFFCURVE",
"190 82 OFFCURVE",
"101 82 CURVE SMOOTH",
"58 82 OFFCURVE",
"14 91 OFFCURVE",
"-15 105 CURVE",
"-35 13 LINE",
"0 -2 OFFCURVE",
"45 -10 OFFCURVE",
"100 -10 CURVE SMOOTH"
);
}
);
width = 431;
}
);
note = J;
unicode = 004A;
},
{
glyphname = Jcircumflex;
lastChange = "2015-11-25 05:32:28 +0000";
layers = (
{
layerId = "51D8E656-CCF3-4A73-A171-84F1BD8DE29C";
name = "Regular Italic";
paths = (
{
closed = 1;
nodes = (
"249 -10 OFFCURVE",
"325 57 OFFCURVE",
"351 180 CURVE SMOOTH",
"449 644 LINE",
"340 644 LINE",
"246 198 LINE SMOOTH",
"228 117 OFFCURVE",
"190 82 OFFCURVE",
"101 82 CURVE SMOOTH",
"58 82 OFFCURVE",
"14 91 OFFCURVE",
"-15 105 CURVE",
"-35 13 LINE",
"0 -2 OFFCURVE",
"45 -10 OFFCURVE",
"100 -10 CURVE SMOOTH"
);
},
{
closed = 1;
nodes = (
"332 687 LINE",
"427 788 LINE",
"482 687 LINE",
"566 687 LINE",
"475 848 LINE",
"399 848 LINE",
"241 687 LINE"
);
}
);
width = 431;
}
);
note = Jcircumflex;
unicode = 0134;
},
{
glyphname = K;
lastChange = "2015-11-25 05:32:28 +0000";
layers = (
{
layerId = "51D8E656-CCF3-4A73-A171-84F1BD8DE29C";
name = "Regular Italic";
paths = (
{
closed = 1;
nodes = (
"112 0 LINE",
"157 213 LINE",
"273 315 LINE",
"406 0 LINE",
"522 0 LINE",
"356 384 LINE",
"648 644 LINE",
"522 644 LINE",
"185 348 LINE",
"248 644 LINE",
"139 644 LINE",
"3 0 LINE"
);
}
);
width = 625;
}
);
leftKerningGroup = K;
note = K;
rightKerningGroup = K;
unicode = 004B;
},
{
glyphname = Kcommaaccent;
lastChange = "2015-11-25 05:32:27 +0000";
layers = (
{
layerId = "51D8E656-CCF3-4A73-A171-84F1BD8DE29C";
name = "Regular Italic";
paths = (
{
closed = 1;
nodes = (
"112 0 LINE",
"157 213 LINE",
"273 315 LINE",
"406 0 LINE",
"522 0 LINE",
"356 384 LINE",
"648 644 LINE",
"522 644 LINE",
"185 348 LINE",
"248 644 LINE",
"139 644 LINE",
"3 0 LINE"
);
},
{
closed = 1;
nodes = (
"208 -226 LINE",
"295 -37 LINE",
"205 -37 LINE",
"136 -226 LINE"
);
}
);
width = 625;
}
);
leftKerningGroup = K;
note = Kcommaaccent;
rightKerningGroup = K;
unicode = 0136;
},
{
glyphname = L;
lastChange = "2015-11-25 05:32:28 +0000";
layers = (
{
layerId = "51D8E656-CCF3-4A73-A171-84F1BD8DE29C";
name = "Regular Italic";
paths = (
{
closed = 1;
nodes = (
"442 0 LINE",
"459 84 LINE",
"129 84 LINE",
"248 644 LINE",
"139 644 LINE",
"3 0 LINE"
);
}
);
width = 525;
}
);
note = L;
rightKerningGroup = L;
unicode = 004C;
},
{
glyphname = Lacute;
lastChange = "2015-11-25 05:32:27 +0000";
layers = (
{
layerId = "51D8E656-CCF3-4A73-A171-84F1BD8DE29C";
name = "Regular Italic";
paths = (
{
closed = 1;
nodes = (
"442 0 LINE",
"459 84 LINE",
"129 84 LINE",
"248 644 LINE",
"139 644 LINE",
"3 0 LINE"
);
},
{
closed = 1;
nodes = (
"244 688 LINE",
"366 865 LINE",
"270 865 LINE",
"157 688 LINE"
);
}
);
width = 525;
}
);
note = Lacute;
rightKerningGroup = L;
unicode = 0139;
},
{
glyphname = Lcaron;
lastChange = "2015-11-25 05:32:26 +0000";
layers = (
{
layerId = "51D8E656-CCF3-4A73-A171-84F1BD8DE29C";
name = "Regular Italic";
paths = (
{
closed = 1;
nodes = (
"442 0 LINE",
"459 84 LINE",
"129 84 LINE",
"248 644 LINE",
"139 644 LINE",
"3 0 LINE"
);
},
{
closed = 1;
nodes = (
"443 566 LINE",
"530 755 LINE",
"440 755 LINE",
"371 566 LINE"
);
}
);
width = 525;
}
);
note = Lcaron;
rightKerningGroup = L;
unicode = 013D;
},
{
glyphname = Lcommaaccent;
lastChange = "2015-11-25 05:32:25 +0000";
layers = (
{
layerId = "51D8E656-CCF3-4A73-A171-84F1BD8DE29C";
name = "Regular Italic";
paths = (
{
closed = 1;
nodes = (
"442 0 LINE",
"459 84 LINE",
"129 84 LINE",
"248 644 LINE",
"139 644 LINE",
"3 0 LINE"
);
},
{
closed = 1;
nodes = (
"182 -226 LINE",
"269 -37 LINE",
"179 -37 LINE",
"110 -226 LINE"
);
}
);
width = 525;
}
);
note = Lcommaaccent;
rightKerningGroup = L;
unicode = 013B;
},
{
glyphname = Ldot;
lastChange = "2015-11-25 05:32:25 +0000";
layers = (
{
layerId = "51D8E656-CCF3-4A73-A171-84F1BD8DE29C";
name = "Regular Italic";
paths = (
{
closed = 1;
nodes = (
"442 0 LINE",
"459 84 LINE",
"129 84 LINE",
"248 644 LINE",
"139 644 LINE",
"3 0 LINE"
);
},
{
closed = 1;
nodes = (
"404 267 LINE",
"423 355 LINE",
"331 355 LINE",
"312 267 LINE"
);
}
);
width = 525;
}
);
note = Ldot;
rightKerningGroup = L;
unicode = 013F;
},
{
glyphname = Ldotbelow;
lastChange = "2015-11-25 05:41:26 +0000";
layers = (
{
layerId = "51D8E656-CCF3-4A73-A171-84F1BD8DE29C";
name = "Regular Italic";
paths = (
{
closed = 1;
nodes = (
"442 0 LINE",
"459 84 LINE",
"129 84 LINE",
"248 644 LINE",
"139 644 LINE",
"3 0 LINE"
);
},
{
closed = 1;
nodes = (
"226 -173 LINE",
"244 -85 LINE",
"150 -85 LINE",
"132 -173 LINE"
);
}
);
width = 525;
}
);
note = Ldotbelow;
rightKerningGroup = L;
unicode = 1E36;
},
{
glyphname = Ldotbelowmacron;
lastChange = "2015-11-25 05:41:18 +0000";
layers = (
{
layerId = "51D8E656-CCF3-4A73-A171-84F1BD8DE29C";
name = "Regular Italic";
paths = (
{
closed = 1;
nodes = (
"442 0 LINE",
"459 84 LINE",
"129 84 LINE",
"248 644 LINE",
"139 644 LINE",
"3 0 LINE"
);
},
{
closed = 1;
nodes = (
"226 -173 LINE",
"244 -85 LINE",
"150 -85 LINE",
"132 -173 LINE"
);
},
{
closed = 1;
nodes = (
"376 717 LINE",
"391 788 LINE",
"94 788 LINE",
"79 717 LINE"
);
}
);
width = 525;
}
);
note = Ldotbelowmacron;
rightKerningGroup = L;
unicode = 1E38;
},
{
glyphname = Llinebelow;
lastChange = "2015-11-25 05:32:26 +0000";
layers = (
{
layerId = "51D8E656-CCF3-4A73-A171-84F1BD8DE29C";
name = "Regular Italic";
paths = (
{
closed = 1;
nodes = (
"442 0 LINE",
"459 84 LINE",
"129 84 LINE",
"248 644 LINE",
"139 644 LINE",
"3 0 LINE"
);
},
{
closed = 1;
nodes = (
"328 -146 LINE",
"343 -75 LINE",
"46 -75 LINE",
"31 -146 LINE"
);
}
);
width = 525;
}
);
note = Llinebelow;
rightKerningGroup = L;
unicode = 1E3A;
},
{
glyphname = Lslash;
lastChange = "2015-11-25 05:32:26 +0000";
layers = (
{
layerId = "51D8E656-CCF3-4A73-A171-84F1BD8DE29C";
name = "Regular Italic";
paths = (
{
closed = 1;
nodes = (
"442 0 LINE",
"459 84 LINE",
"129 84 LINE",
"178 315 LINE",
"320 372 LINE",
"337 456 LINE",
"196 399 LINE",
"248 644 LINE",
"139 644 LINE",
"77 351 LINE",
"-18 313 LINE",
"-36 229 LINE",
"59 267 LINE",
"3 0 LINE"
);
}
);
width = 525;
}
);
note = Lslash;
rightKerningGroup = L;
unicode = 0141;
},
{
glyphname = M;
lastChange = "2015-11-25 05:32:27 +0000";
layers = (
{
layerId = "51D8E656-CCF3-4A73-A171-84F1BD8DE29C";
name = "Regular Italic";
paths = (
{
closed = 1;
nodes = (
"111 0 LINE",
"210 467 LINE",
"309 111 LINE",
"375 111 LINE",
"625 467 LINE",
"526 0 LINE",
"634 0 LINE",
"770 644 LINE",
"655 644 LINE",
"364 227 LINE",
"248 644 LINE",
"139 644 LINE",
"3 0 LINE"
);
}
);
width = 757;
}
);
note = M;
unicode = 004D;
},
{
glyphname = Mdotbelow;
lastChange = "2015-11-25 05:32:26 +0000";
layers = (
{
layerId = "51D8E656-CCF3-4A73-A171-84F1BD8DE29C";
name = "Regular Italic";
paths = (
{
closed = 1;
nodes = (
"111 0 LINE",
"210 467 LINE",
"309 111 LINE",
"375 111 LINE",
"625 467 LINE",
"526 0 LINE",
"634 0 LINE",
"770 644 LINE",
"655 644 LINE",
"364 227 LINE",
"248 644 LINE",
"139 644 LINE",
"3 0 LINE"
);
},
{
closed = 1;
nodes = (
"331 -173 LINE",
"349 -85 LINE",
"255 -85 LINE",
"237 -173 LINE"
);
}
);
width = 757;
}
);
note = Mdotbelow;
unicode = 1E42;
},
{
glyphname = N;
lastChange = "2015-11-25 05:32:26 +0000";
layers = (
{
layerId = "51D8E656-CCF3-4A73-A171-84F1BD8DE29C";
name = "Regular Italic";
paths = (
{
closed = 1;
nodes = (
"112 0 LINE",
"212 473 LINE",
"447 0 LINE",
"543 0 LINE",
"679 644 LINE",
"571 644 LINE",
"471 170 LINE",
"235 644 LINE",
"139 644 LINE",
"3 0 LINE"
);
}
);
width = 667;
}
);
note = N;
unicode = 004E;
},
{
glyphname = Nacute;
lastChange = "2015-11-25 05:32:26 +0000";
layers = (
{
layerId = "51D8E656-CCF3-4A73-A171-84F1BD8DE29C";
name = "Regular Italic";
paths = (
{
closed = 1;
nodes = (
"112 0 LINE",
"212 473 LINE",
"447 0 LINE",
"543 0 LINE",
"679 644 LINE",
"571 644 LINE",
"471 170 LINE",
"235 644 LINE",
"139 644 LINE",
"3 0 LINE"
);
},
{
closed = 1;
nodes = (
"456 688 LINE",
"578 865 LINE",
"482 865 LINE",
"369 688 LINE"
);
}
);
width = 667;
}
);
note = Nacute;
unicode = 0143;
},
{
glyphname = Ncaron;
lastChange = "2015-11-25 05:32:27 +0000";
layers = (
{
layerId = "51D8E656-CCF3-4A73-A171-84F1BD8DE29C";
name = "Regular Italic";
paths = (
{
closed = 1;
nodes = (
"112 0 LINE",
"212 473 LINE",
"447 0 LINE",
"543 0 LINE",
"679 644 LINE",
"571 644 LINE",
"471 170 LINE",
"235 644 LINE",
"139 644 LINE",
"3 0 LINE"
);
},
{
closed = 1;
nodes = (
"464 687 LINE",
"623 848 LINE",
"533 848 LINE",
"436 747 LINE",
"383 848 LINE",
"298 848 LINE",
"388 687 LINE"
);
}
);
width = 667;
}
);
note = Ncaron;
unicode = 0147;
},
{
glyphname = Ncommaaccent;
lastChange = "2015-11-25 05:32:28 +0000";
layers = (
{
layerId = "51D8E656-CCF3-4A73-A171-84F1BD8DE29C";
name = "Regular Italic";
paths = (
{
closed = 1;
nodes = (
"112 0 LINE",
"212 473 LINE",
"447 0 LINE",
"543 0 LINE",
"679 644 LINE",
"571 644 LINE",
"471 170 LINE",
"235 644 LINE",
"139 644 LINE",
"3 0 LINE"
);
},
{
closed = 1;
nodes = (
"233 -226 LINE",
"320 -37 LINE",
"230 -37 LINE",
"161 -226 LINE"
);
}
);
width = 667;
}
);
note = Ncommaaccent;
unicode = 0145;
},
{
glyphname = Ndotaccent;
lastChange = "2015-11-25 05:41:35 +0000";
layers = (
{
layerId = "51D8E656-CCF3-4A73-A171-84F1BD8DE29C";
name = "Regular Italic";
paths = (
{
closed = 1;
nodes = (
"112 0 LINE",
"212 473 LINE",
"447 0 LINE",
"543 0 LINE",
"679 644 LINE",
"571 644 LINE",
"471 170 LINE",
"235 644 LINE",
"139 644 LINE",
"3 0 LINE"
);
},
{
closed = 1;
nodes = (
"460 711 LINE",
"479 799 LINE",
"387 799 LINE",
"368 711 LINE"
);
}
);
width = 667;
}
);
note = Ndotaccent;
unicode = 1E44;
},
{
glyphname = Ndotbelow;
lastChange = "2015-11-25 05:32:28 +0000";
layers = (
{
layerId = "51D8E656-CCF3-4A73-A171-84F1BD8DE29C";
name = "Regular Italic";
paths = (
{
closed = 1;
nodes = (
"112 0 LINE",
"212 473 LINE",
"447 0 LINE",
"543 0 LINE",
"679 644 LINE",
"571 644 LINE",
"471 170 LINE",
"235 644 LINE",
"139 644 LINE",
"3 0 LINE"
);
},
{
closed = 1;
nodes = (
"285 -173 LINE",
"303 -85 LINE",
"209 -85 LINE",
"191 -173 LINE"
);
}
);
width = 667;
}
);
note = Ndotbelow;
unicode = 1E46;
},
{
glyphname = Eng;
lastChange = "2015-11-25 05:32:27 +0000";
layers = (
{
layerId = "51D8E656-CCF3-4A73-A171-84F1BD8DE29C";
name = "Regular Italic";
paths = (
{
closed = 1;
nodes = (
"445 -234 OFFCURVE",
"505 -176 OFFCURVE",
"524 -86 CURVE SMOOTH",
"679 644 LINE",
"571 644 LINE",
"471 170 LINE",
"235 644 LINE",
"139 644 LINE",
"3 0 LINE",
"112 0 LINE",
"212 473 LINE",
"438 17 LINE",
"418 -76 LINE SMOOTH",
"407 -128 OFFCURVE",
"382 -149 OFFCURVE",
"319 -149 CURVE SMOOTH",
"301 -149 OFFCURVE",
"280 -146 OFFCURVE",
"260 -139 CURVE",
"243 -218 LINE",
"269 -229 OFFCURVE",
"301 -234 OFFCURVE",
"339 -234 CURVE SMOOTH"
);
}
);
width = 667;
}
);
note = Eng;
unicode = 014A;
},
{
glyphname = Nlinebelow;
lastChange = "2015-11-25 05:32:25 +0000";
layers = (
{
layerId = "51D8E656-CCF3-4A73-A171-84F1BD8DE29C";
name = "Regular Italic";
paths = (
{
closed = 1;
nodes = (
"112 0 LINE",
"212 473 LINE",
"447 0 LINE",
"543 0 LINE",
"679 644 LINE",
"571 644 LINE",
"471 170 LINE",
"235 644 LINE",
"139 644 LINE",
"3 0 LINE"
);
},
{
closed = 1;
nodes = (
"395 -143 LINE",
"410 -72 LINE",
"113 -72 LINE",
"98 -143 LINE"
);
}
);
width = 667;
}
);
note = Nlinebelow;
unicode = 1E48;
},
{
glyphname = Ntilde;
lastChange = "2015-11-25 05:32:27 +0000";
layers = (
{
layerId = "51D8E656-CCF3-4A73-A171-84F1BD8DE29C";
name = "Regular Italic";
paths = (
{
closed = 1;
nodes = (
"112 0 LINE",
"212 473 LINE",
"447 0 LINE",
"543 0 LINE",
"679 644 LINE",
"571 644 LINE",
"471 170 LINE",
"235 644 LINE",
"139 644 LINE",
"3 0 LINE"
);
},
{
closed = 1;
nodes = (
"541 703 OFFCURVE",
"574 716 OFFCURVE",
"591 734 CURVE",
"608 814 LINE",
"585 790 OFFCURVE",
"556 777 OFFCURVE",
"520 777 CURVE SMOOTH",
"467 777 OFFCURVE",
"433 816 OFFCURVE",
"375 816 CURVE SMOOTH",
"342 816 OFFCURVE",
"305 804 OFFCURVE",
"284 786 CURVE",
"267 706 LINE",
"296 732 OFFCURVE",
"327 742 OFFCURVE",
"362 742 CURVE SMOOTH",
"408 742 OFFCURVE",
"450 703 OFFCURVE",
"505 703 CURVE SMOOTH"
);
}
);
width = 667;
}
);
note = Ntilde;
unicode = 00D1;
},
{
glyphname = O;
lastChange = "2015-11-25 05:32:24 +0000";
layers = (
{
layerId = "51D8E656-CCF3-4A73-A171-84F1BD8DE29C";
name = "Regular Italic";
paths = (
{
closed = 1;
nodes = (
"498 -10 OFFCURVE",
"612 94 OFFCURVE",
"661 320 CURVE SMOOTH",
"710 554 OFFCURVE",
"622 654 OFFCURVE",
"427 654 CURVE SMOOTH",
"216 654 OFFCURVE",
"100 554 OFFCURVE",
"51 320 CURVE SMOOTH",
"2 94 OFFCURVE",
"91 -10 OFFCURVE",
"285 -10 CURVE SMOOTH"
);
},
{
closed = 1;
nodes = (
"162 82 OFFCURVE",
"125 151 OFFCURVE",
"161 320 CURVE SMOOTH",
"198 498 OFFCURVE",
"280 561 OFFCURVE",
"407 561 CURVE SMOOTH",
"554 561 OFFCURVE",
"589 498 OFFCURVE",
"552 320 CURVE SMOOTH",
"516 151 OFFCURVE",
"433 82 OFFCURVE",
"305 82 CURVE SMOOTH"
);
}
);
width = 697;
}
);
leftKerningGroup = O;
note = O;
rightKerningGroup = O;
unicode = 004F;
},
{
glyphname = Oacute;
lastChange = "2015-11-25 05:32:27 +0000";
layers = (
{
layerId = "51D8E656-CCF3-4A73-A171-84F1BD8DE29C";
name = "Regular Italic";
paths = (
{
closed = 1;
nodes = (
"498 -10 OFFCURVE",
"612 94 OFFCURVE",
"661 320 CURVE SMOOTH",
"710 554 OFFCURVE",
"622 654 OFFCURVE",
"427 654 CURVE SMOOTH",
"216 654 OFFCURVE",
"100 554 OFFCURVE",
"51 320 CURVE SMOOTH",
"2 94 OFFCURVE",
"91 -10 OFFCURVE",
"285 -10 CURVE SMOOTH"
);
},
{
closed = 1;
nodes = (
"162 82 OFFCURVE",
"125 151 OFFCURVE",
"161 320 CURVE SMOOTH",
"198 498 OFFCURVE",
"280 561 OFFCURVE",
"407 561 CURVE SMOOTH",
"554 561 OFFCURVE",
"589 498 OFFCURVE",
"552 320 CURVE SMOOTH",
"516 151 OFFCURVE",
"433 82 OFFCURVE",
"305 82 CURVE SMOOTH"
);
},
{
closed = 1;
nodes = (
"473 688 LINE",
"595 865 LINE",
"499 865 LINE",
"386 688 LINE"
);
}
);
width = 697;
}
);
leftKerningGroup = O;
note = Oacute;
rightKerningGroup = O;
unicode = 00D3;
},
{
glyphname = Obreve;
lastChange = "2015-11-25 05:32:26 +0000";
layers = (
{
layerId = "51D8E656-CCF3-4A73-A171-84F1BD8DE29C";
name = "Regular Italic";
paths = (
{
closed = 1;
nodes = (
"498 -10 OFFCURVE",
"612 94 OFFCURVE",
"661 320 CURVE SMOOTH",
"710 554 OFFCURVE",
"622 654 OFFCURVE",
"427 654 CURVE SMOOTH",
"216 654 OFFCURVE",
"100 554 OFFCURVE",
"51 320 CURVE SMOOTH",
"2 94 OFFCURVE",
"91 -10 OFFCURVE",
"285 -10 CURVE SMOOTH"
);
},
{
closed = 1;
nodes = (
"162 82 OFFCURVE",
"125 151 OFFCURVE",
"161 320 CURVE SMOOTH",
"198 498 OFFCURVE",
"280 561 OFFCURVE",
"407 561 CURVE SMOOTH",
"554 561 OFFCURVE",
"589 498 OFFCURVE",
"552 320 CURVE SMOOTH",
"516 151 OFFCURVE",
"433 82 OFFCURVE",
"305 82 CURVE SMOOTH"
);
},
{
closed = 1;
nodes = (
"521 688 OFFCURVE",
"588 743 OFFCURVE",
"606 829 CURVE",
"529 829 LINE",
"519 783 OFFCURVE",
"488 753 OFFCURVE",
"443 753 CURVE SMOOTH",
"392 753 OFFCURVE",
"382 783 OFFCURVE",
"392 829 CURVE",
"322 829 LINE",
"304 743 OFFCURVE",
"344 688 OFFCURVE",
"432 688 CURVE SMOOTH"
);
}
);
width = 697;
}
);
leftKerningGroup = O;
note = Obreve;
rightKerningGroup = O;
unicode = 014E;
},
{
glyphname = Ocaron;
lastChange = "2015-11-25 05:32:26 +0000";
layers = (
{
layerId = "51D8E656-CCF3-4A73-A171-84F1BD8DE29C";
name = "Regular Italic";
paths = (
{
closed = 1;
nodes = (
"498 -10 OFFCURVE",
"612 94 OFFCURVE",
"661 320 CURVE SMOOTH",
"710 554 OFFCURVE",
"622 654 OFFCURVE",
"427 654 CURVE SMOOTH",
"216 654 OFFCURVE",
"100 554 OFFCURVE",
"51 320 CURVE SMOOTH",
"2 94 OFFCURVE",
"91 -10 OFFCURVE",
"285 -10 CURVE SMOOTH"
);
},
{
closed = 1;
nodes = (
"162 82 OFFCURVE",
"125 151 OFFCURVE",
"161 320 CURVE SMOOTH",
"198 498 OFFCURVE",
"280 561 OFFCURVE",
"407 561 CURVE SMOOTH",
"554 561 OFFCURVE",
"589 498 OFFCURVE",
"552 320 CURVE SMOOTH",
"516 151 OFFCURVE",
"433 82 OFFCURVE",
"305 82 CURVE SMOOTH"
);
},
{
closed = 1;
nodes = (
"471 687 LINE",
"630 848 LINE",
"540 848 LINE",
"443 747 LINE",
"390 848 LINE",
"305 848 LINE",
"395 687 LINE"
);
}
);
width = 697;
}
);
leftKerningGroup = O;
note = Ocaron;
rightKerningGroup = O;
unicode = 01D1;
},
{
glyphname = Ocircumflex;
lastChange = "2015-11-25 05:32:27 +0000";
layers = (
{
layerId = "51D8E656-CCF3-4A73-A171-84F1BD8DE29C";
name = "Regular Italic";
paths = (
{
closed = 1;
nodes = (
"498 -10 OFFCURVE",
"612 94 OFFCURVE",
"661 320 CURVE SMOOTH",
"710 554 OFFCURVE",
"622 654 OFFCURVE",
"427 654 CURVE SMOOTH",
"216 654 OFFCURVE",
"100 554 OFFCURVE",
"51 320 CURVE SMOOTH",
"2 94 OFFCURVE",
"91 -10 OFFCURVE",
"285 -10 CURVE SMOOTH"
);
},
{
closed = 1;
nodes = (
"162 82 OFFCURVE",
"125 151 OFFCURVE",
"161 320 CURVE SMOOTH",
"198 498 OFFCURVE",
"280 561 OFFCURVE",
"407 561 CURVE SMOOTH",
"554 561 OFFCURVE",
"589 498 OFFCURVE",
"552 320 CURVE SMOOTH",
"516 151 OFFCURVE",
"433 82 OFFCURVE",
"305 82 CURVE SMOOTH"
);
},
{
closed = 1;
nodes = (
"362 687 LINE",
"457 788 LINE",
"512 687 LINE",
"596 687 LINE",
"505 848 LINE",
"429 848 LINE",
"271 687 LINE"
);
}
);
width = 697;
}
);
leftKerningGroup = O;
note = Ocircumflex;
rightKerningGroup = O;
unicode = 00D4;
},
{
glyphname = Ocircumflexacute;
lastChange = "2015-11-25 05:32:24 +0000";
layers = (
{
layerId = "51D8E656-CCF3-4A73-A171-84F1BD8DE29C";
name = "Regular Italic";
paths = (
{
closed = 1;
nodes = (
"498 -10 OFFCURVE",
"612 94 OFFCURVE",
"661 320 CURVE SMOOTH",
"710 554 OFFCURVE",
"622 654 OFFCURVE",
"427 654 CURVE SMOOTH",
"216 654 OFFCURVE",
"100 554 OFFCURVE",
"51 320 CURVE SMOOTH",
"2 94 OFFCURVE",
"91 -10 OFFCURVE",
"285 -10 CURVE SMOOTH"
);
},
{
closed = 1;
nodes = (
"162 82 OFFCURVE",
"125 151 OFFCURVE",
"161 320 CURVE SMOOTH",
"198 498 OFFCURVE",
"280 561 OFFCURVE",
"407 561 CURVE SMOOTH",
"554 561 OFFCURVE",
"589 498 OFFCURVE",
"552 320 CURVE SMOOTH",
"516 151 OFFCURVE",
"433 82 OFFCURVE",
"305 82 CURVE SMOOTH"
);
},
{
closed = 1;
nodes = (
"370 687 LINE",
"458 769 LINE",
"512 687 LINE",
"598 687 LINE",
"506 814 LINE",
"422 814 LINE",
"276 687 LINE"
);
},
{
closed = 1;
nodes = (
"629 800 LINE",
"727 933 LINE",
"644 933 LINE",
"552 800 LINE"
);
}
);
width = 697;
}
);
leftKerningGroup = O;
note = Ocircumflexacute;
rightKerningGroup = O;
unicode = 1ED0;
},
{
glyphname = Ocircumflexdotbelow;
lastChange = "2015-11-25 05:41:55 +0000";
layers = (
{
layerId = "51D8E656-CCF3-4A73-A171-84F1BD8DE29C";
name = "Regular Italic";
paths = (
{
closed = 1;
nodes = (
"498 -10 OFFCURVE",
"612 94 OFFCURVE",
"661 320 CURVE SMOOTH",
"710 554 OFFCURVE",
"622 654 OFFCURVE",
"427 654 CURVE SMOOTH",
"216 654 OFFCURVE",
"100 554 OFFCURVE",
"51 320 CURVE SMOOTH",
"2 94 OFFCURVE",
"91 -10 OFFCURVE",
"285 -10 CURVE SMOOTH"
);
},
{
closed = 1;
nodes = (
"162 82 OFFCURVE",
"125 151 OFFCURVE",
"161 320 CURVE SMOOTH",
"198 498 OFFCURVE",
"280 561 OFFCURVE",
"407 561 CURVE SMOOTH",
"554 561 OFFCURVE",
"589 498 OFFCURVE",
"552 320 CURVE SMOOTH",
"516 151 OFFCURVE",
"433 82 OFFCURVE",
"305 82 CURVE SMOOTH"
);
},
{
closed = 1;
nodes = (
"299 -173 LINE",
"317 -85 LINE",
"223 -85 LINE",
"205 -173 LINE"
);
},
{
closed = 1;
nodes = (
"363 692 LINE",
"458 793 LINE",
"513 692 LINE",
"597 692 LINE",
"506 853 LINE",
"430 853 LINE",
"272 692 LINE"
);
}
);
width = 697;
}
);
leftKerningGroup = O;
note = Ocircumflexdotbelow;
rightKerningGroup = O;
unicode = 1ED8;
},
{
glyphname = Ocircumflexgrave;
lastChange = "2015-11-25 05:32:24 +0000";
layers = (
{
layerId = "51D8E656-CCF3-4A73-A171-84F1BD8DE29C";
name = "Regular Italic";
paths = (
{
closed = 1;
nodes = (
"498 -10 OFFCURVE",
"612 94 OFFCURVE",
"661 320 CURVE SMOOTH",
"710 554 OFFCURVE",
"622 654 OFFCURVE",
"427 654 CURVE SMOOTH",
"216 654 OFFCURVE",
"100 554 OFFCURVE",
"51 320 CURVE SMOOTH",
"2 94 OFFCURVE",
"91 -10 OFFCURVE",
"285 -10 CURVE SMOOTH"
);
},
{
closed = 1;
nodes = (
"162 82 OFFCURVE",
"125 151 OFFCURVE",
"161 320 CURVE SMOOTH",
"198 498 OFFCURVE",
"280 561 OFFCURVE",
"407 561 CURVE SMOOTH",
"554 561 OFFCURVE",
"589 498 OFFCURVE",
"552 320 CURVE SMOOTH",
"516 151 OFFCURVE",
"433 82 OFFCURVE",
"305 82 CURVE SMOOTH"
);
},
{
closed = 1;
nodes = (
"360 800 LINE",
"325 933 LINE",
"241 933 LINE",
"283 800 LINE"
);
},
{
closed = 1;
nodes = (
"358 687 LINE",
"447 769 LINE",
"500 687 LINE",
"586 687 LINE",
"496 814 LINE",
"411 814 LINE",
"266 687 LINE"
);
}
);
width = 697;
}
);
leftKerningGroup = O;
note = Ocircumflexgrave;
rightKerningGroup = O;
unicode = 1ED2;
},
{
glyphname = Ocircumflexhookabove;
lastChange = "2015-11-25 05:32:26 +0000";
layers = (
{
layerId = "51D8E656-CCF3-4A73-A171-84F1BD8DE29C";
name = "Regular Italic";
paths = (
{
closed = 1;
nodes = (
"498 -10 OFFCURVE",
"612 94 OFFCURVE",
"661 320 CURVE SMOOTH",
"710 554 OFFCURVE",
"622 654 OFFCURVE",
"427 654 CURVE SMOOTH",
"216 654 OFFCURVE",
"100 554 OFFCURVE",
"51 320 CURVE SMOOTH",
"2 94 OFFCURVE",
"91 -10 OFFCURVE",
"285 -10 CURVE SMOOTH"
);
},
{
closed = 1;
nodes = (
"162 82 OFFCURVE",
"125 151 OFFCURVE",
"161 320 CURVE SMOOTH",
"198 498 OFFCURVE",
"280 561 OFFCURVE",
"407 561 CURVE SMOOTH",
"554 561 OFFCURVE",
"589 498 OFFCURVE",
"552 320 CURVE SMOOTH",
"516 151 OFFCURVE",
"433 82 OFFCURVE",
"305 82 CURVE SMOOTH"
);
},
{
closed = 1;
nodes = (
"364 687 LINE",
"453 769 LINE",
"506 687 LINE",
"592 687 LINE",
"501 814 LINE",
"416 814 LINE",
"271 687 LINE"
);
},
{
closed = 1;
nodes = (
"627 779 LINE",
"634 813 LINE",
"690 821 OFFCURVE",
"718 846 OFFCURVE",
"728 890 CURVE SMOOTH",
"738 937 OFFCURVE",
"706 968 OFFCURVE",
"641 968 CURVE SMOOTH",
"608 968 OFFCURVE",
"584 963 OFFCURVE",
"563 956 CURVE",
"551 903 LINE",
"569 910 OFFCURVE",
"588 915 OFFCURVE",
"609 915 CURVE SMOOTH",
"641 915 OFFCURVE",
"654 906 OFFCURVE",
"649 884 CURVE SMOOTH",
"644 860 OFFCURVE",
"629 848 OFFCURVE",
"565 845 CURVE",
"551 779 LINE"
);
}
);
width = 697;
}
);
leftKerningGroup = O;
note = Ocircumflexhookabove;
rightKerningGroup = O;
unicode = 1ED4;
},
{
glyphname = Ocircumflextilde;
lastChange = "2015-11-25 05:32:25 +0000";
layers = (
{
layerId = "51D8E656-CCF3-4A73-A171-84F1BD8DE29C";
name = "Regular Italic";
paths = (
{
closed = 1;
nodes = (
"498 -10 OFFCURVE",
"612 94 OFFCURVE",
"661 320 CURVE SMOOTH",
"710 554 OFFCURVE",
"622 654 OFFCURVE",
"427 654 CURVE SMOOTH",
"216 654 OFFCURVE",
"100 554 OFFCURVE",
"51 320 CURVE SMOOTH",
"2 94 OFFCURVE",
"91 -10 OFFCURVE",
"285 -10 CURVE SMOOTH"
);
},
{
closed = 1;
nodes = (
"162 82 OFFCURVE",
"125 151 OFFCURVE",
"161 320 CURVE SMOOTH",
"198 498 OFFCURVE",
"280 561 OFFCURVE",
"407 561 CURVE SMOOTH",
"554 561 OFFCURVE",
"589 498 OFFCURVE",
"552 320 CURVE SMOOTH",
"516 151 OFFCURVE",
"433 82 OFFCURVE",
"305 82 CURVE SMOOTH"
);
},
{
closed = 1;
nodes = (
"529 688 OFFCURVE",
"599 729 OFFCURVE",
"621 836 CURVE",
"553 836 LINE",
"541 777 OFFCURVE",
"500 747 OFFCURVE",
"445 747 CURVE SMOOTH",
"380 747 OFFCURVE",
"361 777 OFFCURVE",
"373 836 CURVE",
"309 836 LINE",
"287 729 OFFCURVE",
"347 688 OFFCURVE",
"434 688 CURVE SMOOTH"
);
},
{
closed = 1;
nodes = (
"582 857 OFFCURVE",
"613 869 OFFCURVE",
"630 886 CURVE",
"644 958 LINE",
"623 934 OFFCURVE",
"595 922 OFFCURVE",
"561 922 CURVE SMOOTH",
"510 922 OFFCURVE",
"478 960 OFFCURVE",
"422 960 CURVE SMOOTH",
"390 960 OFFCURVE",
"354 948 OFFCURVE",
"334 931 CURVE",
"319 860 LINE",
"346 884 OFFCURVE",
"376 894 OFFCURVE",
"409 894 CURVE SMOOTH",
"454 894 OFFCURVE",
"495 857 OFFCURVE",
"548 857 CURVE SMOOTH"
);
}
);
width = 697;
}
);
leftKerningGroup = O;
note = Ocircumflextilde;
rightKerningGroup = O;
unicode = 1ED6;
},
{
glyphname = Odieresis;
lastChange = "2015-11-25 05:32:28 +0000";
layers = (
{
layerId = "51D8E656-CCF3-4A73-A171-84F1BD8DE29C";
name = "Regular Italic";
paths = (
{
closed = 1;
nodes = (
"498 -10 OFFCURVE",
"612 94 OFFCURVE",
"661 320 CURVE SMOOTH",
"710 554 OFFCURVE",
"622 654 OFFCURVE",
"427 654 CURVE SMOOTH",
"216 654 OFFCURVE",
"100 554 OFFCURVE",
"51 320 CURVE SMOOTH",
"2 94 OFFCURVE",
"91 -10 OFFCURVE",
"285 -10 CURVE SMOOTH"
);
},
{
closed = 1;
nodes = (
"162 82 OFFCURVE",
"125 151 OFFCURVE",
"161 320 CURVE SMOOTH",
"198 498 OFFCURVE",
"280 561 OFFCURVE",
"407 561 CURVE SMOOTH",
"554 561 OFFCURVE",
"589 498 OFFCURVE",
"552 320 CURVE SMOOTH",
"516 151 OFFCURVE",
"433 82 OFFCURVE",
"305 82 CURVE SMOOTH"
);
},
{
closed = 1;
nodes = (
"391 712 LINE",
"410 798 LINE",
"319 798 LINE",
"300 712 LINE"
);
},
{
closed = 1;
nodes = (
"577 712 LINE",
"596 798 LINE",
"504 798 LINE",
"485 712 LINE"
);
}
);
width = 697;
}
);
leftKerningGroup = O;
note = Odieresis;
rightKerningGroup = O;
unicode = 00D6;
},
{
glyphname = Odotbelow;
lastChange = "2015-11-25 05:42:01 +0000";
layers = (
{
layerId = "51D8E656-CCF3-4A73-A171-84F1BD8DE29C";
name = "Regular Italic";
paths = (
{
closed = 1;
nodes = (
"498 -10 OFFCURVE",
"612 94 OFFCURVE",
"661 320 CURVE SMOOTH",
"710 554 OFFCURVE",
"622 654 OFFCURVE",
"427 654 CURVE SMOOTH",
"216 654 OFFCURVE",
"100 554 OFFCURVE",
"51 320 CURVE SMOOTH",
"2 94 OFFCURVE",
"91 -10 OFFCURVE",
"285 -10 CURVE SMOOTH"
);
},
{
closed = 1;
nodes = (
"162 82 OFFCURVE",
"125 151 OFFCURVE",
"161 320 CURVE SMOOTH",
"198 498 OFFCURVE",
"280 561 OFFCURVE",
"407 561 CURVE SMOOTH",
"554 561 OFFCURVE",
"589 498 OFFCURVE",
"552 320 CURVE SMOOTH",
"516 151 OFFCURVE",
"433 82 OFFCURVE",
"305 82 CURVE SMOOTH"
);
},
{
closed = 1;
nodes = (
"299 -173 LINE",
"317 -85 LINE",
"223 -85 LINE",
"205 -173 LINE"
);
}
);
width = 697;
}
);
leftKerningGroup = O;
note = Odotbelow;
rightKerningGroup = O;
unicode = 1ECC;
},
{
glyphname = Ograve;
lastChange = "2015-11-25 05:32:27 +0000";
layers = (
{
layerId = "51D8E656-CCF3-4A73-A171-84F1BD8DE29C";
name = "Regular Italic";
paths = (
{
closed = 1;
nodes = (
"498 -10 OFFCURVE",
"612 94 OFFCURVE",
"661 320 CURVE SMOOTH",
"710 554 OFFCURVE",
"622 654 OFFCURVE",
"427 654 CURVE SMOOTH",
"216 654 OFFCURVE",
"100 554 OFFCURVE",
"51 320 CURVE SMOOTH",
"2 94 OFFCURVE",
"91 -10 OFFCURVE",
"285 -10 CURVE SMOOTH"
);
},
{
closed = 1;
nodes = (
"162 82 OFFCURVE",
"125 151 OFFCURVE",
"161 320 CURVE SMOOTH",
"198 498 OFFCURVE",
"280 561 OFFCURVE",
"407 561 CURVE SMOOTH",
"554 561 OFFCURVE",
"589 498 OFFCURVE",
"552 320 CURVE SMOOTH",
"516 151 OFFCURVE",
"433 82 OFFCURVE",
"305 82 CURVE SMOOTH"
);
},
{
closed = 1;
nodes = (
"484 688 LINE",
"446 865 LINE",
"351 865 LINE",
"396 688 LINE"
);
}
);
width = 697;
}
);
leftKerningGroup = O;
note = Ograve;
rightKerningGroup = O;
unicode = 00D2;
},
{
glyphname = Ohookabove;
lastChange = "2015-11-25 05:32:28 +0000";
layers = (
{
layerId = "51D8E656-CCF3-4A73-A171-84F1BD8DE29C";
name = "Regular Italic";
paths = (
{
closed = 1;
nodes = (
"498 -10 OFFCURVE",
"612 94 OFFCURVE",
"661 320 CURVE SMOOTH",
"710 554 OFFCURVE",
"622 654 OFFCURVE",
"427 654 CURVE SMOOTH",
"216 654 OFFCURVE",
"100 554 OFFCURVE",
"51 320 CURVE SMOOTH",
"2 94 OFFCURVE",
"91 -10 OFFCURVE",
"285 -10 CURVE SMOOTH"
);
},
{
closed = 1;
nodes = (
"162 82 OFFCURVE",
"125 151 OFFCURVE",
"161 320 CURVE SMOOTH",
"198 498 OFFCURVE",
"280 561 OFFCURVE",
"407 561 CURVE SMOOTH",
"554 561 OFFCURVE",
"589 498 OFFCURVE",
"552 320 CURVE SMOOTH",
"516 151 OFFCURVE",
"433 82 OFFCURVE",
"305 82 CURVE SMOOTH"
);
},
{
closed = 1;
nodes = (
"478 687 LINE",
"488 734 LINE",
"556 744 OFFCURVE",
"585 773 OFFCURVE",
"596 828 CURVE SMOOTH",
"609 885 OFFCURVE",
"572 921 OFFCURVE",
"490 921 CURVE SMOOTH",
"456 921 OFFCURVE",
"418 916 OFFCURVE",
"394 908 CURVE",
"382 849 LINE",
"400 856 OFFCURVE",
"428 861 OFFCURVE",
"448 861 CURVE SMOOTH",
"496 861 OFFCURVE",
"520 849 OFFCURVE",
"514 819 CURVE SMOOTH",
"507 786 OFFCURVE",
"488 773 OFFCURVE",
"411 769 CURVE",
"393 687 LINE"
);
}
);
width = 697;
}
);
leftKerningGroup = O;
note = Ohookabove;
rightKerningGroup = O;
unicode = 1ECE;
},
{
glyphname = Ohorn;
lastChange = "2015-11-25 05:32:25 +0000";
layers = (
{
layerId = "51D8E656-CCF3-4A73-A171-84F1BD8DE29C";
name = "Regular Italic";
paths = (
{
closed = 1;
nodes = (
"490 -10 OFFCURVE",
"612 94 OFFCURVE",
"661 320 CURVE SMOOTH",
"676 395 OFFCURVE",
"679 455 OFFCURVE",
"668 503 CURVE",
"758 516 OFFCURVE",
"813 565 OFFCURVE",
"839 688 CURVE",
"755 688 LINE",
"737 604 OFFCURVE",
"708 578 OFFCURVE",
"635 577 CURVE",
"596 629 OFFCURVE",
"527 654 OFFCURVE",
"427 654 CURVE SMOOTH",
"223 654 OFFCURVE",
"100 554 OFFCURVE",
"51 320 CURVE SMOOTH",
"2 94 OFFCURVE",
"81 -10 OFFCURVE",
"285 -10 CURVE SMOOTH"
);
},
{
closed = 1;
nodes = (
"172 82 OFFCURVE",
"125 151 OFFCURVE",
"161 320 CURVE SMOOTH",
"198 498 OFFCURVE",
"274 561 OFFCURVE",
"407 561 CURVE SMOOTH",
"541 561 OFFCURVE",
"589 498 OFFCURVE",
"552 320 CURVE SMOOTH",
"516 151 OFFCURVE",
"439 82 OFFCURVE",
"305 82 CURVE SMOOTH"
);
}
);
width = 770;
}
);
leftKerningGroup = O;
note = Ohorn;
rightKerningGroup = O;
unicode = 01A0;
},
{
glyphname = Ohornacute;
lastChange = "2015-11-25 05:32:27 +0000";
layers = (
{
layerId = "51D8E656-CCF3-4A73-A171-84F1BD8DE29C";
name = "Regular Italic";
paths = (
{
closed = 1;
nodes = (
"490 -10 OFFCURVE",
"612 94 OFFCURVE",
"661 320 CURVE SMOOTH",
"676 395 OFFCURVE",
"679 455 OFFCURVE",
"668 503 CURVE",
"758 516 OFFCURVE",
"813 565 OFFCURVE",
"839 688 CURVE",
"755 688 LINE",
"737 604 OFFCURVE",
"708 578 OFFCURVE",
"635 577 CURVE",
"596 629 OFFCURVE",
"527 654 OFFCURVE",
"427 654 CURVE SMOOTH",
"223 654 OFFCURVE",
"100 554 OFFCURVE",
"51 320 CURVE SMOOTH",
"2 94 OFFCURVE",
"81 -10 OFFCURVE",
"285 -10 CURVE SMOOTH"
);
},
{
closed = 1;
nodes = (
"172 82 OFFCURVE",
"125 151 OFFCURVE",
"161 320 CURVE SMOOTH",
"198 498 OFFCURVE",
"274 561 OFFCURVE",
"407 561 CURVE SMOOTH",
"541 561 OFFCURVE",
"589 498 OFFCURVE",
"552 320 CURVE SMOOTH",
"516 151 OFFCURVE",
"439 82 OFFCURVE",
"305 82 CURVE SMOOTH"
);
},
{
closed = 1;
nodes = (
"488 688 LINE",
"610 865 LINE",
"514 865 LINE",
"401 688 LINE"
);
}
);
width = 770;
}
);
leftKerningGroup = O;
note = Ohornacute;
rightKerningGroup = O;
unicode = 1EDA;
},
{
glyphname = Ohorndotbelow;
lastChange = "2015-11-25 05:42:07 +0000";
layers = (
{
layerId = "51D8E656-CCF3-4A73-A171-84F1BD8DE29C";
name = "Regular Italic";
paths = (
{
closed = 1;
nodes = (
"490 -10 OFFCURVE",
"612 94 OFFCURVE",
"661 320 CURVE SMOOTH",
"676 395 OFFCURVE",
"679 455 OFFCURVE",
"668 503 CURVE",
"758 516 OFFCURVE",
"813 565 OFFCURVE",
"839 688 CURVE",
"755 688 LINE",
"737 604 OFFCURVE",
"708 578 OFFCURVE",
"635 577 CURVE",
"596 629 OFFCURVE",
"527 654 OFFCURVE",
"427 654 CURVE SMOOTH",
"223 654 OFFCURVE",
"100 554 OFFCURVE",
"51 320 CURVE SMOOTH",
"2 94 OFFCURVE",
"81 -10 OFFCURVE",
"285 -10 CURVE SMOOTH"
);
},
{
closed = 1;
nodes = (
"172 82 OFFCURVE",
"125 151 OFFCURVE",
"161 320 CURVE SMOOTH",
"198 498 OFFCURVE",
"274 561 OFFCURVE",
"407 561 CURVE SMOOTH",
"541 561 OFFCURVE",
"589 498 OFFCURVE",
"552 320 CURVE SMOOTH",
"516 151 OFFCURVE",
"439 82 OFFCURVE",
"305 82 CURVE SMOOTH"
);
},
{
closed = 1;
nodes = (
"303 -173 LINE",
"321 -85 LINE",
"227 -85 LINE",
"209 -173 LINE"
);
}
);
width = 770;
}
);
leftKerningGroup = O;
note = Ohorndotbelow;
rightKerningGroup = O;
unicode = 1EE2;
},
{
glyphname = Ohorngrave;
lastChange = "2015-11-25 05:32:26 +0000";
layers = (
{
layerId = "51D8E656-CCF3-4A73-A171-84F1BD8DE29C";
name = "Regular Italic";
paths = (
{
closed = 1;
nodes = (
"490 -10 OFFCURVE",
"612 94 OFFCURVE",
"661 320 CURVE SMOOTH",
"676 395 OFFCURVE",
"679 455 OFFCURVE",
"668 503 CURVE",
"758 516 OFFCURVE",
"813 565 OFFCURVE",
"839 688 CURVE",
"755 688 LINE",
"737 604 OFFCURVE",
"708 578 OFFCURVE",
"635 577 CURVE",
"596 629 OFFCURVE",
"527 654 OFFCURVE",
"427 654 CURVE SMOOTH",
"223 654 OFFCURVE",
"100 554 OFFCURVE",
"51 320 CURVE SMOOTH",
"2 94 OFFCURVE",
"81 -10 OFFCURVE",
"285 -10 CURVE SMOOTH"
);
},
{
closed = 1;
nodes = (
"172 82 OFFCURVE",
"125 151 OFFCURVE",
"161 320 CURVE SMOOTH",
"198 498 OFFCURVE",
"274 561 OFFCURVE",
"407 561 CURVE SMOOTH",
"541 561 OFFCURVE",
"589 498 OFFCURVE",
"552 320 CURVE SMOOTH",
"516 151 OFFCURVE",
"439 82 OFFCURVE",
"305 82 CURVE SMOOTH"
);
},
{
closed = 1;
nodes = (
"499 688 LINE",
"461 865 LINE",
"366 865 LINE",
"411 688 LINE"
);
}
);
width = 770;
}
);
leftKerningGroup = O;
note = Ohorngrave;
rightKerningGroup = O;
unicode = 1EDC;
},
{
glyphname = Ohornhookabove;
lastChange = "2015-11-25 05:32:27 +0000";
layers = (
{
layerId = "51D8E656-CCF3-4A73-A171-84F1BD8DE29C";
name = "Regular Italic";
paths = (
{
closed = 1;
nodes = (
"490 -10 OFFCURVE",
"612 94 OFFCURVE",
"661 320 CURVE SMOOTH",
"676 395 OFFCURVE",
"679 455 OFFCURVE",
"668 503 CURVE",
"758 516 OFFCURVE",
"813 565 OFFCURVE",
"839 688 CURVE",
"755 688 LINE",
"737 604 OFFCURVE",
"708 578 OFFCURVE",
"635 577 CURVE",
"596 629 OFFCURVE",
"527 654 OFFCURVE",
"427 654 CURVE SMOOTH",
"223 654 OFFCURVE",
"100 554 OFFCURVE",
"51 320 CURVE SMOOTH",
"2 94 OFFCURVE",
"81 -10 OFFCURVE",
"285 -10 CURVE SMOOTH"
);
},
{
closed = 1;
nodes = (
"172 82 OFFCURVE",
"125 151 OFFCURVE",
"161 320 CURVE SMOOTH",
"198 498 OFFCURVE",
"274 561 OFFCURVE",
"407 561 CURVE SMOOTH",
"541 561 OFFCURVE",
"589 498 OFFCURVE",
"552 320 CURVE SMOOTH",
"516 151 OFFCURVE",
"439 82 OFFCURVE",
"305 82 CURVE SMOOTH"
);
},
{
closed = 1;
nodes = (
"483 687 LINE",
"493 734 LINE",
"561 744 OFFCURVE",
"590 773 OFFCURVE",
"601 828 CURVE SMOOTH",
"614 885 OFFCURVE",
"577 921 OFFCURVE",
"495 921 CURVE SMOOTH",
"461 921 OFFCURVE",
"423 916 OFFCURVE",
"399 908 CURVE",
"387 849 LINE",
"405 856 OFFCURVE",
"433 861 OFFCURVE",
"453 861 CURVE SMOOTH",
"501 861 OFFCURVE",
"525 849 OFFCURVE",
"519 819 CURVE SMOOTH",
"512 786 OFFCURVE",
"493 773 OFFCURVE",
"416 769 CURVE",
"398 687 LINE"
);
}
);
width = 770;
}
);
leftKerningGroup = O;
note = Ohornhookabove;
rightKerningGroup = O;
unicode = 1EDE;
},
{
glyphname = Ohorntilde;
lastChange = "2015-11-25 05:32:27 +0000";
layers = (
{
layerId = "51D8E656-CCF3-4A73-A171-84F1BD8DE29C";
name = "Regular Italic";
paths = (
{
closed = 1;
nodes = (
"490 -10 OFFCURVE",
"612 94 OFFCURVE",
"661 320 CURVE SMOOTH",
"676 395 OFFCURVE",
"679 455 OFFCURVE",
"668 503 CURVE",
"758 516 OFFCURVE",
"813 565 OFFCURVE",
"839 688 CURVE",
"755 688 LINE",
"737 604 OFFCURVE",
"708 578 OFFCURVE",
"635 577 CURVE",
"596 629 OFFCURVE",
"527 654 OFFCURVE",
"427 654 CURVE SMOOTH",
"223 654 OFFCURVE",
"100 554 OFFCURVE",
"51 320 CURVE SMOOTH",
"2 94 OFFCURVE",
"81 -10 OFFCURVE",
"285 -10 CURVE SMOOTH"
);
},
{
closed = 1;
nodes = (
"172 82 OFFCURVE",
"125 151 OFFCURVE",
"161 320 CURVE SMOOTH",
"198 498 OFFCURVE",
"274 561 OFFCURVE",
"407 561 CURVE SMOOTH",
"541 561 OFFCURVE",
"589 498 OFFCURVE",
"552 320 CURVE SMOOTH",
"516 151 OFFCURVE",
"439 82 OFFCURVE",
"305 82 CURVE SMOOTH"
);
},
{
closed = 1;
nodes = (
"567 701 OFFCURVE",
"600 714 OFFCURVE",
"617 732 CURVE",
"634 812 LINE",
"611 788 OFFCURVE",
"582 775 OFFCURVE",
"546 775 CURVE SMOOTH",
"493 775 OFFCURVE",
"459 814 OFFCURVE",
"401 814 CURVE SMOOTH",
"368 814 OFFCURVE",
"331 802 OFFCURVE",
"310 784 CURVE",
"293 704 LINE",
"322 730 OFFCURVE",
"353 740 OFFCURVE",
"388 740 CURVE SMOOTH",
"434 740 OFFCURVE",
"476 701 OFFCURVE",
"531 701 CURVE SMOOTH"
);
}
);
width = 770;
}
);
leftKerningGroup = O;
note = Ohorntilde;
rightKerningGroup = O;
unicode = 1EE0;
},
{
glyphname = Ohungarumlaut;
lastChange = "2015-11-25 05:32:27 +0000";
layers = (
{
layerId = "51D8E656-CCF3-4A73-A171-84F1BD8DE29C";
name = "Regular Italic";
paths = (
{
closed = 1;
nodes = (
"498 -10 OFFCURVE",
"612 94 OFFCURVE",
"661 320 CURVE SMOOTH",
"710 554 OFFCURVE",
"622 654 OFFCURVE",
"427 654 CURVE SMOOTH",
"216 654 OFFCURVE",
"100 554 OFFCURVE",
"51 320 CURVE SMOOTH",
"2 94 OFFCURVE",
"91 -10 OFFCURVE",
"285 -10 CURVE SMOOTH"
);
},
{
closed = 1;
nodes = (
"162 82 OFFCURVE",
"125 151 OFFCURVE",
"161 320 CURVE SMOOTH",
"198 498 OFFCURVE",
"280 561 OFFCURVE",
"407 561 CURVE SMOOTH",
"554 561 OFFCURVE",
"589 498 OFFCURVE",
"552 320 CURVE SMOOTH",
"516 151 OFFCURVE",
"433 82 OFFCURVE",
"305 82 CURVE SMOOTH"
);
},
{
closed = 1;
nodes = (
"344 687 LINE",
"464 851 LINE",
"366 851 LINE",
"256 687 LINE"
);
},
{
closed = 1;
nodes = (
"560 687 LINE",
"681 851 LINE",
"582 851 LINE",
"472 687 LINE"
);
}
);
width = 697;
}
);
leftKerningGroup = O;
note = Ohungarumlaut;
rightKerningGroup = O;
unicode = 0150;
},
{
glyphname = Omacron;
lastChange = "2015-11-25 05:32:25 +0000";
layers = (
{
layerId = "51D8E656-CCF3-4A73-A171-84F1BD8DE29C";
name = "Regular Italic";
paths = (
{
closed = 1;
nodes = (
"498 -10 OFFCURVE",
"612 94 OFFCURVE",
"661 320 CURVE SMOOTH",
"710 554 OFFCURVE",
"622 654 OFFCURVE",
"427 654 CURVE SMOOTH",
"216 654 OFFCURVE",
"100 554 OFFCURVE",
"51 320 CURVE SMOOTH",
"2 94 OFFCURVE",
"91 -10 OFFCURVE",
"285 -10 CURVE SMOOTH"
);
},
{
closed = 1;
nodes = (
"162 82 OFFCURVE",
"125 151 OFFCURVE",
"161 320 CURVE SMOOTH",
"198 498 OFFCURVE",
"280 561 OFFCURVE",
"407 561 CURVE SMOOTH",
"554 561 OFFCURVE",
"589 498 OFFCURVE",
"552 320 CURVE SMOOTH",
"516 151 OFFCURVE",
"433 82 OFFCURVE",
"305 82 CURVE SMOOTH"
);
},
{
closed = 1;
nodes = (
"587 721 LINE",
"602 792 LINE",
"305 792 LINE",
"290 721 LINE"
);
}
);
width = 697;
}
);
leftKerningGroup = O;
note = Omacron;
rightKerningGroup = O;
unicode = 014C;
},
{
glyphname = Oslash;
lastChange = "2015-11-25 05:32:25 +0000";
layers = (
{
layerId = "51D8E656-CCF3-4A73-A171-84F1BD8DE29C";
name = "Regular Italic";
paths = (
{
closed = 1;
nodes = (
"167 -53 LINE",
"197 -1 LINE",
"223 -7 OFFCURVE",
"253 -10 OFFCURVE",
"285 -10 CURVE SMOOTH",
"498 -10 OFFCURVE",
"613 94 OFFCURVE",
"661 320 CURVE SMOOTH",
"696 487 OFFCURVE",
"661 586 OFFCURVE",
"567 628 CURVE",
"605 693 LINE",
"531 693 LINE",
"504 647 LINE",
"481 651 OFFCURVE",
"455 654 OFFCURVE",
"427 654 CURVE SMOOTH",
"216 654 OFFCURVE",
"101 554 OFFCURVE",
"51 320 CURVE SMOOTH",
"18 164 OFFCURVE",
"49 66 OFFCURVE",
"136 20 CURVE",
"93 -53 LINE"
);
},
{
closed = 1;
nodes = (
"144 145 OFFCURVE",
"138 213 OFFCURVE",
"161 320 CURVE SMOOTH",
"198 498 OFFCURVE",
"280 561 OFFCURVE",
"407 561 CURVE SMOOTH",
"423 561 OFFCURVE",
"438 560 OFFCURVE",
"452 558 CURVE",
"189 111 LINE"
);
},
{
closed = 1;
nodes = (
"284 82 OFFCURVE",
"266 83 OFFCURVE",
"249 86 CURVE",
"515 540 LINE",
"569 509 OFFCURVE",
"577 441 OFFCURVE",
"552 320 CURVE SMOOTH",
"516 151 OFFCURVE",
"433 82 OFFCURVE",
"305 82 CURVE SMOOTH"
);
}
);
width = 697;
}
);
leftKerningGroup = O;
note = Oslash;
rightKerningGroup = O;
unicode = 00D8;
},
{
glyphname = Oslashacute;
lastChange = "2015-11-25 05:32:24 +0000";
layers = (
{
layerId = "51D8E656-CCF3-4A73-A171-84F1BD8DE29C";
name = "Regular Italic";
paths = (
{
closed = 1;
nodes = (
"167 -53 LINE",
"197 -1 LINE",
"223 -7 OFFCURVE",
"253 -10 OFFCURVE",
"285 -10 CURVE SMOOTH",
"498 -10 OFFCURVE",
"613 94 OFFCURVE",
"661 320 CURVE SMOOTH",
"696 487 OFFCURVE",
"661 586 OFFCURVE",
"567 628 CURVE",
"605 693 LINE",
"531 693 LINE",
"504 647 LINE",
"481 651 OFFCURVE",
"455 654 OFFCURVE",
"427 654 CURVE SMOOTH",
"216 654 OFFCURVE",
"101 554 OFFCURVE",
"51 320 CURVE SMOOTH",
"18 164 OFFCURVE",
"49 66 OFFCURVE",
"136 20 CURVE",
"93 -53 LINE"
);
},
{
closed = 1;
nodes = (
"144 145 OFFCURVE",
"138 213 OFFCURVE",
"161 320 CURVE SMOOTH",
"198 498 OFFCURVE",
"280 561 OFFCURVE",
"407 561 CURVE SMOOTH",
"423 561 OFFCURVE",
"438 560 OFFCURVE",
"452 558 CURVE",
"189 111 LINE"
);
},
{
closed = 1;
nodes = (
"284 82 OFFCURVE",
"266 83 OFFCURVE",
"249 86 CURVE",
"515 540 LINE",
"569 509 OFFCURVE",
"577 441 OFFCURVE",
"552 320 CURVE SMOOTH",
"516 151 OFFCURVE",
"433 82 OFFCURVE",
"305 82 CURVE SMOOTH"
);
},
{
closed = 1;
nodes = (
"458 688 LINE",
"580 865 LINE",
"484 865 LINE",
"371 688 LINE"
);
}
);
width = 697;
}
);
leftKerningGroup = O;
note = Oslashacute;
rightKerningGroup = O;
unicode = 01FE;
},
{
glyphname = Otilde;
lastChange = "2015-11-25 05:32:28 +0000";
layers = (
{
layerId = "51D8E656-CCF3-4A73-A171-84F1BD8DE29C";
name = "Regular Italic";
paths = (
{
closed = 1;
nodes = (
"498 -10 OFFCURVE",
"612 94 OFFCURVE",
"661 320 CURVE SMOOTH",
"710 554 OFFCURVE",
"622 654 OFFCURVE",
"427 654 CURVE SMOOTH",
"216 654 OFFCURVE",
"100 554 OFFCURVE",
"51 320 CURVE SMOOTH",
"2 94 OFFCURVE",
"91 -10 OFFCURVE",
"285 -10 CURVE SMOOTH"
);
},
{
closed = 1;
nodes = (
"162 82 OFFCURVE",
"125 151 OFFCURVE",
"161 320 CURVE SMOOTH",
"198 498 OFFCURVE",
"280 561 OFFCURVE",
"407 561 CURVE SMOOTH",
"554 561 OFFCURVE",
"589 498 OFFCURVE",
"552 320 CURVE SMOOTH",
"516 151 OFFCURVE",
"433 82 OFFCURVE",
"305 82 CURVE SMOOTH"
);
},
{
closed = 1;
nodes = (
"551 695 OFFCURVE",
"584 708 OFFCURVE",
"601 726 CURVE",
"618 806 LINE",
"595 782 OFFCURVE",
"566 769 OFFCURVE",
"530 769 CURVE SMOOTH",
"477 769 OFFCURVE",
"443 808 OFFCURVE",
"385 808 CURVE SMOOTH",
"352 808 OFFCURVE",
"315 796 OFFCURVE",
"294 778 CURVE",
"277 698 LINE",
"306 724 OFFCURVE",
"337 734 OFFCURVE",
"372 734 CURVE SMOOTH",
"418 734 OFFCURVE",
"460 695 OFFCURVE",
"515 695 CURVE SMOOTH"
);
}
);
width = 697;
}
);
leftKerningGroup = O;
note = Otilde;
rightKerningGroup = O;
unicode = 00D5;
},
{
glyphname = OE;
lastChange = "2015-11-25 05:32:28 +0000";
layers = (
{
layerId = "51D8E656-CCF3-4A73-A171-84F1BD8DE29C";
name = "Regular Italic";
paths = (
{
closed = 1;
nodes = (
"368 -10 OFFCURVE",
"437 6 OFFCURVE",
"492 40 CURVE",
"484 0 LINE",
"933 0 LINE",
"950 84 LINE",
"610 84 LINE",
"652 280 LINE",
"955 280 LINE",
"973 364 LINE",
"670 364 LINE",
"711 559 LINE",
"1051 559 LINE",
"1069 644 LINE",
"620 644 LINE",
"611 600 LINE",
"569 637 OFFCURVE",
"506 654 OFFCURVE",
"426 654 CURVE SMOOTH",
"215 654 OFFCURVE",
"99 554 OFFCURVE",
"50 320 CURVE SMOOTH",
"1 94 OFFCURVE",
"90 -10 OFFCURVE",
"284 -10 CURVE SMOOTH"
);
},
{
closed = 1;
nodes = (
"161 82 OFFCURVE",
"124 151 OFFCURVE",
"160 320 CURVE SMOOTH",
"197 498 OFFCURVE",
"279 561 OFFCURVE",
"406 561 CURVE SMOOTH",
"553 561 OFFCURVE",
"588 498 OFFCURVE",
"551 320 CURVE SMOOTH",
"515 151 OFFCURVE",
"432 82 OFFCURVE",
"304 82 CURVE SMOOTH"
);
}
);
width = 1037;
}
);
leftKerningGroup = O;
note = OE;
rightKerningGroup = E;
unicode = 0152;
},
{
glyphname = P;
lastChange = "2015-11-25 05:32:27 +0000";
layers = (
{
layerId = "51D8E656-CCF3-4A73-A171-84F1BD8DE29C";
name = "Regular Italic";
paths = (
{
closed = 1;
nodes = (
"112 0 LINE",
"158 217 LINE",
"332 217 LINE SMOOTH",
"481 217 OFFCURVE",
"569 301 OFFCURVE",
"597 429 CURVE SMOOTH",
"623 553 OFFCURVE",
"570 644 OFFCURVE",
"426 644 CURVE SMOOTH",
"139 644 LINE",
"3 0 LINE"
);
},
{
closed = 1;
nodes = (
"230 559 LINE",
"397 559 LINE SMOOTH",
"489 559 OFFCURVE",
"506 522 OFFCURVE",
"488 429 CURVE SMOOTH",
"473 352 OFFCURVE",
"426 303 OFFCURVE",
"330 303 CURVE SMOOTH",
"176 303 LINE"
);
}
);
width = 590;
}
);
note = P;
unicode = 0050;
},
{
glyphname = Thorn;
lastChange = "2015-11-25 05:42:28 +0000";
layers = (
{
layerId = "51D8E656-CCF3-4A73-A171-84F1BD8DE29C";
name = "Regular Italic";
paths = (
{
closed = 1;
nodes = (
"112 0 LINE",
"134 107 LINE",
"308 107 LINE SMOOTH",
"457 107 OFFCURVE",
"546 192 OFFCURVE",
"574 320 CURVE SMOOTH",
"600 444 OFFCURVE",
"544 534 OFFCURVE",
"403 534 CURVE SMOOTH",
"225 534 LINE",
"248 644 LINE",
"139 644 LINE",
"3 0 LINE"
);
},
{
closed = 1;
nodes = (
"207 448 LINE",
"366 448 LINE SMOOTH",
"461 448 OFFCURVE",
"483 408 OFFCURVE",
"465 320 CURVE SMOOTH",
"449 243 OFFCURVE",
"393 193 OFFCURVE",
"307 193 CURVE SMOOTH",
"153 193 LINE"
);
}
);
width = 590;
}
);
note = Thorn;
unicode = 00DE;
},
{
glyphname = Q;
lastChange = "2015-11-25 05:32:26 +0000";
layers = (
{
layerId = "51D8E656-CCF3-4A73-A171-84F1BD8DE29C";
name = "Regular Italic";
paths = (
{
closed = 1;
nodes = (
"378 -172 OFFCURVE",
"417 -167 OFFCURVE",
"440 -160 CURVE",
"458 -79 LINE",
"435 -85 OFFCURVE",
"407 -89 OFFCURVE",
"385 -89 CURVE SMOOTH",
"332 -89 OFFCURVE",
"314 -79 OFFCURVE",
"328 -8 CURVE",
"513 5 OFFCURVE",
"615 109 OFFCURVE",
"661 320 CURVE SMOOTH",
"710 554 OFFCURVE",
"622 654 OFFCURVE",
"427 654 CURVE SMOOTH",
"216 654 OFFCURVE",
"100 554 OFFCURVE",
"51 320 CURVE SMOOTH",
"7 116 OFFCURVE",
"75 11 OFFCURVE",
"231 -7 CURVE",
"211 -112 OFFCURVE",
"248 -172 OFFCURVE",
"344 -172 CURVE SMOOTH"
);
},
{
closed = 1;
nodes = (
"162 82 OFFCURVE",
"125 151 OFFCURVE",
"161 320 CURVE SMOOTH",
"198 498 OFFCURVE",
"280 561 OFFCURVE",
"407 561 CURVE SMOOTH",
"554 561 OFFCURVE",
"589 498 OFFCURVE",
"552 320 CURVE SMOOTH",
"516 151 OFFCURVE",
"433 82 OFFCURVE",
"305 82 CURVE SMOOTH"
);
}
);
width = 697;
}
);
leftKerningGroup = O;
note = Q;
rightKerningGroup = O;
unicode = 0051;
},
{
glyphname = R;
lastChange = "2015-11-25 05:32:25 +0000";
layers = (
{
layerId = "51D8E656-CCF3-4A73-A171-84F1BD8DE29C";
name = "Regular Italic";
paths = (
{
closed = 1;
nodes = (
"112 0 LINE",
"160 228 LINE",
"281 228 LINE SMOOTH",
"330 228 OFFCURVE",
"342 214 OFFCURVE",
"350 180 CURVE SMOOTH",
"391 0 LINE",
"503 0 LINE",
"461 187 LINE SMOOTH",
"454 220 OFFCURVE",
"448 238 OFFCURVE",
"428 255 CURVE",
"523 279 OFFCURVE",
"579 347 OFFCURVE",
"599 438 CURVE SMOOTH",
"626 565 OFFCURVE",
"568 644 OFFCURVE",
"425 644 CURVE SMOOTH",
"139 644 LINE",
"3 0 LINE"
);
},
{
closed = 1;
nodes = (
"230 559 LINE",
"398 559 LINE SMOOTH",
"485 559 OFFCURVE",
"509 522 OFFCURVE",
"490 438 CURVE SMOOTH",
"471 352 OFFCURVE",
"423 316 OFFCURVE",
"337 316 CURVE SMOOTH",
"179 316 LINE"
);
}
);
width = 610;
}
);
note = R;
rightKerningGroup = R;
unicode = 0052;
},
{
glyphname = Racute;
lastChange = "2015-11-25 05:32:25 +0000";
layers = (
{
layerId = "51D8E656-CCF3-4A73-A171-84F1BD8DE29C";
name = "Regular Italic";
paths = (
{
closed = 1;
nodes = (
"112 0 LINE",
"160 228 LINE",
"281 228 LINE SMOOTH",
"330 228 OFFCURVE",
"342 214 OFFCURVE",
"350 180 CURVE SMOOTH",
"391 0 LINE",
"503 0 LINE",
"461 187 LINE SMOOTH",
"454 220 OFFCURVE",
"448 238 OFFCURVE",
"428 255 CURVE",
"523 279 OFFCURVE",
"579 347 OFFCURVE",
"599 438 CURVE SMOOTH",
"626 565 OFFCURVE",
"568 644 OFFCURVE",
"425 644 CURVE SMOOTH",
"139 644 LINE",
"3 0 LINE"
);
},
{
closed = 1;
nodes = (
"230 559 LINE",
"398 559 LINE SMOOTH",
"485 559 OFFCURVE",
"509 522 OFFCURVE",
"490 438 CURVE SMOOTH",
"471 352 OFFCURVE",
"423 316 OFFCURVE",
"337 316 CURVE SMOOTH",
"179 316 LINE"
);
},
{
closed = 1;
nodes = (
"412 688 LINE",
"534 865 LINE",
"438 865 LINE",
"325 688 LINE"
);
}
);
width = 610;
}
);
note = Racute;
rightKerningGroup = R;
unicode = 0154;
},
{
glyphname = Rcaron;
lastChange = "2015-11-25 05:32:26 +0000";
layers = (
{
layerId = "51D8E656-CCF3-4A73-A171-84F1BD8DE29C";
name = "Regular Italic";
paths = (
{
closed = 1;
nodes = (
"112 0 LINE",
"160 228 LINE",
"281 228 LINE SMOOTH",
"330 228 OFFCURVE",
"342 214 OFFCURVE",
"350 180 CURVE SMOOTH",
"391 0 LINE",
"503 0 LINE",
"461 187 LINE SMOOTH",
"454 220 OFFCURVE",
"448 238 OFFCURVE",
"428 255 CURVE",
"523 279 OFFCURVE",
"579 347 OFFCURVE",
"599 438 CURVE SMOOTH",
"626 565 OFFCURVE",
"568 644 OFFCURVE",
"425 644 CURVE SMOOTH",
"139 644 LINE",
"3 0 LINE"
);
},
{
closed = 1;
nodes = (
"230 559 LINE",
"398 559 LINE SMOOTH",
"485 559 OFFCURVE",
"509 522 OFFCURVE",
"490 438 CURVE SMOOTH",
"471 352 OFFCURVE",
"423 316 OFFCURVE",
"337 316 CURVE SMOOTH",
"179 316 LINE"
);
},
{
closed = 1;
nodes = (
"417 687 LINE",
"576 848 LINE",
"486 848 LINE",
"389 747 LINE",
"336 848 LINE",
"251 848 LINE",
"341 687 LINE"
);
}
);
width = 610;
}
);
note = Rcaron;
rightKerningGroup = R;
unicode = 0158;
},
{
glyphname = Rcommaaccent;
lastChange = "2015-11-25 05:42:37 +0000";
layers = (
{
layerId = "51D8E656-CCF3-4A73-A171-84F1BD8DE29C";
name = "Regular Italic";
paths = (
{
closed = 1;
nodes = (
"112 0 LINE",
"160 228 LINE",
"281 228 LINE SMOOTH",
"330 228 OFFCURVE",
"342 214 OFFCURVE",
"350 180 CURVE SMOOTH",
"391 0 LINE",
"503 0 LINE",
"461 187 LINE SMOOTH",
"454 220 OFFCURVE",
"448 238 OFFCURVE",
"428 255 CURVE",
"523 279 OFFCURVE",
"579 347 OFFCURVE",
"599 438 CURVE SMOOTH",
"626 565 OFFCURVE",
"568 644 OFFCURVE",
"425 644 CURVE SMOOTH",
"139 644 LINE",
"3 0 LINE"
);
},
{
closed = 1;
nodes = (
"230 559 LINE",
"398 559 LINE SMOOTH",
"485 559 OFFCURVE",
"509 522 OFFCURVE",
"490 438 CURVE SMOOTH",
"471 352 OFFCURVE",
"423 316 OFFCURVE",
"337 316 CURVE SMOOTH",
"179 316 LINE"
);
},
{
closed = 1;
nodes = (
"182 -226 LINE",
"269 -37 LINE",
"179 -37 LINE",
"110 -226 LINE"
);
}
);
width = 610;
}
);
note = Rcommaaccent;
rightKerningGroup = R;
unicode = 0156;
},
{
glyphname = Rdotbelow;
lastChange = "2015-11-25 05:42:41 +0000";
layers = (
{
layerId = "51D8E656-CCF3-4A73-A171-84F1BD8DE29C";
name = "Regular Italic";
paths = (
{
closed = 1;
nodes = (
"112 0 LINE",
"160 228 LINE",
"281 228 LINE SMOOTH",
"330 228 OFFCURVE",
"342 214 OFFCURVE",
"350 180 CURVE SMOOTH",
"391 0 LINE",
"503 0 LINE",
"461 187 LINE SMOOTH",
"454 220 OFFCURVE",
"448 238 OFFCURVE",
"428 255 CURVE",
"523 279 OFFCURVE",
"579 347 OFFCURVE",
"599 438 CURVE SMOOTH",
"626 565 OFFCURVE",
"568 644 OFFCURVE",
"425 644 CURVE SMOOTH",
"139 644 LINE",
"3 0 LINE"
);
},
{
closed = 1;
nodes = (
"230 559 LINE",
"398 559 LINE SMOOTH",
"485 559 OFFCURVE",
"509 522 OFFCURVE",
"490 438 CURVE SMOOTH",
"471 352 OFFCURVE",
"423 316 OFFCURVE",
"337 316 CURVE SMOOTH",
"179 316 LINE"
);
},
{
closed = 1;
nodes = (
"257 -173 LINE",
"275 -85 LINE",
"181 -85 LINE",
"163 -173 LINE"
);
}
);
width = 610;
}
);
note = Rdotbelow;
rightKerningGroup = R;
unicode = 1E5A;
},
{
glyphname = Rdotbelowmacron;
lastChange = "2015-11-25 05:42:48 +0000";
layers = (
{
layerId = "51D8E656-CCF3-4A73-A171-84F1BD8DE29C";
name = "Regular Italic";
paths = (
{
closed = 1;
nodes = (
"112 0 LINE",
"160 228 LINE",
"281 228 LINE SMOOTH",
"330 228 OFFCURVE",
"342 214 OFFCURVE",
"350 180 CURVE SMOOTH",
"391 0 LINE",
"503 0 LINE",
"461 187 LINE SMOOTH",
"454 220 OFFCURVE",
"448 238 OFFCURVE",
"428 255 CURVE",
"523 279 OFFCURVE",
"579 347 OFFCURVE",
"599 438 CURVE SMOOTH",
"626 565 OFFCURVE",
"568 644 OFFCURVE",
"425 644 CURVE SMOOTH",
"139 644 LINE",
"3 0 LINE"
);
},
{
closed = 1;
nodes = (
"230 559 LINE",
"398 559 LINE SMOOTH",
"485 559 OFFCURVE",
"509 522 OFFCURVE",
"490 438 CURVE SMOOTH",
"471 352 OFFCURVE",
"423 316 OFFCURVE",
"337 316 CURVE SMOOTH",
"179 316 LINE"
);
},
{
closed = 1;
nodes = (
"257 -173 LINE",
"275 -85 LINE",
"181 -85 LINE",
"163 -173 LINE"
);
},
{
closed = 1;
nodes = (
"533 717 LINE",
"548 788 LINE",
"251 788 LINE",
"236 717 LINE"
);
}
);
width = 610;
}
);
note = Rdotbelowmacron;
rightKerningGroup = R;
unicode = 1E5C;
},
{
glyphname = Rlinebelow;
lastChange = "2015-11-25 05:42:53 +0000";
layers = (
{
layerId = "51D8E656-CCF3-4A73-A171-84F1BD8DE29C";
name = "Regular Italic";
paths = (
{
closed = 1;
nodes = (
"112 0 LINE",
"160 228 LINE",
"281 228 LINE SMOOTH",
"330 228 OFFCURVE",
"342 214 OFFCURVE",
"350 180 CURVE SMOOTH",
"391 0 LINE",
"503 0 LINE",
"461 187 LINE SMOOTH",
"454 220 OFFCURVE",
"448 238 OFFCURVE",
"428 255 CURVE",
"523 279 OFFCURVE",
"579 347 OFFCURVE",
"599 438 CURVE SMOOTH",
"626 565 OFFCURVE",
"568 644 OFFCURVE",
"425 644 CURVE SMOOTH",
"139 644 LINE",
"3 0 LINE"
);
},
{
closed = 1;
nodes = (
"230 559 LINE",
"398 559 LINE SMOOTH",
"485 559 OFFCURVE",
"509 522 OFFCURVE",
"490 438 CURVE SMOOTH",
"471 352 OFFCURVE",
"423 316 OFFCURVE",
"337 316 CURVE SMOOTH",
"179 316 LINE"
);
},
{
closed = 1;
nodes = (
"352 -143 LINE",
"367 -72 LINE",
"70 -72 LINE",
"55 -143 LINE"
);
}
);
width = 610;
}
);
note = Rlinebelow;
rightKerningGroup = R;
unicode = 1E5E;
},
{
glyphname = S;
lastChange = "2015-11-25 05:32:27 +0000";
layers = (
{
layerId = "51D8E656-CCF3-4A73-A171-84F1BD8DE29C";
name = "Regular Italic";
paths = (
{
closed = 1;
nodes = (
"383 -10 OFFCURVE",
"464 59 OFFCURVE",
"488 172 CURVE SMOOTH",
"508 264 OFFCURVE",
"474 327 OFFCURVE",
"328 366 CURVE SMOOTH",
"212 397 OFFCURVE",
"181 415 OFFCURVE",
"193 473 CURVE SMOOTH",
"207 540 OFFCURVE",
"268 561 OFFCURVE",
"364 561 CURVE SMOOTH",
"423 561 OFFCURVE",
"480 551 OFFCURVE",
"526 532 CURVE",
"546 628 LINE",
"511 641 OFFCURVE",
"444 654 OFFCURVE",
"369 654 CURVE SMOOTH",
"194 654 OFFCURVE",
"107 586 OFFCURVE",
"83 473 CURVE SMOOTH",
"62 376 OFFCURVE",
"106 324 OFFCURVE",
"232 290 CURVE SMOOTH",
"354 257 OFFCURVE",
"392 238 OFFCURVE",
"378 172 CURVE SMOOTH",
"363 100 OFFCURVE",
"308 82 OFFCURVE",
"205 82 CURVE SMOOTH",
"139 82 OFFCURVE",
"74 96 OFFCURVE",
"22 118 CURVE",
"1 22 LINE",
"47 1 OFFCURVE",
"113 -10 OFFCURVE",
"195 -10 CURVE SMOOTH"
);
}
);
width = 555;
}
);
leftKerningGroup = S;
note = S;
rightKerningGroup = S;
unicode = 0053;
},
{
glyphname = Sacute;
lastChange = "2015-11-25 05:32:28 +0000";
layers = (
{
layerId = "51D8E656-CCF3-4A73-A171-84F1BD8DE29C";
name = "Regular Italic";
paths = (
{
closed = 1;
nodes = (
"383 -10 OFFCURVE",
"464 59 OFFCURVE",
"488 172 CURVE SMOOTH",
"508 264 OFFCURVE",
"474 327 OFFCURVE",
"328 366 CURVE SMOOTH",
"212 397 OFFCURVE",
"181 415 OFFCURVE",
"193 473 CURVE SMOOTH",
"207 540 OFFCURVE",
"268 561 OFFCURVE",
"364 561 CURVE SMOOTH",
"423 561 OFFCURVE",
"480 551 OFFCURVE",
"526 532 CURVE",
"546 628 LINE",
"511 641 OFFCURVE",
"444 654 OFFCURVE",
"369 654 CURVE SMOOTH",
"194 654 OFFCURVE",
"107 586 OFFCURVE",
"83 473 CURVE SMOOTH",
"62 376 OFFCURVE",
"106 324 OFFCURVE",
"232 290 CURVE SMOOTH",
"354 257 OFFCURVE",
"392 238 OFFCURVE",
"378 172 CURVE SMOOTH",
"363 100 OFFCURVE",
"308 82 OFFCURVE",
"205 82 CURVE SMOOTH",
"139 82 OFFCURVE",
"74 96 OFFCURVE",
"22 118 CURVE",
"1 22 LINE",
"47 1 OFFCURVE",
"113 -10 OFFCURVE",
"195 -10 CURVE SMOOTH"
);
},
{
closed = 1;
nodes = (
"390 691 LINE",
"512 868 LINE",
"416 868 LINE",
"303 691 LINE"
);
}
);
width = 555;
}
);
leftKerningGroup = S;
note = Sacute;
rightKerningGroup = S;
unicode = 015A;
},
{
glyphname = Scaron;
lastChange = "2015-11-25 05:32:26 +0000";
layers = (
{
layerId = "51D8E656-CCF3-4A73-A171-84F1BD8DE29C";
name = "Regular Italic";
paths = (
{
closed = 1;
nodes = (
"383 -10 OFFCURVE",
"464 59 OFFCURVE",
"488 172 CURVE SMOOTH",
"508 264 OFFCURVE",
"474 327 OFFCURVE",
"328 366 CURVE SMOOTH",
"212 397 OFFCURVE",
"181 415 OFFCURVE",
"193 473 CURVE SMOOTH",
"207 540 OFFCURVE",
"268 561 OFFCURVE",
"364 561 CURVE SMOOTH",
"423 561 OFFCURVE",
"480 551 OFFCURVE",
"526 532 CURVE",
"546 628 LINE",
"511 641 OFFCURVE",
"444 654 OFFCURVE",
"369 654 CURVE SMOOTH",
"194 654 OFFCURVE",
"107 586 OFFCURVE",
"83 473 CURVE SMOOTH",
"62 376 OFFCURVE",
"106 324 OFFCURVE",
"232 290 CURVE SMOOTH",
"354 257 OFFCURVE",
"392 238 OFFCURVE",
"378 172 CURVE SMOOTH",
"363 100 OFFCURVE",
"308 82 OFFCURVE",
"205 82 CURVE SMOOTH",
"139 82 OFFCURVE",
"74 96 OFFCURVE",
"22 118 CURVE",
"1 22 LINE",
"47 1 OFFCURVE",
"113 -10 OFFCURVE",
"195 -10 CURVE SMOOTH"
);
},
{
closed = 1;
nodes = (
"413 687 LINE",
"572 848 LINE",
"482 848 LINE",
"385 747 LINE",
"332 848 LINE",
"247 848 LINE",
"337 687 LINE"
);
}
);
width = 555;
}
);
leftKerningGroup = S;
note = Scaron;
rightKerningGroup = S;
unicode = 0160;
},
{
glyphname = Scedilla;
lastChange = "2015-11-25 05:32:25 +0000";
layers = (
{
layerId = "51D8E656-CCF3-4A73-A171-84F1BD8DE29C";
name = "Regular Italic";
paths = (
{
closed = 1;
nodes = (
"234 -240 OFFCURVE",
"288 -203 OFFCURVE",
"302 -137 CURVE SMOOTH",
"314 -81 OFFCURVE",
"285 -47 OFFCURVE",
"214 -47 CURVE",
"234 -9 LINE",
"394 0 OFFCURVE",
"465 67 OFFCURVE",
"488 172 CURVE SMOOTH",
"508 264 OFFCURVE",
"474 327 OFFCURVE",
"328 366 CURVE SMOOTH",
"212 397 OFFCURVE",
"181 415 OFFCURVE",
"193 473 CURVE SMOOTH",
"207 540 OFFCURVE",
"268 561 OFFCURVE",
"364 561 CURVE SMOOTH",
"423 561 OFFCURVE",
"480 551 OFFCURVE",
"526 532 CURVE",
"546 628 LINE",
"511 641 OFFCURVE",
"444 654 OFFCURVE",
"369 654 CURVE SMOOTH",
"194 654 OFFCURVE",
"107 586 OFFCURVE",
"83 473 CURVE SMOOTH",
"62 376 OFFCURVE",
"106 324 OFFCURVE",
"232 290 CURVE SMOOTH",
"354 257 OFFCURVE",
"392 238 OFFCURVE",
"378 172 CURVE SMOOTH",
"363 100 OFFCURVE",
"308 82 OFFCURVE",
"205 82 CURVE SMOOTH",
"139 82 OFFCURVE",
"74 96 OFFCURVE",
"22 118 CURVE",
"1 22 LINE",
"40 4 OFFCURVE",
"94 -7 OFFCURVE",
"161 -9 CURVE",
"117 -95 LINE",
"157 -95 LINE SMOOTH",
"209 -95 OFFCURVE",
"236 -99 OFFCURVE",
"229 -136 CURVE SMOOTH",
"221 -173 OFFCURVE",
"195 -181 OFFCURVE",
"135 -181 CURVE SMOOTH",
"114 -181 OFFCURVE",
"92 -178 OFFCURVE",
"75 -173 CURVE",
"62 -232 LINE",
"76 -236 OFFCURVE",
"111 -240 OFFCURVE",
"133 -240 CURVE SMOOTH"
);
}
);
width = 555;
}
);
leftKerningGroup = S;
note = Scedilla;
rightKerningGroup = S;
unicode = 015E;
},
{
glyphname = Scircumflex;
lastChange = "2015-11-25 05:32:24 +0000";
layers = (
{
layerId = "51D8E656-CCF3-4A73-A171-84F1BD8DE29C";
name = "Regular Italic";
paths = (
{
closed = 1;
nodes = (
"383 -10 OFFCURVE",
"464 59 OFFCURVE",
"488 172 CURVE SMOOTH",
"508 264 OFFCURVE",
"474 327 OFFCURVE",
"328 366 CURVE SMOOTH",
"212 397 OFFCURVE",
"181 415 OFFCURVE",
"193 473 CURVE SMOOTH",
"207 540 OFFCURVE",
"268 561 OFFCURVE",
"364 561 CURVE SMOOTH",
"423 561 OFFCURVE",
"480 551 OFFCURVE",
"526 532 CURVE",
"546 628 LINE",
"511 641 OFFCURVE",
"444 654 OFFCURVE",
"369 654 CURVE SMOOTH",
"194 654 OFFCURVE",
"107 586 OFFCURVE",
"83 473 CURVE SMOOTH",
"62 376 OFFCURVE",
"106 324 OFFCURVE",
"232 290 CURVE SMOOTH",
"354 257 OFFCURVE",
"392 238 OFFCURVE",
"378 172 CURVE SMOOTH",
"363 100 OFFCURVE",
"308 82 OFFCURVE",
"205 82 CURVE SMOOTH",
"139 82 OFFCURVE",
"74 96 OFFCURVE",
"22 118 CURVE",
"1 22 LINE",
"47 1 OFFCURVE",
"113 -10 OFFCURVE",
"195 -10 CURVE SMOOTH"
);
},
{
closed = 1;
nodes = (
"291 695 LINE",
"386 796 LINE",
"441 695 LINE",
"525 695 LINE",
"434 856 LINE",
"358 856 LINE",
"200 695 LINE"
);
}
);
width = 555;
}
);
leftKerningGroup = S;
note = Scircumflex;
rightKerningGroup = S;
unicode = 015C;
},
{
glyphname = Scommaaccent;
lastChange = "2015-11-25 05:32:25 +0000";
layers = (
{
layerId = "51D8E656-CCF3-4A73-A171-84F1BD8DE29C";
name = "Regular Italic";
paths = (
{
closed = 1;
nodes = (
"383 -10 OFFCURVE",
"464 59 OFFCURVE",
"488 172 CURVE SMOOTH",
"508 264 OFFCURVE",
"474 327 OFFCURVE",
"328 366 CURVE SMOOTH",
"212 397 OFFCURVE",
"181 415 OFFCURVE",
"193 473 CURVE SMOOTH",
"207 540 OFFCURVE",
"268 561 OFFCURVE",
"364 561 CURVE SMOOTH",
"423 561 OFFCURVE",
"480 551 OFFCURVE",
"526 532 CURVE",
"546 628 LINE",
"511 641 OFFCURVE",
"444 654 OFFCURVE",
"369 654 CURVE SMOOTH",
"194 654 OFFCURVE",
"107 586 OFFCURVE",
"83 473 CURVE SMOOTH",
"62 376 OFFCURVE",
"106 324 OFFCURVE",
"232 290 CURVE SMOOTH",
"354 257 OFFCURVE",
"392 238 OFFCURVE",
"378 172 CURVE SMOOTH",
"363 100 OFFCURVE",
"308 82 OFFCURVE",
"205 82 CURVE SMOOTH",
"139 82 OFFCURVE",
"74 96 OFFCURVE",
"22 118 CURVE",
"1 22 LINE",
"47 1 OFFCURVE",
"113 -10 OFFCURVE",
"195 -10 CURVE SMOOTH"
);
},
{
closed = 1;
nodes = (
"176 -223 LINE",
"253 -50 LINE",
"158 -50 LINE",
"93 -223 LINE"
);
}
);
width = 555;
}
);
leftKerningGroup = S;
note = Scommaaccent;
rightKerningGroup = S;
unicode = 0218;
},
{
glyphname = Sdotaccent;
lastChange = "2015-11-25 05:32:26 +0000";
layers = (
{
layerId = "51D8E656-CCF3-4A73-A171-84F1BD8DE29C";
name = "Regular Italic";
paths = (
{
closed = 1;
nodes = (
"383 -10 OFFCURVE",
"464 59 OFFCURVE",
"488 172 CURVE SMOOTH",
"508 264 OFFCURVE",
"474 327 OFFCURVE",
"328 366 CURVE SMOOTH",
"212 397 OFFCURVE",
"181 415 OFFCURVE",
"193 473 CURVE SMOOTH",
"207 540 OFFCURVE",
"268 561 OFFCURVE",
"364 561 CURVE SMOOTH",
"423 561 OFFCURVE",
"480 551 OFFCURVE",
"526 532 CURVE",
"546 628 LINE",
"511 641 OFFCURVE",
"444 654 OFFCURVE",
"369 654 CURVE SMOOTH",
"194 654 OFFCURVE",
"107 586 OFFCURVE",
"83 473 CURVE SMOOTH",
"62 376 OFFCURVE",
"106 324 OFFCURVE",
"232 290 CURVE SMOOTH",
"354 257 OFFCURVE",
"392 238 OFFCURVE",
"378 172 CURVE SMOOTH",
"363 100 OFFCURVE",
"308 82 OFFCURVE",
"205 82 CURVE SMOOTH",
"139 82 OFFCURVE",
"74 96 OFFCURVE",
"22 118 CURVE",
"1 22 LINE",
"47 1 OFFCURVE",
"113 -10 OFFCURVE",
"195 -10 CURVE SMOOTH"
);
},
{
closed = 1;
nodes = (
"411 711 LINE",
"430 799 LINE",
"338 799 LINE",
"319 711 LINE"
);
}
);
width = 555;
}
);
leftKerningGroup = S;
note = Sdotaccent;
rightKerningGroup = S;
unicode = 1E60;
},
{
glyphname = Sdotbelow;
lastChange = "2015-11-25 05:32:25 +0000";
layers = (
{
layerId = "51D8E656-CCF3-4A73-A171-84F1BD8DE29C";
name = "Regular Italic";
paths = (
{
closed = 1;
nodes = (
"383 -10 OFFCURVE",
"464 59 OFFCURVE",
"488 172 CURVE SMOOTH",
"508 264 OFFCURVE",
"474 327 OFFCURVE",
"328 366 CURVE SMOOTH",
"212 397 OFFCURVE",
"181 415 OFFCURVE",
"193 473 CURVE SMOOTH",
"207 540 OFFCURVE",
"268 561 OFFCURVE",
"364 561 CURVE SMOOTH",
"423 561 OFFCURVE",
"480 551 OFFCURVE",
"526 532 CURVE",
"546 628 LINE",
"511 641 OFFCURVE",
"444 654 OFFCURVE",
"369 654 CURVE SMOOTH",
"194 654 OFFCURVE",
"107 586 OFFCURVE",
"83 473 CURVE SMOOTH",
"62 376 OFFCURVE",
"106 324 OFFCURVE",
"232 290 CURVE SMOOTH",
"354 257 OFFCURVE",
"392 238 OFFCURVE",
"378 172 CURVE SMOOTH",
"363 100 OFFCURVE",
"308 82 OFFCURVE",
"205 82 CURVE SMOOTH",
"139 82 OFFCURVE",
"74 96 OFFCURVE",
"22 118 CURVE",
"1 22 LINE",
"47 1 OFFCURVE",
"113 -10 OFFCURVE",
"195 -10 CURVE SMOOTH"
);
},
{
closed = 1;
nodes = (
"220 -173 LINE",
"238 -85 LINE",
"144 -85 LINE",
"126 -173 LINE"
);
}
);
width = 555;
}
);
leftKerningGroup = S;
note = Sdotbelow;
rightKerningGroup = S;
unicode = 1E62;
},
{
glyphname = Germandbls;
lastChange = "2015-11-25 05:32:26 +0000";
layers = (
{
layerId = "51D8E656-CCF3-4A73-A171-84F1BD8DE29C";
name = "Regular Italic";
paths = (
{
closed = 1;
nodes = (
"460 -10 OFFCURVE",
"535 69 OFFCURVE",
"559 183 CURVE SMOOTH",
"579 277 OFFCURVE",
"525 341 OFFCURVE",
"434 341 CURVE SMOOTH",
"398 341 LINE",
"590 444 LINE",
"614 559 OFFCURVE",
"563 654 OFFCURVE",
"390 654 CURVE SMOOTH",
"214 654 OFFCURVE",
"119 571 OFFCURVE",
"88 426 CURVE SMOOTH",
"-2 0 LINE",
"103 0 LINE",
"194 429 LINE SMOOTH",
"213 520 OFFCURVE",
"261 564 OFFCURVE",
"370 564 CURVE SMOOTH",
"470 564 OFFCURVE",
"504 523 OFFCURVE",
"493 472 CURVE",
"291 361 LINE",
"272 269 LINE",
"368 269 LINE SMOOTH",
"449 269 OFFCURVE",
"469 247 OFFCURVE",
"456 184 CURVE SMOOTH",
"441 117 OFFCURVE",
"397 82 OFFCURVE",
"322 82 CURVE SMOOTH",
"280 82 OFFCURVE",
"233 89 OFFCURVE",
"203 104 CURVE",
"183 12 LINE",
"220 -3 OFFCURVE",
"268 -10 OFFCURVE",
"322 -10 CURVE SMOOTH"
);
}
);
width = 625;
}
);
note = uni1E9E;
unicode = 1E9E;
},
{
glyphname = Schwa;
lastChange = "2015-11-25 05:32:27 +0000";
layers = (
{
layerId = "51D8E656-CCF3-4A73-A171-84F1BD8DE29C";
name = "Regular Italic";
paths = (
{
closed = 1;
nodes = (
"478 -10 OFFCURVE",
"595 114 OFFCURVE",
"637 314 CURVE SMOOTH",
"685 537 OFFCURVE",
"601 654 OFFCURVE",
"374 654 CURVE SMOOTH",
"297 654 OFFCURVE",
"214 637 OFFCURVE",
"152 615 CURVE",
"135 532 LINE",
"191 555 OFFCURVE",
"273 570 OFFCURVE",
"333 570 CURVE SMOOTH",
"515 570 OFFCURVE",
"572 514 OFFCURVE",
"549 370 CURVE",
"61 370 LINE",
"38 259 LINE SMOOTH",
"4 99 OFFCURVE",
"72 -10 OFFCURVE",
"262 -10 CURVE SMOOTH"
);
},
{
closed = 1;
nodes = (
"163 71 OFFCURVE",
"106 130 OFFCURVE",
"129 238 CURVE SMOOTH",
"141 292 LINE",
"533 292 LINE",
"501 145 OFFCURVE",
"420 71 OFFCURVE",
"280 71 CURVE SMOOTH"
);
}
);
width = 674;
}
);
note = uni018F;
unicode = 018F;
},
{
glyphname = T;
lastChange = "2015-11-25 05:32:27 +0000";
layers = (
{
layerId = "51D8E656-CCF3-4A73-A171-84F1BD8DE29C";
name = "Regular Italic";
paths = (
{
closed = 1;
nodes = (
"278 0 LINE",
"396 559 LINE",
"601 559 LINE",
"619 644 LINE",
"99 644 LINE",
"81 559 LINE",
"287 559 LINE",
"169 0 LINE"
);
}
);
width = 567;
}
);
leftKerningGroup = T;
note = T;
rightKerningGroup = T;
unicode = 0054;
},
{
glyphname = Tbar;
lastChange = "2015-11-25 05:32:25 +0000";
layers = (
{
layerId = "51D8E656-CCF3-4A73-A171-84F1BD8DE29C";
name = "Regular Italic";
paths = (
{
closed = 1;
nodes = (
"278 0 LINE",
"342 306 LINE",
"472 306 LINE",
"489 387 LINE",
"359 387 LINE",
"396 559 LINE",
"601 559 LINE",
"619 644 LINE",
"99 644 LINE",
"81 559 LINE",
"287 559 LINE",
"250 387 LINE",
"123 387 LINE",
"106 306 LINE",
"233 306 LINE",
"169 0 LINE"
);
}
);
width = 567;
}
);
leftKerningGroup = T;
note = Tbar;
rightKerningGroup = T;
unicode = 0166;
},
{
glyphname = Tcaron;
lastChange = "2015-11-25 05:32:27 +0000";
layers = (
{
layerId = "51D8E656-CCF3-4A73-A171-84F1BD8DE29C";
name = "Regular Italic";
paths = (
{
closed = 1;
nodes = (
"278 0 LINE",
"396 559 LINE",
"601 559 LINE",
"619 644 LINE",
"99 644 LINE",
"81 559 LINE",
"287 559 LINE",
"169 0 LINE"
);
},
{
closed = 1;
nodes = (
"408 695 LINE",
"567 856 LINE",
"477 856 LINE",
"380 755 LINE",
"327 856 LINE",
"242 856 LINE",
"332 695 LINE"
);
}
);
width = 567;
}
);
leftKerningGroup = T;
note = Tcaron;
rightKerningGroup = T;
unicode = 0164;
},
{
glyphname = Tcedilla;
lastChange = "2015-11-25 05:32:25 +0000";
layers = (
{
layerId = "51D8E656-CCF3-4A73-A171-84F1BD8DE29C";
name = "Regular Italic";
paths = (
{
closed = 1;
nodes = (
"253 -240 OFFCURVE",
"307 -203 OFFCURVE",
"321 -137 CURVE SMOOTH",
"333 -81 OFFCURVE",
"304 -47 OFFCURVE",
"233 -47 CURVE",
"258 0 LINE",
"278 0 LINE",
"396 559 LINE",
"601 559 LINE",
"619 644 LINE",
"99 644 LINE",
"81 559 LINE",
"287 559 LINE",
"169 0 LINE",
"185 0 LINE",
"136 -95 LINE",
"176 -95 LINE SMOOTH",
"228 -95 OFFCURVE",
"255 -99 OFFCURVE",
"248 -136 CURVE SMOOTH",
"240 -173 OFFCURVE",
"214 -181 OFFCURVE",
"154 -181 CURVE SMOOTH",
"133 -181 OFFCURVE",
"111 -178 OFFCURVE",
"94 -173 CURVE",
"81 -232 LINE",
"95 -236 OFFCURVE",
"130 -240 OFFCURVE",
"152 -240 CURVE SMOOTH"
);
}
);
width = 567;
}
);
leftKerningGroup = T;
note = Tcedilla;
rightKerningGroup = T;
unicode = 0162;
},
{
glyphname = Tcommaaccent;
lastChange = "2015-11-25 05:43:09 +0000";
layers = (
{
layerId = "51D8E656-CCF3-4A73-A171-84F1BD8DE29C";
name = "Regular Italic";
paths = (
{
closed = 1;
nodes = (
"278 0 LINE",
"396 559 LINE",
"601 559 LINE",
"619 644 LINE",
"99 644 LINE",
"81 559 LINE",
"287 559 LINE",
"169 0 LINE"
);
},
{
closed = 1;
nodes = (
"174 -234 LINE",
"261 -45 LINE",
"171 -45 LINE",
"102 -234 LINE"
);
}
);
width = 567;
}
);
leftKerningGroup = T;
note = Tcommaaccent;
rightKerningGroup = T;
unicode = 021A;
},
{
glyphname = Tdotbelow;
lastChange = "2015-11-25 05:32:25 +0000";
layers = (
{
layerId = "51D8E656-CCF3-4A73-A171-84F1BD8DE29C";
name = "Regular Italic";
paths = (
{
closed = 1;
nodes = (
"278 0 LINE",
"396 559 LINE",
"601 559 LINE",
"619 644 LINE",
"99 644 LINE",
"81 559 LINE",
"287 559 LINE",
"169 0 LINE"
);
},
{
closed = 1;
nodes = (
"235 -166 LINE",
"253 -78 LINE",
"159 -78 LINE",
"141 -166 LINE"
);
}
);
width = 567;
}
);
leftKerningGroup = T;
note = Tdotbelow;
rightKerningGroup = T;
unicode = 1E6C;
},
{
glyphname = Tlinebelow;
lastChange = "2015-11-25 05:32:26 +0000";
layers = (
{
layerId = "51D8E656-CCF3-4A73-A171-84F1BD8DE29C";
name = "Regular Italic";
paths = (
{
closed = 1;
nodes = (
"278 0 LINE",
"396 559 LINE",
"601 559 LINE",
"619 644 LINE",
"99 644 LINE",
"81 559 LINE",
"287 559 LINE",
"169 0 LINE"
);
},
{
closed = 1;
nodes = (
"342 -136 LINE",
"357 -65 LINE",
"60 -65 LINE",
"45 -136 LINE"
);
}
);
width = 567;
}
);
leftKerningGroup = T;
note = Tlinebelow;
rightKerningGroup = T;
unicode = 1E6E;
},
{
glyphname = U;
lastChange = "2015-11-25 05:32:25 +0000";
layers = (
{
layerId = "51D8E656-CCF3-4A73-A171-84F1BD8DE29C";
name = "Regular Italic";
paths = (
{
closed = 1;
nodes = (
"468 -10 OFFCURVE",
"572 77 OFFCURVE",
"606 239 CURVE SMOOTH",
"692 644 LINE",
"584 644 LINE",
"499 243 LINE SMOOTH",
"475 130 OFFCURVE",
"410 82 OFFCURVE",
"295 82 CURVE SMOOTH",
"163 82 OFFCURVE",
"134 131 OFFCURVE",
"158 243 CURVE SMOOTH",
"243 644 LINE",
"134 644 LINE",
"48 239 LINE SMOOTH",
"16 90 OFFCURVE",
"104 -10 OFFCURVE",
"275 -10 CURVE SMOOTH"
);
}
);
width = 675;
}
);
leftKerningGroup = U;
note = U;
rightKerningGroup = U;
unicode = 0055;
},
{
glyphname = Uacute;
lastChange = "2015-11-25 05:32:26 +0000";
layers = (
{
layerId = "51D8E656-CCF3-4A73-A171-84F1BD8DE29C";
name = "Regular Italic";
paths = (
{
closed = 1;
nodes = (
"468 -10 OFFCURVE",
"572 77 OFFCURVE",
"606 239 CURVE SMOOTH",
"692 644 LINE",
"584 644 LINE",
"499 243 LINE SMOOTH",
"475 130 OFFCURVE",
"410 82 OFFCURVE",
"295 82 CURVE SMOOTH",
"163 82 OFFCURVE",
"134 131 OFFCURVE",
"158 243 CURVE SMOOTH",
"243 644 LINE",
"134 644 LINE",
"48 239 LINE SMOOTH",
"16 90 OFFCURVE",
"104 -10 OFFCURVE",
"275 -10 CURVE SMOOTH"
);
},
{
closed = 1;
nodes = (
"461 688 LINE",
"583 865 LINE",
"487 865 LINE",
"374 688 LINE"
);
}
);
width = 675;
}
);
leftKerningGroup = U;
note = Uacute;
rightKerningGroup = U;
unicode = 00DA;
},
{
glyphname = Ubreve;
lastChange = "2015-11-25 05:32:28 +0000";
layers = (
{
layerId = "51D8E656-CCF3-4A73-A171-84F1BD8DE29C";
name = "Regular Italic";
paths = (
{
closed = 1;
nodes = (
"468 -10 OFFCURVE",
"572 77 OFFCURVE",
"606 239 CURVE SMOOTH",
"692 644 LINE",
"584 644 LINE",
"499 243 LINE SMOOTH",
"475 130 OFFCURVE",
"410 82 OFFCURVE",
"295 82 CURVE SMOOTH",
"163 82 OFFCURVE",
"134 131 OFFCURVE",
"158 243 CURVE SMOOTH",
"243 644 LINE",
"134 644 LINE",
"48 239 LINE SMOOTH",
"16 90 OFFCURVE",
"104 -10 OFFCURVE",
"275 -10 CURVE SMOOTH"
);
},
{
closed = 1;
nodes = (
"498 688 OFFCURVE",
"565 743 OFFCURVE",
"583 829 CURVE",
"506 829 LINE",
"496 783 OFFCURVE",
"465 753 OFFCURVE",
"420 753 CURVE SMOOTH",
"369 753 OFFCURVE",
"359 783 OFFCURVE",
"369 829 CURVE",
"299 829 LINE",
"281 743 OFFCURVE",
"321 688 OFFCURVE",
"409 688 CURVE SMOOTH"
);
}
);
width = 675;
}
);
leftKerningGroup = U;
note = Ubreve;
rightKerningGroup = U;
unicode = 016C;
},
{
glyphname = Ucaron;
lastChange = "2015-11-25 05:32:25 +0000";
layers = (
{
layerId = "51D8E656-CCF3-4A73-A171-84F1BD8DE29C";
name = "Regular Italic";
paths = (
{
closed = 1;
nodes = (
"468 -10 OFFCURVE",
"572 77 OFFCURVE",
"606 239 CURVE SMOOTH",
"692 644 LINE",
"584 644 LINE",
"499 243 LINE SMOOTH",
"475 130 OFFCURVE",
"410 82 OFFCURVE",
"295 82 CURVE SMOOTH",
"163 82 OFFCURVE",
"134 131 OFFCURVE",
"158 243 CURVE SMOOTH",
"243 644 LINE",
"134 644 LINE",
"48 239 LINE SMOOTH",
"16 90 OFFCURVE",
"104 -10 OFFCURVE",
"275 -10 CURVE SMOOTH"
);
},
{
closed = 1;
nodes = (
"460 687 LINE",
"619 848 LINE",
"529 848 LINE",
"432 747 LINE",
"379 848 LINE",
"294 848 LINE",
"384 687 LINE"
);
}
);
width = 675;
}
);
leftKerningGroup = U;
note = Ucaron;
rightKerningGroup = U;
unicode = 01D3;
},
{
glyphname = Ucircumflex;
lastChange = "2015-11-25 05:32:25 +0000";
layers = (
{
layerId = "51D8E656-CCF3-4A73-A171-84F1BD8DE29C";
name = "Regular Italic";
paths = (
{
closed = 1;
nodes = (
"468 -10 OFFCURVE",
"572 77 OFFCURVE",
"606 239 CURVE SMOOTH",
"692 644 LINE",
"584 644 LINE",
"499 243 LINE SMOOTH",
"475 130 OFFCURVE",
"410 82 OFFCURVE",
"295 82 CURVE SMOOTH",
"163 82 OFFCURVE",
"134 131 OFFCURVE",
"158 243 CURVE SMOOTH",
"243 644 LINE",
"134 644 LINE",
"48 239 LINE SMOOTH",
"16 90 OFFCURVE",
"104 -10 OFFCURVE",
"275 -10 CURVE SMOOTH"
);
},
{
closed = 1;
nodes = (
"351 687 LINE",
"446 788 LINE",
"501 687 LINE",
"585 687 LINE",
"494 848 LINE",
"418 848 LINE",
"260 687 LINE"
);
}
);
width = 675;
}
);
leftKerningGroup = U;
note = Ucircumflex;
rightKerningGroup = U;
unicode = 00DB;
},
{
glyphname = Udieresis;
lastChange = "2015-11-25 05:32:27 +0000";
layers = (
{
layerId = "51D8E656-CCF3-4A73-A171-84F1BD8DE29C";
name = "Regular Italic";
paths = (
{
closed = 1;
nodes = (
"468 -10 OFFCURVE",
"572 77 OFFCURVE",
"606 239 CURVE SMOOTH",
"692 644 LINE",
"584 644 LINE",
"499 243 LINE SMOOTH",
"475 130 OFFCURVE",
"410 82 OFFCURVE",
"295 82 CURVE SMOOTH",
"163 82 OFFCURVE",
"134 131 OFFCURVE",
"158 243 CURVE SMOOTH",
"243 644 LINE",
"134 644 LINE",
"48 239 LINE SMOOTH",
"16 90 OFFCURVE",
"104 -10 OFFCURVE",
"275 -10 CURVE SMOOTH"
);
},
{
closed = 1;
nodes = (
"374 712 LINE",
"393 798 LINE",
"302 798 LINE",
"283 712 LINE"
);
},
{
closed = 1;
nodes = (
"560 712 LINE",
"579 798 LINE",
"487 798 LINE",
"468 712 LINE"
);
}
);
width = 675;
}
);
leftKerningGroup = U;
note = Udieresis;
rightKerningGroup = U;
unicode = 00DC;
},
{
glyphname = Udieresisacute;
lastChange = "2015-11-25 05:32:27 +0000";
layers = (
{
layerId = "51D8E656-CCF3-4A73-A171-84F1BD8DE29C";
name = "Regular Italic";
paths = (
{
closed = 1;
nodes = (
"468 -10 OFFCURVE",
"572 77 OFFCURVE",
"606 239 CURVE SMOOTH",
"692 644 LINE",
"584 644 LINE",
"499 243 LINE SMOOTH",
"475 130 OFFCURVE",
"410 82 OFFCURVE",
"295 82 CURVE SMOOTH",
"163 82 OFFCURVE",
"134 131 OFFCURVE",
"158 243 CURVE SMOOTH",
"243 644 LINE",
"134 644 LINE",
"48 239 LINE SMOOTH",
"16 90 OFFCURVE",
"104 -10 OFFCURVE",
"275 -10 CURVE SMOOTH"
);
},
{
closed = 1;
nodes = (
"368 688 LINE",
"386 772 LINE",
"297 772 LINE",
"279 688 LINE"
);
},
{
closed = 1;
nodes = (
"566 688 LINE",
"584 772 LINE",
"495 772 LINE",
"477 688 LINE"
);
},
{
closed = 1;
nodes = (
"479 786 LINE",
"573 913 LINE",
"490 913 LINE",
"402 786 LINE"
);
}
);
width = 675;
}
);
leftKerningGroup = U;
note = Udieresisacute;
rightKerningGroup = U;
unicode = 01D7;
},
{
glyphname = Udieresiscaron;
lastChange = "2015-11-25 05:32:28 +0000";
layers = (
{
layerId = "51D8E656-CCF3-4A73-A171-84F1BD8DE29C";
name = "Regular Italic";
paths = (
{
closed = 1;
nodes = (
"468 -10 OFFCURVE",
"572 77 OFFCURVE",
"606 239 CURVE SMOOTH",
"692 644 LINE",
"584 644 LINE",
"499 243 LINE SMOOTH",
"475 130 OFFCURVE",
"410 82 OFFCURVE",
"295 82 CURVE SMOOTH",
"163 82 OFFCURVE",
"134 131 OFFCURVE",
"158 243 CURVE SMOOTH",
"243 644 LINE",
"134 644 LINE",
"48 239 LINE SMOOTH",
"16 90 OFFCURVE",
"104 -10 OFFCURVE",
"275 -10 CURVE SMOOTH"
);
},
{
closed = 1;
nodes = (
"367 688 LINE",
"385 772 LINE",
"295 772 LINE",
"277 688 LINE"
);
},
{
closed = 1;
nodes = (
"564 688 LINE",
"582 772 LINE",
"494 772 LINE",
"476 688 LINE"
);
},
{
closed = 1;
nodes = (
"484 784 LINE",
"620 904 LINE",
"534 904 LINE",
"451 826 LINE",
"400 904 LINE",
"318 904 LINE",
"405 784 LINE"
);
}
);
width = 675;
}
);
leftKerningGroup = U;
note = Udieresiscaron;
rightKerningGroup = U;
unicode = 01D9;
},
{
glyphname = Udieresisgrave;
lastChange = "2015-11-25 05:32:26 +0000";
layers = (
{
layerId = "51D8E656-CCF3-4A73-A171-84F1BD8DE29C";
name = "Regular Italic";
paths = (
{
closed = 1;
nodes = (
"468 -10 OFFCURVE",
"572 77 OFFCURVE",
"606 239 CURVE SMOOTH",
"692 644 LINE",
"584 644 LINE",
"499 243 LINE SMOOTH",
"475 130 OFFCURVE",
"410 82 OFFCURVE",
"295 82 CURVE SMOOTH",
"163 82 OFFCURVE",
"134 131 OFFCURVE",
"158 243 CURVE SMOOTH",
"243 644 LINE",
"134 644 LINE",
"48 239 LINE SMOOTH",
"16 90 OFFCURVE",
"104 -10 OFFCURVE",
"275 -10 CURVE SMOOTH"
);
},
{
closed = 1;
nodes = (
"366 688 LINE",
"384 772 LINE",
"295 772 LINE",
"277 688 LINE"
);
},
{
closed = 1;
nodes = (
"564 688 LINE",
"582 772 LINE",
"493 772 LINE",
"475 688 LINE"
);
},
{
closed = 1;
nodes = (
"482 786 LINE",
"449 913 LINE",
"365 913 LINE",
"405 786 LINE"
);
}
);
width = 675;
}
);
leftKerningGroup = U;
note = Udieresisgrave;
rightKerningGroup = U;
unicode = 01DB;
},
{
glyphname = Udieresismacron;
lastChange = "2015-11-25 05:43:24 +0000";
layers = (
{
layerId = "51D8E656-CCF3-4A73-A171-84F1BD8DE29C";
name = "Regular Italic";
paths = (
{
closed = 1;
nodes = (
"468 -10 OFFCURVE",
"572 77 OFFCURVE",
"606 239 CURVE SMOOTH",
"692 644 LINE",
"584 644 LINE",
"499 243 LINE SMOOTH",
"475 130 OFFCURVE",
"410 82 OFFCURVE",
"295 82 CURVE SMOOTH",
"163 82 OFFCURVE",
"134 131 OFFCURVE",
"158 243 CURVE SMOOTH",
"243 644 LINE",
"134 644 LINE",
"48 239 LINE SMOOTH",
"16 90 OFFCURVE",
"104 -10 OFFCURVE",
"275 -10 CURVE SMOOTH"
);
},
{
closed = 1;
nodes = (
"378 693 LINE",
"397 779 LINE",
"306 779 LINE",
"287 693 LINE"
);
},
{
closed = 1;
nodes = (
"564 693 LINE",
"583 779 LINE",
"491 779 LINE",
"472 693 LINE"
);
},
{
closed = 1;
nodes = (
"604 831 LINE",
"619 902 LINE",
"322 902 LINE",
"307 831 LINE"
);
}
);
width = 675;
}
);
leftKerningGroup = U;
note = Udieresismacron;
rightKerningGroup = U;
unicode = 01D5;
},
{
glyphname = Udotbelow;
lastChange = "2015-11-25 05:32:27 +0000";
layers = (
{
layerId = "51D8E656-CCF3-4A73-A171-84F1BD8DE29C";
name = "Regular Italic";
paths = (
{
closed = 1;
nodes = (
"468 -10 OFFCURVE",
"572 77 OFFCURVE",
"606 239 CURVE SMOOTH",
"692 644 LINE",
"584 644 LINE",
"499 243 LINE SMOOTH",
"475 130 OFFCURVE",
"410 82 OFFCURVE",
"295 82 CURVE SMOOTH",
"163 82 OFFCURVE",
"134 131 OFFCURVE",
"158 243 CURVE SMOOTH",
"243 644 LINE",
"134 644 LINE",
"48 239 LINE SMOOTH",
"16 90 OFFCURVE",
"104 -10 OFFCURVE",
"275 -10 CURVE SMOOTH"
);
},
{
closed = 1;
nodes = (
"288 -173 LINE",
"306 -85 LINE",
"212 -85 LINE",
"194 -173 LINE"
);
}
);
width = 675;
}
);
leftKerningGroup = U;
note = Udotbelow;
rightKerningGroup = U;
unicode = 1EE4;
},
{
glyphname = Ugrave;
lastChange = "2015-11-25 05:32:28 +0000";
layers = (
{
layerId = "51D8E656-CCF3-4A73-A171-84F1BD8DE29C";
name = "Regular Italic";
paths = (
{
closed = 1;
nodes = (
"468 -10 OFFCURVE",
"572 77 OFFCURVE",
"606 239 CURVE SMOOTH",
"692 644 LINE",
"584 644 LINE",
"499 243 LINE SMOOTH",
"475 130 OFFCURVE",
"410 82 OFFCURVE",
"295 82 CURVE SMOOTH",
"163 82 OFFCURVE",
"134 131 OFFCURVE",
"158 243 CURVE SMOOTH",
"243 644 LINE",
"134 644 LINE",
"48 239 LINE SMOOTH",
"16 90 OFFCURVE",
"104 -10 OFFCURVE",
"275 -10 CURVE SMOOTH"
);
},
{
closed = 1;
nodes = (
"481 688 LINE",
"443 865 LINE",
"348 865 LINE",
"393 688 LINE"
);
}
);
width = 675;
}
);
leftKerningGroup = U;
note = Ugrave;
rightKerningGroup = U;
unicode = 00D9;
},
{
glyphname = Uhookabove;
lastChange = "2015-11-25 05:32:26 +0000";
layers = (
{
layerId = "51D8E656-CCF3-4A73-A171-84F1BD8DE29C";
name = "Regular Italic";
paths = (
{
closed = 1;
nodes = (
"468 -10 OFFCURVE",
"572 77 OFFCURVE",
"606 239 CURVE SMOOTH",
"692 644 LINE",
"584 644 LINE",
"499 243 LINE SMOOTH",
"475 130 OFFCURVE",
"410 82 OFFCURVE",
"295 82 CURVE SMOOTH",
"163 82 OFFCURVE",
"134 131 OFFCURVE",
"158 243 CURVE SMOOTH",
"243 644 LINE",
"134 644 LINE",
"48 239 LINE SMOOTH",
"16 90 OFFCURVE",
"104 -10 OFFCURVE",
"275 -10 CURVE SMOOTH"
);
},
{
closed = 1;
nodes = (
"463 687 LINE",
"473 734 LINE",
"541 744 OFFCURVE",
"570 773 OFFCURVE",
"581 828 CURVE SMOOTH",
"594 885 OFFCURVE",
"557 921 OFFCURVE",
"475 921 CURVE SMOOTH",
"441 921 OFFCURVE",
"403 916 OFFCURVE",
"379 908 CURVE",
"367 849 LINE",
"385 856 OFFCURVE",
"413 861 OFFCURVE",
"433 861 CURVE SMOOTH",
"481 861 OFFCURVE",
"505 849 OFFCURVE",
"499 819 CURVE SMOOTH",
"492 786 OFFCURVE",
"473 773 OFFCURVE",
"396 769 CURVE",
"378 687 LINE"
);
}
);
width = 675;
}
);
leftKerningGroup = U;
note = Uhookabove;
rightKerningGroup = U;
unicode = 1EE6;
},
{
glyphname = Uhorn;
lastChange = "2015-11-25 05:32:28 +0000";
layers = (
{
layerId = "51D8E656-CCF3-4A73-A171-84F1BD8DE29C";
name = "Regular Italic";
paths = (
{
closed = 1;
nodes = (
"451 -10 OFFCURVE",
"572 77 OFFCURVE",
"606 239 CURVE SMOOTH",
"661 497 LINE",
"786 499 OFFCURVE",
"852 545 OFFCURVE",
"883 688 CURVE",
"799 688 LINE",
"781 603 OFFCURVE",
"751 576 OFFCURVE",
"678 574 CURVE",
"692 644 LINE",
"584 644 LINE",
"499 243 LINE SMOOTH",
"476 135 OFFCURVE",
"403 82 OFFCURVE",
"295 82 CURVE SMOOTH",
"186 82 OFFCURVE",
"135 135 OFFCURVE",
"158 243 CURVE SMOOTH",
"243 644 LINE",
"134 644 LINE",
"48 239 LINE SMOOTH",
"14 77 OFFCURVE",
"98 -10 OFFCURVE",
"275 -10 CURVE SMOOTH"
);
}
);
width = 821;
}
);
leftKerningGroup = U;
note = Uhorn;
rightKerningGroup = U;
unicode = 01AF;
},
{
glyphname = Uhornacute;
lastChange = "2015-11-25 05:32:28 +0000";
layers = (
{
layerId = "51D8E656-CCF3-4A73-A171-84F1BD8DE29C";
name = "Regular Italic";
paths = (
{
closed = 1;
nodes = (
"451 -10 OFFCURVE",
"572 77 OFFCURVE",
"606 239 CURVE SMOOTH",
"661 497 LINE",
"786 499 OFFCURVE",
"852 545 OFFCURVE",
"883 688 CURVE",
"799 688 LINE",
"781 603 OFFCURVE",
"751 576 OFFCURVE",
"678 574 CURVE",
"692 644 LINE",
"584 644 LINE",
"499 243 LINE SMOOTH",
"476 135 OFFCURVE",
"403 82 OFFCURVE",
"295 82 CURVE SMOOTH",
"186 82 OFFCURVE",
"135 135 OFFCURVE",
"158 243 CURVE SMOOTH",
"243 644 LINE",
"134 644 LINE",
"48 239 LINE SMOOTH",
"14 77 OFFCURVE",
"98 -10 OFFCURVE",
"275 -10 CURVE SMOOTH"
);
},
{
closed = 1;
nodes = (
"474 688 LINE",
"596 865 LINE",
"500 865 LINE",
"387 688 LINE"
);
}
);
width = 821;
}
);
leftKerningGroup = U;
note = Uhornacute;
rightKerningGroup = U;
unicode = 1EE8;
},
{
glyphname = Uhorndotbelow;
lastChange = "2015-11-25 05:32:25 +0000";
layers = (
{
layerId = "51D8E656-CCF3-4A73-A171-84F1BD8DE29C";
name = "Regular Italic";
paths = (
{
closed = 1;
nodes = (
"451 -10 OFFCURVE",
"572 77 OFFCURVE",
"606 239 CURVE SMOOTH",
"661 497 LINE",
"786 499 OFFCURVE",
"852 545 OFFCURVE",
"883 688 CURVE",
"799 688 LINE",
"781 603 OFFCURVE",
"751 576 OFFCURVE",
"678 574 CURVE",
"692 644 LINE",
"584 644 LINE",
"499 243 LINE SMOOTH",
"476 135 OFFCURVE",
"403 82 OFFCURVE",
"295 82 CURVE SMOOTH",
"186 82 OFFCURVE",
"135 135 OFFCURVE",
"158 243 CURVE SMOOTH",
"243 644 LINE",
"134 644 LINE",
"48 239 LINE SMOOTH",
"14 77 OFFCURVE",
"98 -10 OFFCURVE",
"275 -10 CURVE SMOOTH"
);
},
{
closed = 1;
nodes = (
"286 -173 LINE",
"304 -85 LINE",
"210 -85 LINE",
"192 -173 LINE"
);
}
);
width = 821;
}
);
leftKerningGroup = U;
note = Uhorndotbelow;
rightKerningGroup = U;
unicode = 1EF0;
},
{
glyphname = Uhorngrave;
lastChange = "2015-11-25 05:32:28 +0000";
layers = (
{
layerId = "51D8E656-CCF3-4A73-A171-84F1BD8DE29C";
name = "Regular Italic";
paths = (
{
closed = 1;
nodes = (
"451 -10 OFFCURVE",
"572 77 OFFCURVE",
"606 239 CURVE SMOOTH",
"661 497 LINE",
"786 499 OFFCURVE",
"852 545 OFFCURVE",
"883 688 CURVE",
"799 688 LINE",
"781 603 OFFCURVE",
"751 576 OFFCURVE",
"678 574 CURVE",
"692 644 LINE",
"584 644 LINE",
"499 243 LINE SMOOTH",
"476 135 OFFCURVE",
"403 82 OFFCURVE",
"295 82 CURVE SMOOTH",
"186 82 OFFCURVE",
"135 135 OFFCURVE",
"158 243 CURVE SMOOTH",
"243 644 LINE",
"134 644 LINE",
"48 239 LINE SMOOTH",
"14 77 OFFCURVE",
"98 -10 OFFCURVE",
"275 -10 CURVE SMOOTH"
);
},
{
closed = 1;
nodes = (
"477 688 LINE",
"439 865 LINE",
"344 865 LINE",
"389 688 LINE"
);
}
);
width = 821;
}
);
leftKerningGroup = U;
note = Uhorngrave;
rightKerningGroup = U;
unicode = 1EEA;
},
{
glyphname = Uhornhookabove;
lastChange = "2015-11-25 05:32:27 +0000";
layers = (
{
layerId = "51D8E656-CCF3-4A73-A171-84F1BD8DE29C";
name = "Regular Italic";
paths = (
{
closed = 1;
nodes = (
"451 -10 OFFCURVE",
"572 77 OFFCURVE",
"606 239 CURVE SMOOTH",
"661 497 LINE",
"786 499 OFFCURVE",
"852 545 OFFCURVE",
"883 688 CURVE",
"799 688 LINE",
"781 603 OFFCURVE",
"751 576 OFFCURVE",
"678 574 CURVE",
"692 644 LINE",
"584 644 LINE",
"499 243 LINE SMOOTH",
"476 135 OFFCURVE",
"403 82 OFFCURVE",
"295 82 CURVE SMOOTH",
"186 82 OFFCURVE",
"135 135 OFFCURVE",
"158 243 CURVE SMOOTH",
"243 644 LINE",
"134 644 LINE",
"48 239 LINE SMOOTH",
"14 77 OFFCURVE",
"98 -10 OFFCURVE",
"275 -10 CURVE SMOOTH"
);
},
{
closed = 1;
nodes = (
"471 687 LINE",
"481 734 LINE",
"549 744 OFFCURVE",
"578 773 OFFCURVE",
"589 828 CURVE SMOOTH",
"602 885 OFFCURVE",
"565 921 OFFCURVE",
"483 921 CURVE SMOOTH",
"449 921 OFFCURVE",
"411 916 OFFCURVE",
"387 908 CURVE",
"375 849 LINE",
"393 856 OFFCURVE",
"421 861 OFFCURVE",
"441 861 CURVE SMOOTH",
"489 861 OFFCURVE",
"513 849 OFFCURVE",
"507 819 CURVE SMOOTH",
"500 786 OFFCURVE",
"481 773 OFFCURVE",
"404 769 CURVE",
"386 687 LINE"
);
}
);
width = 821;
}
);
leftKerningGroup = U;
note = Uhornhookabove;
rightKerningGroup = U;
unicode = 1EEC;
},
{
glyphname = Uhorntilde;
lastChange = "2015-11-25 05:32:26 +0000";
layers = (
{
layerId = "51D8E656-CCF3-4A73-A171-84F1BD8DE29C";
name = "Regular Italic";
paths = (
{
closed = 1;
nodes = (
"451 -10 OFFCURVE",
"572 77 OFFCURVE",
"606 239 CURVE SMOOTH",
"661 497 LINE",
"786 499 OFFCURVE",
"852 545 OFFCURVE",
"883 688 CURVE",
"799 688 LINE",
"781 603 OFFCURVE",
"751 576 OFFCURVE",
"678 574 CURVE",
"692 644 LINE",
"584 644 LINE",
"499 243 LINE SMOOTH",
"476 135 OFFCURVE",
"403 82 OFFCURVE",
"295 82 CURVE SMOOTH",
"186 82 OFFCURVE",
"135 135 OFFCURVE",
"158 243 CURVE SMOOTH",
"243 644 LINE",
"134 644 LINE",
"48 239 LINE SMOOTH",
"14 77 OFFCURVE",
"98 -10 OFFCURVE",
"275 -10 CURVE SMOOTH"
);
},
{
closed = 1;
nodes = (
"542 701 OFFCURVE",
"575 714 OFFCURVE",
"592 732 CURVE",
"609 812 LINE",
"586 788 OFFCURVE",
"557 775 OFFCURVE",
"521 775 CURVE SMOOTH",
"468 775 OFFCURVE",
"434 814 OFFCURVE",
"376 814 CURVE SMOOTH",
"343 814 OFFCURVE",
"306 802 OFFCURVE",
"285 784 CURVE",
"268 704 LINE",
"297 730 OFFCURVE",
"328 740 OFFCURVE",
"363 740 CURVE SMOOTH",
"409 740 OFFCURVE",
"451 701 OFFCURVE",
"506 701 CURVE SMOOTH"
);
}
);
width = 821;
}
);
leftKerningGroup = U;
note = Uhorntilde;
rightKerningGroup = U;
unicode = 1EEE;
},
{
glyphname = Uhungarumlaut;
lastChange = "2015-11-25 05:32:25 +0000";
layers = (
{
layerId = "51D8E656-CCF3-4A73-A171-84F1BD8DE29C";
name = "Regular Italic";
paths = (
{
closed = 1;
nodes = (
"468 -10 OFFCURVE",
"572 77 OFFCURVE",
"606 239 CURVE SMOOTH",
"692 644 LINE",
"584 644 LINE",
"499 243 LINE SMOOTH",
"475 130 OFFCURVE",
"410 82 OFFCURVE",
"295 82 CURVE SMOOTH",
"163 82 OFFCURVE",
"134 131 OFFCURVE",
"158 243 CURVE SMOOTH",
"243 644 LINE",
"134 644 LINE",
"48 239 LINE SMOOTH",
"16 90 OFFCURVE",
"104 -10 OFFCURVE",
"275 -10 CURVE SMOOTH"
);
},
{
closed = 1;
nodes = (
"328 687 LINE",
"448 851 LINE",
"350 851 LINE",
"240 687 LINE"
);
},
{
closed = 1;
nodes = (
"544 687 LINE",
"665 851 LINE",
"566 851 LINE",
"456 687 LINE"
);
}
);
width = 675;
}
);
leftKerningGroup = U;
note = Uhungarumlaut;
rightKerningGroup = U;
unicode = 0170;
},
{
glyphname = Umacron;
lastChange = "2015-11-25 05:32:25 +0000";
layers = (
{
layerId = "51D8E656-CCF3-4A73-A171-84F1BD8DE29C";
name = "Regular Italic";
paths = (
{
closed = 1;
nodes = (
"468 -10 OFFCURVE",
"572 77 OFFCURVE",
"606 239 CURVE SMOOTH",
"692 644 LINE",
"584 644 LINE",
"499 243 LINE SMOOTH",
"475 130 OFFCURVE",
"410 82 OFFCURVE",
"295 82 CURVE SMOOTH",
"163 82 OFFCURVE",
"134 131 OFFCURVE",
"158 243 CURVE SMOOTH",
"243 644 LINE",
"134 644 LINE",
"48 239 LINE SMOOTH",
"16 90 OFFCURVE",
"104 -10 OFFCURVE",
"275 -10 CURVE SMOOTH"
);
},
{
closed = 1;
nodes = (
"572 721 LINE",
"587 792 LINE",
"290 792 LINE",
"275 721 LINE"
);
}
);
width = 675;
}
);
leftKerningGroup = U;
note = Umacron;
rightKerningGroup = U;
unicode = 016A;
},
{
glyphname = Uogonek;
lastChange = "2015-11-25 05:32:26 +0000";
layers = (
{
layerId = "51D8E656-CCF3-4A73-A171-84F1BD8DE29C";
name = "Regular Italic";
paths = (
{
closed = 1;
nodes = (
"281 -220 OFFCURVE",
"312 -215 OFFCURVE",
"331 -207 CURVE",
"345 -141 LINE",
"331 -148 OFFCURVE",
"309 -152 OFFCURVE",
"293 -152 CURVE SMOOTH",
"263 -152 OFFCURVE",
"248 -143 OFFCURVE",
"255 -112 CURVE",
"262 -74 OFFCURVE",
"292 -38 OFFCURVE",
"337 -6 CURVE",
"490 11 OFFCURVE",
"576 95 OFFCURVE",
"606 239 CURVE SMOOTH",
"692 644 LINE",
"584 644 LINE",
"499 243 LINE SMOOTH",
"475 130 OFFCURVE",
"410 82 OFFCURVE",
"295 82 CURVE SMOOTH",
"163 82 OFFCURVE",
"134 131 OFFCURVE",
"158 243 CURVE SMOOTH",
"243 644 LINE",
"134 644 LINE",
"48 239 LINE SMOOTH",
"18 97 OFFCURVE",
"95 0 OFFCURVE",
"250 -9 CURVE",
"206 -40 OFFCURVE",
"174 -85 OFFCURVE",
"164 -131 CURVE SMOOTH",
"151 -193 OFFCURVE",
"195 -220 OFFCURVE",
"252 -220 CURVE SMOOTH"
);
}
);
width = 675;
}
);
leftKerningGroup = U;
note = Uogonek;
rightKerningGroup = U;
unicode = 0172;
},
{
glyphname = Uring;
lastChange = "2015-11-25 05:32:25 +0000";
layers = (
{
layerId = "51D8E656-CCF3-4A73-A171-84F1BD8DE29C";
name = "Regular Italic";
paths = (
{
closed = 1;
nodes = (
"468 -10 OFFCURVE",
"572 77 OFFCURVE",
"606 239 CURVE SMOOTH",
"692 644 LINE",
"584 644 LINE",
"499 243 LINE SMOOTH",
"475 130 OFFCURVE",
"410 82 OFFCURVE",
"295 82 CURVE SMOOTH",
"163 82 OFFCURVE",
"134 131 OFFCURVE",
"158 243 CURVE SMOOTH",
"243 644 LINE",
"134 644 LINE",
"48 239 LINE SMOOTH",
"16 90 OFFCURVE",
"104 -10 OFFCURVE",
"275 -10 CURVE SMOOTH"
);
},
{
closed = 1;
nodes = (
"491 687 OFFCURVE",
"544 737 OFFCURVE",
"557 800 CURVE SMOOTH",
"571 864 OFFCURVE",
"535 914 OFFCURVE",
"463 914 CURVE SMOOTH",
"387 914 OFFCURVE",
"337 864 OFFCURVE",
"323 800 CURVE SMOOTH",
"311 737 OFFCURVE",
"345 687 OFFCURVE",
"415 687 CURVE SMOOTH"
);
},
{
closed = 1;
nodes = (
"386 741 OFFCURVE",
"373 767 OFFCURVE",
"380 800 CURVE SMOOTH",
"387 833 OFFCURVE",
"417 859 OFFCURVE",
"452 859 CURVE SMOOTH",
"494 859 OFFCURVE",
"507 833 OFFCURVE",
"500 800 CURVE SMOOTH",
"493 767 OFFCURVE",
"464 741 OFFCURVE",
"427 741 CURVE SMOOTH"
);
}
);
width = 675;
}
);
leftKerningGroup = U;
note = Uring;
rightKerningGroup = U;
unicode = 016E;
},
{
glyphname = Utilde;
lastChange = "2015-11-25 05:32:25 +0000";
layers = (
{
layerId = "51D8E656-CCF3-4A73-A171-84F1BD8DE29C";
name = "Regular Italic";
paths = (
{
closed = 1;
nodes = (
"468 -10 OFFCURVE",
"572 77 OFFCURVE",
"606 239 CURVE SMOOTH",
"692 644 LINE",
"584 644 LINE",
"499 243 LINE SMOOTH",
"475 130 OFFCURVE",
"410 82 OFFCURVE",
"295 82 CURVE SMOOTH",
"163 82 OFFCURVE",
"134 131 OFFCURVE",
"158 243 CURVE SMOOTH",
"243 644 LINE",
"134 644 LINE",
"48 239 LINE SMOOTH",
"16 90 OFFCURVE",
"104 -10 OFFCURVE",
"275 -10 CURVE SMOOTH"
);
},
{
closed = 1;
nodes = (
"536 703 OFFCURVE",
"569 716 OFFCURVE",
"586 734 CURVE",
"603 814 LINE",
"580 790 OFFCURVE",
"551 777 OFFCURVE",
"515 777 CURVE SMOOTH",
"462 777 OFFCURVE",
"428 816 OFFCURVE",
"370 816 CURVE SMOOTH",
"337 816 OFFCURVE",
"300 804 OFFCURVE",
"279 786 CURVE",
"262 706 LINE",
"291 732 OFFCURVE",
"322 742 OFFCURVE",
"357 742 CURVE SMOOTH",
"403 742 OFFCURVE",
"445 703 OFFCURVE",
"500 703 CURVE SMOOTH"
);
}
);
width = 675;
}
);
leftKerningGroup = U;
note = Utilde;
rightKerningGroup = U;
unicode = 0168;
},
{
glyphname = V;
lastChange = "2015-11-25 05:32:26 +0000";
layers = (
{
layerId = "51D8E656-CCF3-4A73-A171-84F1BD8DE29C";
name = "Regular Italic";
paths = (
{
closed = 1;
nodes = (
"351 0 LINE",
"731 644 LINE",
"616 644 LINE",
"311 117 LINE",
"230 644 LINE",
"119 644 LINE",
"229 0 LINE"
);
}
);
width = 699;
}
);
note = V;
unicode = 0056;
},
{
glyphname = W;
lastChange = "2015-11-25 05:32:27 +0000";
layers = (
{
layerId = "51D8E656-CCF3-4A73-A171-84F1BD8DE29C";
name = "Regular Italic";
paths = (
{
closed = 1;
nodes = (
"244 0 LINE",
"476 451 LINE",
"510 0 LINE",
"615 0 LINE",
"900 644 LINE",
"794 644 LINE",
"581 161 LINE",
"546 644 LINE",
"457 644 LINE",
"441 566 LINE",
"233 161 LINE",
"226 644 LINE",
"119 644 LINE",
"133 0 LINE"
);
}
);
width = 868;
}
);
leftKerningGroup = W;
note = W;
rightKerningGroup = W;
unicode = 0057;
},
{
glyphname = Wacute;
lastChange = "2015-11-25 05:32:27 +0000";
layers = (
{
layerId = "51D8E656-CCF3-4A73-A171-84F1BD8DE29C";
name = "Regular Italic";
paths = (
{
closed = 1;
nodes = (
"244 0 LINE",
"476 451 LINE",
"510 0 LINE",
"615 0 LINE",
"900 644 LINE",
"794 644 LINE",
"581 161 LINE",
"546 644 LINE",
"457 644 LINE",
"441 566 LINE",
"233 161 LINE",
"226 644 LINE",
"119 644 LINE",
"133 0 LINE"
);
},
{
closed = 1;
nodes = (
"560 688 LINE",
"682 865 LINE",
"586 865 LINE",
"473 688 LINE"
);
}
);
width = 868;
}
);
leftKerningGroup = W;
note = Wacute;
rightKerningGroup = W;
unicode = 1E82;
},
{
glyphname = Wcircumflex;
lastChange = "2015-11-25 05:32:24 +0000";
layers = (
{
layerId = "51D8E656-CCF3-4A73-A171-84F1BD8DE29C";
name = "Regular Italic";
paths = (
{
closed = 1;
nodes = (
"244 0 LINE",
"476 451 LINE",
"510 0 LINE",
"615 0 LINE",
"900 644 LINE",
"794 644 LINE",
"581 161 LINE",
"546 644 LINE",
"457 644 LINE",
"441 566 LINE",
"233 161 LINE",
"226 644 LINE",
"119 644 LINE",
"133 0 LINE"
);
},
{
closed = 1;
nodes = (
"452 687 LINE",
"547 788 LINE",
"602 687 LINE",
"686 687 LINE",
"595 848 LINE",
"519 848 LINE",
"361 687 LINE"
);
}
);
width = 868;
}
);
leftKerningGroup = W;
note = Wcircumflex;
rightKerningGroup = W;
unicode = 0174;
},
{
glyphname = Wdieresis;
lastChange = "2015-11-25 05:32:25 +0000";
layers = (
{
layerId = "51D8E656-CCF3-4A73-A171-84F1BD8DE29C";
name = "Regular Italic";
paths = (
{
closed = 1;
nodes = (
"244 0 LINE",
"476 451 LINE",
"510 0 LINE",
"615 0 LINE",
"900 644 LINE",
"794 644 LINE",
"581 161 LINE",
"546 644 LINE",
"457 644 LINE",
"441 566 LINE",
"233 161 LINE",
"226 644 LINE",
"119 644 LINE",
"133 0 LINE"
);
},
{
closed = 1;
nodes = (
"482 710 LINE",
"501 796 LINE",
"410 796 LINE",
"391 710 LINE"
);
},
{
closed = 1;
nodes = (
"668 710 LINE",
"687 796 LINE",
"595 796 LINE",
"576 710 LINE"
);
}
);
width = 868;
}
);
leftKerningGroup = W;
note = Wdieresis;
rightKerningGroup = W;
unicode = 1E84;
},
{
glyphname = Wgrave;
lastChange = "2015-11-25 05:32:25 +0000";
layers = (
{
layerId = "51D8E656-CCF3-4A73-A171-84F1BD8DE29C";
name = "Regular Italic";
paths = (
{
closed = 1;
nodes = (
"244 0 LINE",
"476 451 LINE",
"510 0 LINE",
"615 0 LINE",
"900 644 LINE",
"794 644 LINE",
"581 161 LINE",
"546 644 LINE",
"457 644 LINE",
"441 566 LINE",
"233 161 LINE",
"226 644 LINE",
"119 644 LINE",
"133 0 LINE"
);
},
{
closed = 1;
nodes = (
"549 688 LINE",
"511 865 LINE",
"416 865 LINE",
"461 688 LINE"
);
}
);
width = 868;
}
);
leftKerningGroup = W;
note = Wgrave;
rightKerningGroup = W;
unicode = 1E80;
},
{
glyphname = X;
lastChange = "2015-11-25 05:32:28 +0000";
layers = (
{
layerId = "51D8E656-CCF3-4A73-A171-84F1BD8DE29C";
name = "Regular Italic";
paths = (
{
closed = 1;
nodes = (
"111 0 LINE",
"328 236 LINE",
"445 0 LINE",
"573 0 LINE",
"411 321 LINE",
"705 644 LINE",
"578 644 LINE",
"364 405 LINE",
"250 644 LINE",
"124 644 LINE",
"281 321 LINE",
"-17 0 LINE"
);
}
);
width = 677;
}
);
note = X;
unicode = 0058;
},
{
glyphname = Y;
lastChange = "2015-11-25 05:32:26 +0000";
layers = (
{
layerId = "51D8E656-CCF3-4A73-A171-84F1BD8DE29C";
name = "Regular Italic";
paths = (
{
closed = 1;
nodes = (
"322 0 LINE",
"372 239 LINE",
"689 644 LINE",
"572 644 LINE",
"334 331 LINE",
"228 644 LINE",
"119 644 LINE",
"264 239 LINE",
"214 0 LINE"
);
}
);
width = 656;
}
);
leftKerningGroup = Y;
note = Y;
rightKerningGroup = Y;
unicode = 0059;
},
{
glyphname = Yacute;
lastChange = "2015-11-25 05:32:28 +0000";
layers = (
{
layerId = "51D8E656-CCF3-4A73-A171-84F1BD8DE29C";
name = "Regular Italic";
paths = (
{
closed = 1;
nodes = (
"322 0 LINE",
"372 239 LINE",
"689 644 LINE",
"572 644 LINE",
"334 331 LINE",
"228 644 LINE",
"119 644 LINE",
"264 239 LINE",
"214 0 LINE"
);
},
{
closed = 1;
nodes = (
"447 688 LINE",
"569 865 LINE",
"473 865 LINE",
"360 688 LINE"
);
}
);
width = 656;
}
);
leftKerningGroup = Y;
note = Yacute;
rightKerningGroup = Y;
unicode = 00DD;
},
{
glyphname = Ycircumflex;
lastChange = "2015-11-25 05:32:28 +0000";
layers = (
{
layerId = "51D8E656-CCF3-4A73-A171-84F1BD8DE29C";
name = "Regular Italic";
paths = (
{
closed = 1;
nodes = (
"322 0 LINE",
"372 239 LINE",
"689 644 LINE",
"572 644 LINE",
"334 331 LINE",
"228 644 LINE",
"119 644 LINE",
"264 239 LINE",
"214 0 LINE"
);
},
{
closed = 1;
nodes = (
"342 687 LINE",
"437 788 LINE",
"492 687 LINE",
"576 687 LINE",
"485 848 LINE",
"409 848 LINE",
"251 687 LINE"
);
}
);
width = 656;
}
);
leftKerningGroup = Y;
note = Ycircumflex;
rightKerningGroup = Y;
unicode = 0176;
},
{
glyphname = Ydieresis;
lastChange = "2015-11-25 05:32:25 +0000";
layers = (
{
layerId = "51D8E656-CCF3-4A73-A171-84F1BD8DE29C";
name = "Regular Italic";
paths = (
{
closed = 1;
nodes = (
"322 0 LINE",
"372 239 LINE",
"689 644 LINE",
"572 644 LINE",
"334 331 LINE",
"228 644 LINE",
"119 644 LINE",
"264 239 LINE",
"214 0 LINE"
);
},
{
closed = 1;
nodes = (
"371 712 LINE",
"390 798 LINE",
"299 798 LINE",
"280 712 LINE"
);
},
{
closed = 1;
nodes = (
"557 712 LINE",
"576 798 LINE",
"484 798 LINE",
"465 712 LINE"
);
}
);
width = 656;
}
);
leftKerningGroup = Y;
note = Ydieresis;
rightKerningGroup = Y;
unicode = 0178;
},
{
glyphname = Ydotaccent;
lastChange = "2015-11-25 05:32:27 +0000";
layers = (
{
layerId = "51D8E656-CCF3-4A73-A171-84F1BD8DE29C";
name = "Regular Italic";
paths = (
{
closed = 1;
nodes = (
"322 0 LINE",
"372 239 LINE",
"689 644 LINE",
"572 644 LINE",
"334 331 LINE",
"228 644 LINE",
"119 644 LINE",
"264 239 LINE",
"214 0 LINE"
);
},
{
closed = 1;
nodes = (
"464 711 LINE",
"483 799 LINE",
"391 799 LINE",
"372 711 LINE"
);
}
);
width = 656;
}
);
leftKerningGroup = Y;
note = Ydotaccent;
rightKerningGroup = Y;
unicode = 1E8E;
},
{
glyphname = Ydotbelow;
lastChange = "2015-11-25 05:32:25 +0000";
layers = (
{
layerId = "51D8E656-CCF3-4A73-A171-84F1BD8DE29C";
name = "Regular Italic";
paths = (
{
closed = 1;
nodes = (
"322 0 LINE",
"372 239 LINE",
"689 644 LINE",
"572 644 LINE",
"334 331 LINE",
"228 644 LINE",
"119 644 LINE",
"264 239 LINE",
"214 0 LINE"
);
},
{
closed = 1;
nodes = (
"281 -161 LINE",
"299 -73 LINE",
"205 -73 LINE",
"187 -161 LINE"
);
}
);
width = 656;
}
);
leftKerningGroup = Y;
note = Ydotbelow;
rightKerningGroup = Y;
unicode = 1EF4;
},
{
glyphname = Ygrave;
lastChange = "2015-11-25 05:32:26 +0000";
layers = (
{
layerId = "51D8E656-CCF3-4A73-A171-84F1BD8DE29C";
name = "Regular Italic";
paths = (
{
closed = 1;
nodes = (
"322 0 LINE",
"372 239 LINE",
"689 644 LINE",
"572 644 LINE",
"334 331 LINE",
"228 644 LINE",
"119 644 LINE",
"264 239 LINE",
"214 0 LINE"
);
},
{
closed = 1;
nodes = (
"469 688 LINE",
"431 865 LINE",
"336 865 LINE",
"381 688 LINE"
);
}
);
width = 656;
}
);
leftKerningGroup = Y;
note = Ygrave;
rightKerningGroup = Y;
unicode = 1EF2;
},
{
glyphname = Yhookabove;
lastChange = "2015-11-25 05:32:27 +0000";
layers = (
{
layerId = "51D8E656-CCF3-4A73-A171-84F1BD8DE29C";
name = "Regular Italic";
paths = (
{
closed = 1;
nodes = (
"322 0 LINE",
"372 239 LINE",
"689 644 LINE",
"572 644 LINE",
"334 331 LINE",
"228 644 LINE",
"119 644 LINE",
"264 239 LINE",
"214 0 LINE"
);
},
{
closed = 1;
nodes = (
"449 687 LINE",
"459 734 LINE",
"527 744 OFFCURVE",
"556 773 OFFCURVE",
"567 828 CURVE SMOOTH",
"580 885 OFFCURVE",
"543 921 OFFCURVE",
"461 921 CURVE SMOOTH",
"427 921 OFFCURVE",
"389 916 OFFCURVE",
"365 908 CURVE",
"353 849 LINE",
"371 856 OFFCURVE",
"399 861 OFFCURVE",
"419 861 CURVE SMOOTH",
"467 861 OFFCURVE",
"491 849 OFFCURVE",
"485 819 CURVE SMOOTH",
"478 786 OFFCURVE",
"459 773 OFFCURVE",
"382 769 CURVE",
"364 687 LINE"
);
}
);
width = 656;
}
);
leftKerningGroup = Y;
note = Yhookabove;
rightKerningGroup = Y;
unicode = 1EF6;
},
{
glyphname = Ytilde;
lastChange = "2015-11-25 05:32:25 +0000";
layers = (
{
layerId = "51D8E656-CCF3-4A73-A171-84F1BD8DE29C";
name = "Regular Italic";
paths = (
{
closed = 1;
nodes = (
"322 0 LINE",
"372 239 LINE",
"689 644 LINE",
"572 644 LINE",
"334 331 LINE",
"228 644 LINE",
"119 644 LINE",
"264 239 LINE",
"214 0 LINE"
);
},
{
closed = 1;
nodes = (
"533 703 OFFCURVE",
"566 716 OFFCURVE",
"583 734 CURVE",
"600 814 LINE",
"577 790 OFFCURVE",
"548 777 OFFCURVE",
"512 777 CURVE SMOOTH",
"459 777 OFFCURVE",
"425 816 OFFCURVE",
"367 816 CURVE SMOOTH",
"334 816 OFFCURVE",
"297 804 OFFCURVE",
"276 786 CURVE",
"259 706 LINE",
"288 732 OFFCURVE",
"319 742 OFFCURVE",
"354 742 CURVE SMOOTH",
"400 742 OFFCURVE",
"442 703 OFFCURVE",
"497 703 CURVE SMOOTH"
);
}
);
width = 656;
}
);
leftKerningGroup = Y;
note = Ytilde;
rightKerningGroup = Y;
unicode = 1EF8;
},
{
glyphname = Z;
lastChange = "2015-11-25 05:32:27 +0000";
layers = (
{
layerId = "51D8E656-CCF3-4A73-A171-84F1BD8DE29C";
name = "Regular Italic";
paths = (
{
closed = 1;
nodes = (
"474 0 LINE",
"491 84 LINE",
"143 84 LINE",
"591 577 LINE",
"605 644 LINE",
"136 644 LINE",
"117 555 LINE",
"446 555 LINE",
"-5 58 LINE",
"-17 0 LINE"
);
}
);
width = 575;
}
);
leftKerningGroup = Z;
note = Z;
rightKerningGroup = Z;
unicode = 005A;
},
{
glyphname = Zacute;
lastChange = "2015-11-25 05:32:25 +0000";
layers = (
{
layerId = "51D8E656-CCF3-4A73-A171-84F1BD8DE29C";
name = "Regular Italic";
paths = (
{
closed = 1;
nodes = (
"474 0 LINE",
"491 84 LINE",
"143 84 LINE",
"591 577 LINE",
"605 644 LINE",
"136 644 LINE",
"117 555 LINE",
"446 555 LINE",
"-5 58 LINE",
"-17 0 LINE"
);
},
{
closed = 1;
nodes = (
"423 688 LINE",
"545 865 LINE",
"449 865 LINE",
"336 688 LINE"
);
}
);
width = 575;
}
);
leftKerningGroup = Z;
note = Zacute;
rightKerningGroup = Z;
unicode = 0179;
},
{
glyphname = Zcaron;
lastChange = "2015-11-25 05:32:27 +0000";
layers = (
{
layerId = "51D8E656-CCF3-4A73-A171-84F1BD8DE29C";
name = "Regular Italic";
paths = (
{
closed = 1;
nodes = (
"474 0 LINE",
"491 84 LINE",
"143 84 LINE",
"591 577 LINE",
"605 644 LINE",
"136 644 LINE",
"117 555 LINE",
"446 555 LINE",
"-5 58 LINE",
"-17 0 LINE"
);
},
{
closed = 1;
nodes = (
"430 687 LINE",
"589 848 LINE",
"499 848 LINE",
"402 747 LINE",
"349 848 LINE",
"264 848 LINE",
"354 687 LINE"
);
}
);
width = 575;
}
);
leftKerningGroup = Z;
note = Zcaron;
rightKerningGroup = Z;
unicode = 017D;
},
{
glyphname = Zdotaccent;
lastChange = "2015-11-25 05:32:26 +0000";
layers = (
{
layerId = "51D8E656-CCF3-4A73-A171-84F1BD8DE29C";
name = "Regular Italic";
paths = (
{
closed = 1;
nodes = (
"474 0 LINE",
"491 84 LINE",
"143 84 LINE",
"591 577 LINE",
"605 644 LINE",
"136 644 LINE",
"117 555 LINE",
"446 555 LINE",
"-5 58 LINE",
"-17 0 LINE"
);
},
{
closed = 1;
nodes = (
"435 711 LINE",
"454 799 LINE",
"362 799 LINE",
"343 711 LINE"
);
}
);
width = 575;
}
);
leftKerningGroup = Z;
note = Zdotaccent;
rightKerningGroup = Z;
unicode = 017B;
},
{
glyphname = Zdotbelow;
lastChange = "2015-11-25 05:32:27 +0000";
layers = (
{
layerId = "51D8E656-CCF3-4A73-A171-84F1BD8DE29C";
name = "Regular Italic";
paths = (
{
closed = 1;
nodes = (
"474 0 LINE",
"491 84 LINE",
"143 84 LINE",
"591 577 LINE",
"605 644 LINE",
"136 644 LINE",
"117 555 LINE",
"446 555 LINE",
"-5 58 LINE",
"-17 0 LINE"
);
},
{
closed = 1;
nodes = (
"254 -173 LINE",
"272 -85 LINE",
"178 -85 LINE",
"160 -173 LINE"
);
}
);
width = 575;
}
);
leftKerningGroup = Z;
note = Zdotbelow;
rightKerningGroup = Z;
unicode = 1E92;
},
{
glyphname = a;
lastChange = "2015-11-25 05:32:28 +0000";
layers = (
{
layerId = "51D8E656-CCF3-4A73-A171-84F1BD8DE29C";
name = "Regular Italic";
paths = (
{
closed = 1;
nodes = (
"265 -10 OFFCURVE",
"317 8 OFFCURVE",
"368 47 CURVE",
"366 0 LINE",
"459 0 LINE",
"559 474 LINE",
"450 474 LINE",
"443 441 LINE",
"408 472 OFFCURVE",
"371 484 OFFCURVE",
"314 484 CURVE SMOOTH",
"183 484 OFFCURVE",
"62 384 OFFCURVE",
"29 218 CURVE SMOOTH",
"-4 53 OFFCURVE",
"67 -10 OFFCURVE",
"196 -10 CURVE SMOOTH"
);
},
{
closed = 1;
nodes = (
"139 72 OFFCURVE",
"115 105 OFFCURVE",
"139 217 CURVE SMOOTH",
"164 335 OFFCURVE",
"230 401 OFFCURVE",
"326 401 CURVE SMOOTH",
"374 401 OFFCURVE",
"401 385 OFFCURVE",
"425 357 CURVE",
"375 122 LINE",
"335 88 OFFCURVE",
"293 72 OFFCURVE",
"243 72 CURVE SMOOTH"
);
}
);
width = 583;
}
);
leftKerningGroup = a;
note = a;
rightKerningGroup = a;
unicode = 0061;
},
{
glyphname = aacute;
lastChange = "2015-11-25 05:55:34 +0000";
layers = (
{
layerId = "51D8E656-CCF3-4A73-A171-84F1BD8DE29C";
name = "Regular Italic";
paths = (
{
closed = 1;
nodes = (
"265 -10 OFFCURVE",
"317 8 OFFCURVE",
"368 47 CURVE",
"366 0 LINE",
"459 0 LINE",
"559 474 LINE",
"450 474 LINE",
"443 441 LINE",
"408 472 OFFCURVE",
"371 484 OFFCURVE",
"314 484 CURVE SMOOTH",
"183 484 OFFCURVE",
"62 384 OFFCURVE",
"29 218 CURVE SMOOTH",
"-4 53 OFFCURVE",
"67 -10 OFFCURVE",
"196 -10 CURVE SMOOTH"
);
},
{
closed = 1;
nodes = (
"139 72 OFFCURVE",
"115 105 OFFCURVE",
"139 217 CURVE SMOOTH",
"164 335 OFFCURVE",
"230 401 OFFCURVE",
"326 401 CURVE SMOOTH",
"374 401 OFFCURVE",
"401 385 OFFCURVE",
"425 357 CURVE",
"375 122 LINE",
"335 88 OFFCURVE",
"293 72 OFFCURVE",
"243 72 CURVE SMOOTH"
);
},
{
closed = 1;
nodes = (
"374 522 LINE",
"496 699 LINE",
"400 699 LINE",
"287 522 LINE"
);
}
);
width = 583;
}
);
leftKerningGroup = a;
note = aacute;
rightKerningGroup = a;
unicode = 00E1;
},
{
glyphname = abreve;
lastChange = "2015-11-25 05:55:34 +0000";
layers = (
{
layerId = "51D8E656-CCF3-4A73-A171-84F1BD8DE29C";
name = "Regular Italic";
paths = (
{
closed = 1;
nodes = (
"265 -10 OFFCURVE",
"317 8 OFFCURVE",
"368 47 CURVE",
"366 0 LINE",
"459 0 LINE",
"559 474 LINE",
"450 474 LINE",
"443 441 LINE",
"408 472 OFFCURVE",
"371 484 OFFCURVE",
"314 484 CURVE SMOOTH",
"183 484 OFFCURVE",
"62 384 OFFCURVE",
"29 218 CURVE SMOOTH",
"-4 53 OFFCURVE",
"67 -10 OFFCURVE",
"196 -10 CURVE SMOOTH"
);
},
{
closed = 1;
nodes = (
"139 72 OFFCURVE",
"115 105 OFFCURVE",
"139 217 CURVE SMOOTH",
"164 335 OFFCURVE",
"230 401 OFFCURVE",
"326 401 CURVE SMOOTH",
"374 401 OFFCURVE",
"401 385 OFFCURVE",
"425 357 CURVE",
"375 122 LINE",
"335 88 OFFCURVE",
"293 72 OFFCURVE",
"243 72 CURVE SMOOTH"
);
},
{
closed = 1;
nodes = (
"430 522 OFFCURVE",
"497 577 OFFCURVE",
"515 663 CURVE",
"438 663 LINE",
"428 617 OFFCURVE",
"397 587 OFFCURVE",
"352 587 CURVE SMOOTH",
"301 587 OFFCURVE",
"291 617 OFFCURVE",
"301 663 CURVE",
"231 663 LINE",
"213 577 OFFCURVE",
"253 522 OFFCURVE",
"341 522 CURVE SMOOTH"
);
}
);
width = 583;
}
);
leftKerningGroup = a;
note = abreve;
rightKerningGroup = a;
unicode = 0103;
},
{
glyphname = abreveacute;
lastChange = "2015-11-25 05:55:34 +0000";
layers = (
{
layerId = "51D8E656-CCF3-4A73-A171-84F1BD8DE29C";
name = "Regular Italic";
paths = (
{
closed = 1;
nodes = (
"265 -10 OFFCURVE",
"317 8 OFFCURVE",
"368 47 CURVE",
"366 0 LINE",
"459 0 LINE",
"559 474 LINE",
"450 474 LINE",
"443 441 LINE",
"408 472 OFFCURVE",
"371 484 OFFCURVE",
"314 484 CURVE SMOOTH",
"183 484 OFFCURVE",
"62 384 OFFCURVE",
"29 218 CURVE SMOOTH",
"-4 53 OFFCURVE",
"67 -10 OFFCURVE",
"196 -10 CURVE SMOOTH"
);
},
{
closed = 1;
nodes = (
"139 72 OFFCURVE",
"115 105 OFFCURVE",
"139 217 CURVE SMOOTH",
"164 335 OFFCURVE",
"230 401 OFFCURVE",
"326 401 CURVE SMOOTH",
"374 401 OFFCURVE",
"401 385 OFFCURVE",
"425 357 CURVE",
"375 122 LINE",
"335 88 OFFCURVE",
"293 72 OFFCURVE",
"243 72 CURVE SMOOTH"
);
},
{
closed = 1;
nodes = (
"440 522 OFFCURVE",
"510 563 OFFCURVE",
"532 670 CURVE",
"464 670 LINE",
"452 611 OFFCURVE",
"411 581 OFFCURVE",
"356 581 CURVE SMOOTH",
"291 581 OFFCURVE",
"272 611 OFFCURVE",
"284 670 CURVE",
"220 670 LINE",
"198 563 OFFCURVE",
"258 522 OFFCURVE",
"345 522 CURVE SMOOTH"
);
},
{
closed = 1;
nodes = (
"400 639 LINE",
"499 772 LINE",
"415 772 LINE",
"323 639 LINE"
);
}
);
width = 583;
}
);
leftKerningGroup = a;
note = abreveacute;
rightKerningGroup = a;
unicode = 1EAF;
},
{
glyphname = abrevedotbelow;
lastChange = "2015-11-25 05:55:34 +0000";
layers = (
{
layerId = "51D8E656-CCF3-4A73-A171-84F1BD8DE29C";
name = "Regular Italic";
paths = (
{
closed = 1;
nodes = (
"265 -10 OFFCURVE",
"317 8 OFFCURVE",
"368 47 CURVE",
"366 0 LINE",
"459 0 LINE",
"559 474 LINE",
"450 474 LINE",
"443 441 LINE",
"408 472 OFFCURVE",
"371 484 OFFCURVE",
"314 484 CURVE SMOOTH",
"183 484 OFFCURVE",
"62 384 OFFCURVE",
"29 218 CURVE SMOOTH",
"-4 53 OFFCURVE",
"67 -10 OFFCURVE",
"196 -10 CURVE SMOOTH"
);
},
{
closed = 1;
nodes = (
"139 72 OFFCURVE",
"115 105 OFFCURVE",
"139 217 CURVE SMOOTH",
"164 335 OFFCURVE",
"230 401 OFFCURVE",
"326 401 CURVE SMOOTH",
"374 401 OFFCURVE",
"401 385 OFFCURVE",
"425 357 CURVE",
"375 122 LINE",
"335 88 OFFCURVE",
"293 72 OFFCURVE",
"243 72 CURVE SMOOTH"
);
},
{
closed = 1;
nodes = (
"241 -173 LINE",
"259 -85 LINE",
"165 -85 LINE",
"147 -173 LINE"
);
},
{
closed = 1;
nodes = (
"428 522 OFFCURVE",
"495 577 OFFCURVE",
"513 663 CURVE",
"436 663 LINE",
"426 617 OFFCURVE",
"395 587 OFFCURVE",
"350 587 CURVE SMOOTH",
"299 587 OFFCURVE",
"289 617 OFFCURVE",
"299 663 CURVE",
"229 663 LINE",
"211 577 OFFCURVE",
"251 522 OFFCURVE",
"339 522 CURVE SMOOTH"
);
}
);
width = 583;
}
);
leftKerningGroup = a;
note = abrevedotbelow;
rightKerningGroup = a;
unicode = 1EB7;
},
{
glyphname = abrevegrave;
lastChange = "2015-11-25 05:55:34 +0000";
layers = (
{
layerId = "51D8E656-CCF3-4A73-A171-84F1BD8DE29C";
name = "Regular Italic";
paths = (
{
closed = 1;
nodes = (
"265 -10 OFFCURVE",
"317 8 OFFCURVE",
"368 47 CURVE",
"366 0 LINE",
"459 0 LINE",
"559 474 LINE",
"450 474 LINE",
"443 441 LINE",
"408 472 OFFCURVE",
"371 484 OFFCURVE",
"314 484 CURVE SMOOTH",
"183 484 OFFCURVE",
"62 384 OFFCURVE",
"29 218 CURVE SMOOTH",
"-4 53 OFFCURVE",
"67 -10 OFFCURVE",
"196 -10 CURVE SMOOTH"
);
},
{
closed = 1;
nodes = (
"139 72 OFFCURVE",
"115 105 OFFCURVE",
"139 217 CURVE SMOOTH",
"164 335 OFFCURVE",
"230 401 OFFCURVE",
"326 401 CURVE SMOOTH",
"374 401 OFFCURVE",
"401 385 OFFCURVE",
"425 357 CURVE",
"375 122 LINE",
"335 88 OFFCURVE",
"293 72 OFFCURVE",
"243 72 CURVE SMOOTH"
);
},
{
closed = 1;
nodes = (
"436 522 OFFCURVE",
"506 563 OFFCURVE",
"528 670 CURVE",
"460 670 LINE",
"448 611 OFFCURVE",
"407 581 OFFCURVE",
"352 581 CURVE SMOOTH",
"287 581 OFFCURVE",
"268 611 OFFCURVE",
"280 670 CURVE",
"216 670 LINE",
"194 563 OFFCURVE",
"254 522 OFFCURVE",
"341 522 CURVE SMOOTH"
);
},
{
closed = 1;
nodes = (
"413 639 LINE",
"377 772 LINE",
"293 772 LINE",
"336 639 LINE"
);
}
);
width = 583;
}
);
leftKerningGroup = a;
note = abrevegrave;
rightKerningGroup = a;
unicode = 1EB1;
},
{
glyphname = abrevehookabove;
lastChange = "2015-11-25 05:55:34 +0000";
layers = (
{
layerId = "51D8E656-CCF3-4A73-A171-84F1BD8DE29C";
name = "Regular Italic";
paths = (
{
closed = 1;
nodes = (
"265 -10 OFFCURVE",
"317 8 OFFCURVE",
"368 47 CURVE",
"366 0 LINE",
"459 0 LINE",
"559 474 LINE",
"450 474 LINE",
"443 441 LINE",
"408 472 OFFCURVE",
"371 484 OFFCURVE",
"314 484 CURVE SMOOTH",
"183 484 OFFCURVE",
"62 384 OFFCURVE",
"29 218 CURVE SMOOTH",
"-4 53 OFFCURVE",
"67 -10 OFFCURVE",
"196 -10 CURVE SMOOTH"
);
},
{
closed = 1;
nodes = (
"139 72 OFFCURVE",
"115 105 OFFCURVE",
"139 217 CURVE SMOOTH",
"164 335 OFFCURVE",
"230 401 OFFCURVE",
"326 401 CURVE SMOOTH",
"374 401 OFFCURVE",
"401 385 OFFCURVE",
"425 357 CURVE",
"375 122 LINE",
"335 88 OFFCURVE",
"293 72 OFFCURVE",
"243 72 CURVE SMOOTH"
);
},
{
closed = 1;
nodes = (
"438 522 OFFCURVE",
"508 563 OFFCURVE",
"530 670 CURVE",
"462 670 LINE",
"450 611 OFFCURVE",
"409 581 OFFCURVE",
"354 581 CURVE SMOOTH",
"289 581 OFFCURVE",
"270 611 OFFCURVE",
"282 670 CURVE",
"218 670 LINE",
"196 563 OFFCURVE",
"256 522 OFFCURVE",
"343 522 CURVE SMOOTH"
);
},
{
closed = 1;
nodes = (
"401 644 LINE",
"408 677 LINE",
"466 687 OFFCURVE",
"493 709 OFFCURVE",
"502 753 CURVE SMOOTH",
"512 800 OFFCURVE",
"482 830 OFFCURVE",
"419 830 CURVE SMOOTH",
"388 830 OFFCURVE",
"357 825 OFFCURVE",
"336 818 CURVE",
"325 767 LINE",
"343 774 OFFCURVE",
"362 779 OFFCURVE",
"383 779 CURVE SMOOTH",
"418 779 OFFCURVE",
"433 772 OFFCURVE",
"428 746 CURVE",
"422 720 OFFCURVE",
"402 706 OFFCURVE",
"337 703 CURVE",
"325 644 LINE"
);
}
);
width = 583;
}
);
leftKerningGroup = a;
note = abrevehookabove;
rightKerningGroup = a;
unicode = 1EB3;
},
{
glyphname = abrevetilde;
lastChange = "2015-11-25 05:55:34 +0000";
layers = (
{
layerId = "51D8E656-CCF3-4A73-A171-84F1BD8DE29C";
name = "Regular Italic";
paths = (
{
closed = 1;
nodes = (
"265 -10 OFFCURVE",
"317 8 OFFCURVE",
"368 47 CURVE",
"366 0 LINE",
"459 0 LINE",
"559 474 LINE",
"450 474 LINE",
"443 441 LINE",
"408 472 OFFCURVE",
"371 484 OFFCURVE",
"314 484 CURVE SMOOTH",
"183 484 OFFCURVE",
"62 384 OFFCURVE",
"29 218 CURVE SMOOTH",
"-4 53 OFFCURVE",
"67 -10 OFFCURVE",
"196 -10 CURVE SMOOTH"
);
},
{
closed = 1;
nodes = (
"139 72 OFFCURVE",
"115 105 OFFCURVE",
"139 217 CURVE SMOOTH",
"164 335 OFFCURVE",
"230 401 OFFCURVE",
"326 401 CURVE SMOOTH",
"374 401 OFFCURVE",
"401 385 OFFCURVE",
"425 357 CURVE",
"375 122 LINE",
"335 88 OFFCURVE",
"293 72 OFFCURVE",
"243 72 CURVE SMOOTH"
);
},
{
closed = 1;
nodes = (
"443 522 OFFCURVE",
"513 563 OFFCURVE",
"535 670 CURVE",
"467 670 LINE",
"455 611 OFFCURVE",
"414 581 OFFCURVE",
"359 581 CURVE SMOOTH",
"294 581 OFFCURVE",
"275 611 OFFCURVE",
"287 670 CURVE",
"223 670 LINE",
"201 563 OFFCURVE",
"261 522 OFFCURVE",
"348 522 CURVE SMOOTH"
);
},
{
closed = 1;
nodes = (
"496 691 OFFCURVE",
"527 703 OFFCURVE",
"544 720 CURVE",
"558 792 LINE",
"537 768 OFFCURVE",
"509 756 OFFCURVE",
"475 756 CURVE SMOOTH",
"424 756 OFFCURVE",
"392 794 OFFCURVE",
"336 794 CURVE SMOOTH",
"304 794 OFFCURVE",
"268 782 OFFCURVE",
"248 765 CURVE",
"233 694 LINE",
"260 718 OFFCURVE",
"290 728 OFFCURVE",
"323 728 CURVE SMOOTH",
"368 728 OFFCURVE",
"409 691 OFFCURVE",
"462 691 CURVE SMOOTH"
);
}
);
width = 583;
}
);
leftKerningGroup = a;
note = abrevetilde;
rightKerningGroup = a;
unicode = 1EB5;
},
{
glyphname = acaron;
lastChange = "2015-11-25 05:55:34 +0000";
layers = (
{
layerId = "51D8E656-CCF3-4A73-A171-84F1BD8DE29C";
name = "Regular Italic";
paths = (
{
closed = 1;
nodes = (
"265 -10 OFFCURVE",
"317 8 OFFCURVE",
"368 47 CURVE",
"366 0 LINE",
"459 0 LINE",
"559 474 LINE",
"450 474 LINE",
"443 441 LINE",
"408 472 OFFCURVE",
"371 484 OFFCURVE",
"314 484 CURVE SMOOTH",
"183 484 OFFCURVE",
"62 384 OFFCURVE",
"29 218 CURVE SMOOTH",
"-4 53 OFFCURVE",
"67 -10 OFFCURVE",
"196 -10 CURVE SMOOTH"
);
},
{
closed = 1;
nodes = (
"139 72 OFFCURVE",
"115 105 OFFCURVE",
"139 217 CURVE SMOOTH",
"164 335 OFFCURVE",
"230 401 OFFCURVE",
"326 401 CURVE SMOOTH",
"374 401 OFFCURVE",
"401 385 OFFCURVE",
"425 357 CURVE",
"375 122 LINE",
"335 88 OFFCURVE",
"293 72 OFFCURVE",
"243 72 CURVE SMOOTH"
);
},
{
closed = 1;
nodes = (
"371 521 LINE",
"530 682 LINE",
"440 682 LINE",
"343 581 LINE",
"290 682 LINE",
"205 682 LINE",
"295 521 LINE"
);
}
);
width = 583;
}
);
leftKerningGroup = a;
note = acaron;
rightKerningGroup = a;
unicode = 01CE;
},
{
glyphname = acircumflex;
lastChange = "2015-11-25 05:55:34 +0000";
layers = (
{
layerId = "51D8E656-CCF3-4A73-A171-84F1BD8DE29C";
name = "Regular Italic";
paths = (
{
closed = 1;
nodes = (
"265 -10 OFFCURVE",
"317 8 OFFCURVE",
"368 47 CURVE",
"366 0 LINE",
"459 0 LINE",
"559 474 LINE",
"450 474 LINE",
"443 441 LINE",
"408 472 OFFCURVE",
"371 484 OFFCURVE",
"314 484 CURVE SMOOTH",
"183 484 OFFCURVE",
"62 384 OFFCURVE",
"29 218 CURVE SMOOTH",
"-4 53 OFFCURVE",
"67 -10 OFFCURVE",
"196 -10 CURVE SMOOTH"
);
},
{
closed = 1;
nodes = (
"139 72 OFFCURVE",
"115 105 OFFCURVE",
"139 217 CURVE SMOOTH",
"164 335 OFFCURVE",
"230 401 OFFCURVE",
"326 401 CURVE SMOOTH",
"374 401 OFFCURVE",
"401 385 OFFCURVE",
"425 357 CURVE",
"375 122 LINE",
"335 88 OFFCURVE",
"293 72 OFFCURVE",
"243 72 CURVE SMOOTH"
);
},
{
closed = 1;
nodes = (
"264 521 LINE",
"359 622 LINE",
"414 521 LINE",
"498 521 LINE",
"407 682 LINE",
"331 682 LINE",
"173 521 LINE"
);
}
);
width = 583;
}
);
leftKerningGroup = a;
note = acircumflex;
rightKerningGroup = a;
unicode = 00E2;
},
{
glyphname = acircumflexacute;
lastChange = "2015-11-25 05:55:34 +0000";
layers = (
{
layerId = "51D8E656-CCF3-4A73-A171-84F1BD8DE29C";
name = "Regular Italic";
paths = (
{
closed = 1;
nodes = (
"265 -10 OFFCURVE",
"317 8 OFFCURVE",
"368 47 CURVE",
"366 0 LINE",
"459 0 LINE",
"559 474 LINE",
"450 474 LINE",
"443 441 LINE",
"408 472 OFFCURVE",
"371 484 OFFCURVE",
"314 484 CURVE SMOOTH",
"183 484 OFFCURVE",
"62 384 OFFCURVE",
"29 218 CURVE SMOOTH",
"-4 53 OFFCURVE",
"67 -10 OFFCURVE",
"196 -10 CURVE SMOOTH"
);
},
{
closed = 1;
nodes = (
"139 72 OFFCURVE",
"115 105 OFFCURVE",
"139 217 CURVE SMOOTH",
"164 335 OFFCURVE",
"230 401 OFFCURVE",
"326 401 CURVE SMOOTH",
"374 401 OFFCURVE",
"401 385 OFFCURVE",
"425 357 CURVE",
"375 122 LINE",
"335 88 OFFCURVE",
"293 72 OFFCURVE",
"243 72 CURVE SMOOTH"
);
},
{
closed = 1;
nodes = (
"270 521 LINE",
"358 603 LINE",
"412 521 LINE",
"498 521 LINE",
"406 648 LINE",
"322 648 LINE",
"176 521 LINE"
);
},
{
closed = 1;
nodes = (
"529 634 LINE",
"627 767 LINE",
"544 767 LINE",
"452 634 LINE"
);
}
);
width = 583;
}
);
leftKerningGroup = a;
note = acircumflexacute;
rightKerningGroup = a;
unicode = 1EA5;
},
{
glyphname = acircumflexdotbelow;
lastChange = "2015-11-25 05:55:34 +0000";
layers = (
{
layerId = "51D8E656-CCF3-4A73-A171-84F1BD8DE29C";
name = "Regular Italic";
paths = (
{
closed = 1;
nodes = (
"265 -10 OFFCURVE",
"317 8 OFFCURVE",
"368 47 CURVE",
"366 0 LINE",
"459 0 LINE",
"559 474 LINE",
"450 474 LINE",
"443 441 LINE",
"408 472 OFFCURVE",
"371 484 OFFCURVE",
"314 484 CURVE SMOOTH",
"183 484 OFFCURVE",
"62 384 OFFCURVE",
"29 218 CURVE SMOOTH",
"-4 53 OFFCURVE",
"67 -10 OFFCURVE",
"196 -10 CURVE SMOOTH"
);
},
{
closed = 1;
nodes = (
"139 72 OFFCURVE",
"115 105 OFFCURVE",
"139 217 CURVE SMOOTH",
"164 335 OFFCURVE",
"230 401 OFFCURVE",
"326 401 CURVE SMOOTH",
"374 401 OFFCURVE",
"401 385 OFFCURVE",
"425 357 CURVE",
"375 122 LINE",
"335 88 OFFCURVE",
"293 72 OFFCURVE",
"243 72 CURVE SMOOTH"
);
},
{
closed = 1;
nodes = (
"234 -173 LINE",
"252 -85 LINE",
"158 -85 LINE",
"140 -173 LINE"
);
},
{
closed = 1;
nodes = (
"262 521 LINE",
"357 622 LINE",
"412 521 LINE",
"496 521 LINE",
"405 682 LINE",
"329 682 LINE",
"171 521 LINE"
);
}
);
width = 583;
}
);
leftKerningGroup = a;
note = acircumflexdotbelow;
rightKerningGroup = a;
unicode = 1EAD;
},
{
glyphname = acircumflexgrave;
lastChange = "2015-11-25 05:55:34 +0000";
layers = (
{
layerId = "51D8E656-CCF3-4A73-A171-84F1BD8DE29C";
name = "Regular Italic";
paths = (
{
closed = 1;
nodes = (
"265 -10 OFFCURVE",
"317 8 OFFCURVE",
"368 47 CURVE",
"366 0 LINE",
"459 0 LINE",
"559 474 LINE",
"450 474 LINE",
"443 441 LINE",
"408 472 OFFCURVE",
"371 484 OFFCURVE",
"314 484 CURVE SMOOTH",
"183 484 OFFCURVE",
"62 384 OFFCURVE",
"29 218 CURVE SMOOTH",
"-4 53 OFFCURVE",
"67 -10 OFFCURVE",
"196 -10 CURVE SMOOTH"
);
},
{
closed = 1;
nodes = (
"139 72 OFFCURVE",
"115 105 OFFCURVE",
"139 217 CURVE SMOOTH",
"164 335 OFFCURVE",
"230 401 OFFCURVE",
"326 401 CURVE SMOOTH",
"374 401 OFFCURVE",
"401 385 OFFCURVE",
"425 357 CURVE",
"375 122 LINE",
"335 88 OFFCURVE",
"293 72 OFFCURVE",
"243 72 CURVE SMOOTH"
);
},
{
closed = 1;
nodes = (
"260 634 LINE",
"225 767 LINE",
"141 767 LINE",
"183 634 LINE"
);
},
{
closed = 1;
nodes = (
"258 521 LINE",
"347 603 LINE",
"400 521 LINE",
"486 521 LINE",
"396 648 LINE",
"311 648 LINE",
"166 521 LINE"
);
}
);
width = 583;
}
);
leftKerningGroup = a;
note = acircumflexgrave;
rightKerningGroup = a;
unicode = 1EA7;
},
{
glyphname = acircumflexhookabove;
lastChange = "2015-11-25 05:55:34 +0000";
layers = (
{
layerId = "51D8E656-CCF3-4A73-A171-84F1BD8DE29C";
name = "Regular Italic";
paths = (
{
closed = 1;
nodes = (
"265 -10 OFFCURVE",
"317 8 OFFCURVE",
"368 47 CURVE",
"366 0 LINE",
"459 0 LINE",
"559 474 LINE",
"450 474 LINE",
"443 441 LINE",
"408 472 OFFCURVE",
"371 484 OFFCURVE",
"314 484 CURVE SMOOTH",
"183 484 OFFCURVE",
"62 384 OFFCURVE",
"29 218 CURVE SMOOTH",
"-4 53 OFFCURVE",
"67 -10 OFFCURVE",
"196 -10 CURVE SMOOTH"
);
},
{
closed = 1;
nodes = (
"139 72 OFFCURVE",
"115 105 OFFCURVE",
"139 217 CURVE SMOOTH",
"164 335 OFFCURVE",
"230 401 OFFCURVE",
"326 401 CURVE SMOOTH",
"374 401 OFFCURVE",
"401 385 OFFCURVE",
"425 357 CURVE",
"375 122 LINE",
"335 88 OFFCURVE",
"293 72 OFFCURVE",
"243 72 CURVE SMOOTH"
);
},
{
closed = 1;
nodes = (
"262 520 LINE",
"351 602 LINE",
"404 520 LINE",
"490 520 LINE",
"399 647 LINE",
"314 647 LINE",
"169 520 LINE"
);
},
{
closed = 1;
nodes = (
"525 612 LINE",
"532 646 LINE",
"588 654 OFFCURVE",
"616 679 OFFCURVE",
"626 723 CURVE SMOOTH",
"636 770 OFFCURVE",
"604 801 OFFCURVE",
"539 801 CURVE SMOOTH",
"506 801 OFFCURVE",
"482 796 OFFCURVE",
"461 789 CURVE",
"449 736 LINE",
"467 743 OFFCURVE",
"486 748 OFFCURVE",
"507 748 CURVE SMOOTH",
"539 748 OFFCURVE",
"552 739 OFFCURVE",
"547 717 CURVE SMOOTH",
"542 693 OFFCURVE",
"527 681 OFFCURVE",
"463 678 CURVE",
"449 612 LINE"
);
}
);
width = 583;
}
);
leftKerningGroup = a;
note = acircumflexhookabove;
rightKerningGroup = a;
unicode = 1EA9;
},
{
glyphname = acircumflextilde;
lastChange = "2015-11-25 05:55:34 +0000";
layers = (
{
layerId = "51D8E656-CCF3-4A73-A171-84F1BD8DE29C";
name = "Regular Italic";
paths = (
{
closed = 1;
nodes = (
"265 -10 OFFCURVE",
"317 8 OFFCURVE",
"368 47 CURVE",
"366 0 LINE",
"459 0 LINE",
"559 474 LINE",
"450 474 LINE",
"443 441 LINE",
"408 472 OFFCURVE",
"371 484 OFFCURVE",
"314 484 CURVE SMOOTH",
"183 484 OFFCURVE",
"62 384 OFFCURVE",
"29 218 CURVE SMOOTH",
"-4 53 OFFCURVE",
"67 -10 OFFCURVE",
"196 -10 CURVE SMOOTH"
);
},
{
closed = 1;
nodes = (
"139 72 OFFCURVE",
"115 105 OFFCURVE",
"139 217 CURVE SMOOTH",
"164 335 OFFCURVE",
"230 401 OFFCURVE",
"326 401 CURVE SMOOTH",
"374 401 OFFCURVE",
"401 385 OFFCURVE",
"425 357 CURVE",
"375 122 LINE",
"335 88 OFFCURVE",
"293 72 OFFCURVE",
"243 72 CURVE SMOOTH"
);
},
{
closed = 1;
nodes = (
"267 521 LINE",
"356 603 LINE",
"409 521 LINE",
"495 521 LINE",
"404 648 LINE",
"319 648 LINE",
"174 521 LINE"
);
},
{
closed = 1;
nodes = (
"480 656 OFFCURVE",
"511 669 OFFCURVE",
"527 686 CURVE",
"543 757 LINE",
"521 734 OFFCURVE",
"493 722 OFFCURVE",
"459 722 CURVE SMOOTH",
"408 722 OFFCURVE",
"376 759 OFFCURVE",
"320 759 CURVE SMOOTH",
"288 759 OFFCURVE",
"252 747 OFFCURVE",
"232 730 CURVE",
"217 659 LINE",
"244 684 OFFCURVE",
"274 694 OFFCURVE",
"307 694 CURVE SMOOTH",
"352 694 OFFCURVE",
"393 656 OFFCURVE",
"446 656 CURVE SMOOTH"
);
}
);
width = 583;
}
);
leftKerningGroup = a;
note = acircumflextilde;
rightKerningGroup = a;
unicode = 1EAB;
},
{
glyphname = adieresis;
lastChange = "2015-11-25 05:55:34 +0000";
layers = (
{
layerId = "51D8E656-CCF3-4A73-A171-84F1BD8DE29C";
name = "Regular Italic";
paths = (
{
closed = 1;
nodes = (
"265 -10 OFFCURVE",
"317 8 OFFCURVE",
"368 47 CURVE",
"366 0 LINE",
"459 0 LINE",
"559 474 LINE",
"450 474 LINE",
"443 441 LINE",
"408 472 OFFCURVE",
"371 484 OFFCURVE",
"314 484 CURVE SMOOTH",
"183 484 OFFCURVE",
"62 384 OFFCURVE",
"29 218 CURVE SMOOTH",
"-4 53 OFFCURVE",
"67 -10 OFFCURVE",
"196 -10 CURVE SMOOTH"
);
},
{
closed = 1;
nodes = (
"139 72 OFFCURVE",
"115 105 OFFCURVE",
"139 217 CURVE SMOOTH",
"164 335 OFFCURVE",
"230 401 OFFCURVE",
"326 401 CURVE SMOOTH",
"374 401 OFFCURVE",
"401 385 OFFCURVE",
"425 357 CURVE",
"375 122 LINE",
"335 88 OFFCURVE",
"293 72 OFFCURVE",
"243 72 CURVE SMOOTH"
);
},
{
closed = 1;
nodes = (
"299 546 LINE",
"318 632 LINE",
"227 632 LINE",
"208 546 LINE"
);
},
{
closed = 1;
nodes = (
"485 546 LINE",
"504 632 LINE",
"412 632 LINE",
"393 546 LINE"
);
}
);
width = 583;
}
);
leftKerningGroup = a;
note = adieresis;
rightKerningGroup = a;
unicode = 00E4;
},
{
glyphname = adotbelow;
lastChange = "2015-11-25 05:55:34 +0000";
layers = (
{
layerId = "51D8E656-CCF3-4A73-A171-84F1BD8DE29C";
name = "Regular Italic";
paths = (
{
closed = 1;
nodes = (
"265 -10 OFFCURVE",
"317 8 OFFCURVE",
"368 47 CURVE",
"366 0 LINE",
"459 0 LINE",
"559 474 LINE",
"450 474 LINE",
"443 441 LINE",
"408 472 OFFCURVE",
"371 484 OFFCURVE",
"314 484 CURVE SMOOTH",
"183 484 OFFCURVE",
"62 384 OFFCURVE",
"29 218 CURVE SMOOTH",
"-4 53 OFFCURVE",
"67 -10 OFFCURVE",
"196 -10 CURVE SMOOTH"
);
},
{
closed = 1;
nodes = (
"139 72 OFFCURVE",
"115 105 OFFCURVE",
"139 217 CURVE SMOOTH",
"164 335 OFFCURVE",
"230 401 OFFCURVE",
"326 401 CURVE SMOOTH",
"374 401 OFFCURVE",
"401 385 OFFCURVE",
"425 357 CURVE",
"375 122 LINE",
"335 88 OFFCURVE",
"293 72 OFFCURVE",
"243 72 CURVE SMOOTH"
);
},
{
closed = 1;
nodes = (
"239 -173 LINE",
"257 -85 LINE",
"163 -85 LINE",
"145 -173 LINE"
);
}
);
width = 583;
}
);
leftKerningGroup = a;
note = adotbelow;
rightKerningGroup = a;
unicode = 1EA1;
},
{
glyphname = agrave;
lastChange = "2015-11-25 05:55:34 +0000";
layers = (
{
layerId = "51D8E656-CCF3-4A73-A171-84F1BD8DE29C";
name = "Regular Italic";
paths = (
{
closed = 1;
nodes = (
"265 -10 OFFCURVE",
"317 8 OFFCURVE",
"368 47 CURVE",
"366 0 LINE",
"459 0 LINE",
"559 474 LINE",
"450 474 LINE",
"443 441 LINE",
"408 472 OFFCURVE",
"371 484 OFFCURVE",
"314 484 CURVE SMOOTH",
"183 484 OFFCURVE",
"62 384 OFFCURVE",
"29 218 CURVE SMOOTH",
"-4 53 OFFCURVE",
"67 -10 OFFCURVE",
"196 -10 CURVE SMOOTH"
);
},
{
closed = 1;
nodes = (
"139 72 OFFCURVE",
"115 105 OFFCURVE",
"139 217 CURVE SMOOTH",
"164 335 OFFCURVE",
"230 401 OFFCURVE",
"326 401 CURVE SMOOTH",
"374 401 OFFCURVE",
"401 385 OFFCURVE",
"425 357 CURVE",
"375 122 LINE",
"335 88 OFFCURVE",
"293 72 OFFCURVE",
"243 72 CURVE SMOOTH"
);
},
{
closed = 1;
nodes = (
"390 522 LINE",
"352 699 LINE",
"257 699 LINE",
"302 522 LINE"
);
}
);
width = 583;
}
);
leftKerningGroup = a;
note = agrave;
rightKerningGroup = a;
unicode = 00E0;
},
{
glyphname = ahookabove;
lastChange = "2015-11-25 05:55:34 +0000";
layers = (
{
layerId = "51D8E656-CCF3-4A73-A171-84F1BD8DE29C";
name = "Regular Italic";
paths = (
{
closed = 1;
nodes = (
"265 -10 OFFCURVE",
"317 8 OFFCURVE",
"368 47 CURVE",
"366 0 LINE",
"459 0 LINE",
"559 474 LINE",
"450 474 LINE",
"443 441 LINE",
"408 472 OFFCURVE",
"371 484 OFFCURVE",
"314 484 CURVE SMOOTH",
"183 484 OFFCURVE",
"62 384 OFFCURVE",
"29 218 CURVE SMOOTH",
"-4 53 OFFCURVE",
"67 -10 OFFCURVE",
"196 -10 CURVE SMOOTH"
);
},
{
closed = 1;
nodes = (
"139 72 OFFCURVE",
"115 105 OFFCURVE",
"139 217 CURVE SMOOTH",
"164 335 OFFCURVE",
"230 401 OFFCURVE",
"326 401 CURVE SMOOTH",
"374 401 OFFCURVE",
"401 385 OFFCURVE",
"425 357 CURVE",
"375 122 LINE",
"335 88 OFFCURVE",
"293 72 OFFCURVE",
"243 72 CURVE SMOOTH"
);
},
{
closed = 1;
nodes = (
"369 521 LINE",
"379 568 LINE",
"447 578 OFFCURVE",
"476 607 OFFCURVE",
"487 662 CURVE SMOOTH",
"500 719 OFFCURVE",
"463 755 OFFCURVE",
"381 755 CURVE SMOOTH",
"347 755 OFFCURVE",
"309 750 OFFCURVE",
"285 742 CURVE",
"273 683 LINE",
"291 690 OFFCURVE",
"319 695 OFFCURVE",
"339 695 CURVE SMOOTH",
"387 695 OFFCURVE",
"411 683 OFFCURVE",
"405 653 CURVE SMOOTH",
"398 620 OFFCURVE",
"379 607 OFFCURVE",
"302 603 CURVE",
"284 521 LINE"
);
}
);
width = 583;
}
);
leftKerningGroup = a;
note = ahookabove;
rightKerningGroup = a;
unicode = 1EA3;
},
{
glyphname = "alpha-latin";
lastChange = "2015-11-25 05:55:34 +0000";
layers = (
{
layerId = "51D8E656-CCF3-4A73-A171-84F1BD8DE29C";
name = "Regular Italic";
paths = (
{
closed = 1;
nodes = (
"265 -10 OFFCURVE",
"317 8 OFFCURVE",
"368 47 CURVE",
"366 0 LINE",
"459 0 LINE",
"559 474 LINE",
"450 474 LINE",
"443 441 LINE",
"408 472 OFFCURVE",
"371 484 OFFCURVE",
"314 484 CURVE SMOOTH",
"183 484 OFFCURVE",
"62 384 OFFCURVE",
"29 218 CURVE SMOOTH",
"-4 53 OFFCURVE",
"67 -10 OFFCURVE",
"196 -10 CURVE SMOOTH"
);
},
{
closed = 1;
nodes = (
"139 72 OFFCURVE",
"115 105 OFFCURVE",
"139 217 CURVE SMOOTH",
"164 335 OFFCURVE",
"230 401 OFFCURVE",
"326 401 CURVE SMOOTH",
"374 401 OFFCURVE",
"401 385 OFFCURVE",
"425 357 CURVE",
"375 122 LINE",
"335 88 OFFCURVE",
"293 72 OFFCURVE",
"243 72 CURVE SMOOTH"
);
}
);
width = 583;
}
);
leftKerningGroup = a;
note = ascript;
rightKerningGroup = a;
unicode = 0251;
},
{
glyphname = amacron;
lastChange = "2015-11-25 05:55:34 +0000";
layers = (
{
layerId = "51D8E656-CCF3-4A73-A171-84F1BD8DE29C";
name = "Regular Italic";
paths = (
{
closed = 1;
nodes = (
"265 -10 OFFCURVE",
"317 8 OFFCURVE",
"368 47 CURVE",
"366 0 LINE",
"459 0 LINE",
"559 474 LINE",
"450 474 LINE",
"443 441 LINE",
"408 472 OFFCURVE",
"371 484 OFFCURVE",
"314 484 CURVE SMOOTH",
"183 484 OFFCURVE",
"62 384 OFFCURVE",
"29 218 CURVE SMOOTH",
"-4 53 OFFCURVE",
"67 -10 OFFCURVE",
"196 -10 CURVE SMOOTH"
);
},
{
closed = 1;
nodes = (
"139 72 OFFCURVE",
"115 105 OFFCURVE",
"139 217 CURVE SMOOTH",
"164 335 OFFCURVE",
"230 401 OFFCURVE",
"326 401 CURVE SMOOTH",
"374 401 OFFCURVE",
"401 385 OFFCURVE",
"425 357 CURVE",
"375 122 LINE",
"335 88 OFFCURVE",
"293 72 OFFCURVE",
"243 72 CURVE SMOOTH"
);
},
{
closed = 1;
nodes = (
"490 543 LINE",
"505 614 LINE",
"208 614 LINE",
"193 543 LINE"
);
}
);
width = 583;
}
);
leftKerningGroup = a;
note = amacron;
rightKerningGroup = a;
unicode = 0101;
},
{
glyphname = aogonek;
lastChange = "2015-11-25 05:55:34 +0000";
layers = (
{
layerId = "51D8E656-CCF3-4A73-A171-84F1BD8DE29C";
name = "Regular Italic";
paths = (
{
closed = 1;
nodes = (
"393 -220 OFFCURVE",
"424 -215 OFFCURVE",
"443 -207 CURVE",
"457 -141 LINE",
"443 -148 OFFCURVE",
"421 -152 OFFCURVE",
"405 -152 CURVE SMOOTH",
"375 -152 OFFCURVE",
"360 -143 OFFCURVE",
"367 -112 CURVE SMOOTH",
"375 -72 OFFCURVE",
"409 -33 OFFCURVE",
"459 0 CURVE",
"559 474 LINE",
"450 474 LINE",
"443 441 LINE",
"408 472 OFFCURVE",
"371 484 OFFCURVE",
"314 484 CURVE SMOOTH",
"183 484 OFFCURVE",
"62 384 OFFCURVE",
"29 218 CURVE SMOOTH",
"-4 53 OFFCURVE",
"67 -10 OFFCURVE",
"196 -10 CURVE SMOOTH",
"265 -10 OFFCURVE",
"317 8 OFFCURVE",
"368 47 CURVE",
"366 0 LINE",
"326 -31 OFFCURVE",
"287 -80 OFFCURVE",
"276 -131 CURVE SMOOTH",
"263 -193 OFFCURVE",
"307 -220 OFFCURVE",
"364 -220 CURVE SMOOTH"
);
},
{
closed = 1;
nodes = (
"139 72 OFFCURVE",
"115 105 OFFCURVE",
"139 217 CURVE SMOOTH",
"164 335 OFFCURVE",
"230 401 OFFCURVE",
"326 401 CURVE SMOOTH",
"374 401 OFFCURVE",
"401 385 OFFCURVE",
"425 357 CURVE",
"375 122 LINE",
"335 88 OFFCURVE",
"293 72 OFFCURVE",
"243 72 CURVE SMOOTH"
);
}
);
width = 583;
}
);
leftKerningGroup = a;
note = aogonek;
rightKerningGroup = a;
unicode = 0105;
},
{
glyphname = aring;
lastChange = "2015-11-25 05:55:34 +0000";
layers = (
{
layerId = "51D8E656-CCF3-4A73-A171-84F1BD8DE29C";
name = "Regular Italic";
paths = (
{
closed = 1;
nodes = (
"265 -10 OFFCURVE",
"317 8 OFFCURVE",
"368 47 CURVE",
"366 0 LINE",
"459 0 LINE",
"559 474 LINE",
"450 474 LINE",
"443 441 LINE",
"408 472 OFFCURVE",
"371 484 OFFCURVE",
"314 484 CURVE SMOOTH",
"183 484 OFFCURVE",
"62 384 OFFCURVE",
"29 218 CURVE SMOOTH",
"-4 53 OFFCURVE",
"67 -10 OFFCURVE",
"196 -10 CURVE SMOOTH"
);
},
{
closed = 1;
nodes = (
"139 72 OFFCURVE",
"115 105 OFFCURVE",
"139 217 CURVE SMOOTH",
"164 335 OFFCURVE",
"230 401 OFFCURVE",
"326 401 CURVE SMOOTH",
"374 401 OFFCURVE",
"401 385 OFFCURVE",
"425 357 CURVE",
"375 122 LINE",
"335 88 OFFCURVE",
"293 72 OFFCURVE",
"243 72 CURVE SMOOTH"
);
},
{
closed = 1;
nodes = (
"417 521 OFFCURVE",
"470 571 OFFCURVE",
"483 634 CURVE SMOOTH",
"497 698 OFFCURVE",
"461 748 OFFCURVE",
"389 748 CURVE SMOOTH",
"313 748 OFFCURVE",
"263 698 OFFCURVE",
"249 634 CURVE SMOOTH",
"237 571 OFFCURVE",
"271 521 OFFCURVE",
"341 521 CURVE SMOOTH"
);
},
{
closed = 1;
nodes = (
"312 575 OFFCURVE",
"299 601 OFFCURVE",
"306 634 CURVE SMOOTH",
"313 667 OFFCURVE",
"343 693 OFFCURVE",
"378 693 CURVE SMOOTH",
"420 693 OFFCURVE",
"433 667 OFFCURVE",
"426 634 CURVE SMOOTH",
"419 601 OFFCURVE",
"390 575 OFFCURVE",
"353 575 CURVE SMOOTH"
);
}
);
width = 583;
}
);
leftKerningGroup = a;
note = aring;
rightKerningGroup = a;
unicode = 00E5;
},
{
glyphname = aringacute;
lastChange = "2015-11-25 05:55:34 +0000";
layers = (
{
layerId = "51D8E656-CCF3-4A73-A171-84F1BD8DE29C";
name = "Regular Italic";
paths = (
{
closed = 1;
nodes = (
"265 -10 OFFCURVE",
"317 8 OFFCURVE",
"368 47 CURVE",
"366 0 LINE",
"459 0 LINE",
"559 474 LINE",
"450 474 LINE",
"443 441 LINE",
"408 472 OFFCURVE",
"371 484 OFFCURVE",
"314 484 CURVE SMOOTH",
"183 484 OFFCURVE",
"62 384 OFFCURVE",
"29 218 CURVE SMOOTH",
"-4 53 OFFCURVE",
"67 -10 OFFCURVE",
"196 -10 CURVE SMOOTH"
);
},
{
closed = 1;
nodes = (
"139 72 OFFCURVE",
"115 105 OFFCURVE",
"139 217 CURVE SMOOTH",
"164 335 OFFCURVE",
"230 401 OFFCURVE",
"326 401 CURVE SMOOTH",
"374 401 OFFCURVE",
"401 385 OFFCURVE",
"425 357 CURVE",
"375 122 LINE",
"335 88 OFFCURVE",
"293 72 OFFCURVE",
"243 72 CURVE SMOOTH"
);
},
{
closed = 1;
nodes = (
"407 517 OFFCURVE",
"460 567 OFFCURVE",
"473 630 CURVE SMOOTH",
"487 694 OFFCURVE",
"451 744 OFFCURVE",
"379 744 CURVE SMOOTH",
"303 744 OFFCURVE",
"253 694 OFFCURVE",
"239 630 CURVE SMOOTH",
"227 567 OFFCURVE",
"261 517 OFFCURVE",
"331 517 CURVE SMOOTH"
);
},
{
closed = 1;
nodes = (
"302 571 OFFCURVE",
"289 597 OFFCURVE",
"296 630 CURVE SMOOTH",
"303 663 OFFCURVE",
"333 689 OFFCURVE",
"368 689 CURVE SMOOTH",
"410 689 OFFCURVE",
"423 663 OFFCURVE",
"416 630 CURVE SMOOTH",
"409 597 OFFCURVE",
"380 571 OFFCURVE",
"343 571 CURVE SMOOTH"
);
},
{
closed = 1;
nodes = (
"450 784 LINE",
"572 925 LINE",
"476 925 LINE",
"363 784 LINE"
);
}
);
width = 583;
}
);
leftKerningGroup = a;
note = aringacute;
rightKerningGroup = a;
unicode = 01FB;
},
{
glyphname = atilde;
lastChange = "2015-11-25 05:55:34 +0000";
layers = (
{
layerId = "51D8E656-CCF3-4A73-A171-84F1BD8DE29C";
name = "Regular Italic";
paths = (
{
closed = 1;
nodes = (
"265 -10 OFFCURVE",
"317 8 OFFCURVE",
"368 47 CURVE",
"366 0 LINE",
"459 0 LINE",
"559 474 LINE",
"450 474 LINE",
"443 441 LINE",
"408 472 OFFCURVE",
"371 484 OFFCURVE",
"314 484 CURVE SMOOTH",
"183 484 OFFCURVE",
"62 384 OFFCURVE",
"29 218 CURVE SMOOTH",
"-4 53 OFFCURVE",
"67 -10 OFFCURVE",
"196 -10 CURVE SMOOTH"
);
},
{
closed = 1;
nodes = (
"139 72 OFFCURVE",
"115 105 OFFCURVE",
"139 217 CURVE SMOOTH",
"164 335 OFFCURVE",
"230 401 OFFCURVE",
"326 401 CURVE SMOOTH",
"374 401 OFFCURVE",
"401 385 OFFCURVE",
"425 357 CURVE",
"375 122 LINE",
"335 88 OFFCURVE",
"293 72 OFFCURVE",
"243 72 CURVE SMOOTH"
);
},
{
closed = 1;
nodes = (
"458 537 OFFCURVE",
"491 550 OFFCURVE",
"508 568 CURVE",
"525 648 LINE",
"502 624 OFFCURVE",
"473 611 OFFCURVE",
"437 611 CURVE SMOOTH",
"384 611 OFFCURVE",
"350 650 OFFCURVE",
"292 650 CURVE SMOOTH",
"259 650 OFFCURVE",
"222 638 OFFCURVE",
"201 620 CURVE",
"184 540 LINE",
"213 566 OFFCURVE",
"244 576 OFFCURVE",
"279 576 CURVE SMOOTH",
"325 576 OFFCURVE",
"367 537 OFFCURVE",
"422 537 CURVE SMOOTH"
);
}
);
width = 583;
}
);
leftKerningGroup = a;
note = atilde;
rightKerningGroup = a;
unicode = 00E3;
},
{
glyphname = ae;
lastChange = "2015-11-25 05:32:28 +0000";
layers = (
{
layerId = "51D8E656-CCF3-4A73-A171-84F1BD8DE29C";
name = "Regular Italic";
paths = (
{
closed = 1;
nodes = (
"276 -10 OFFCURVE",
"343 26 OFFCURVE",
"401 73 CURVE",
"430 17 OFFCURVE",
"497 -10 OFFCURVE",
"584 -10 CURVE SMOOTH",
"647 -10 OFFCURVE",
"705 -1 OFFCURVE",
"752 18 CURVE",
"769 97 LINE",
"728 81 OFFCURVE",
"672 72 OFFCURVE",
"624 72 CURVE SMOOTH",
"509 72 OFFCURVE",
"463 102 OFFCURVE",
"472 194 CURVE",
"819 194 LINE",
"837 282 LINE SMOOTH",
"863 400 OFFCURVE",
"807 484 OFFCURVE",
"663 484 CURVE SMOOTH",
"588 484 OFFCURVE",
"520 460 OFFCURVE",
"474 421 CURVE",
"449 463 OFFCURVE",
"399 484 OFFCURVE",
"318 484 CURVE SMOOTH",
"247 484 OFFCURVE",
"182 472 OFFCURVE",
"135 455 CURVE",
"118 374 LINE",
"168 390 OFFCURVE",
"225 399 OFFCURVE",
"280 399 CURVE SMOOTH",
"385 399 OFFCURVE",
"404 374 OFFCURVE",
"390 307 CURVE SMOOTH",
"385 286 LINE",
"233 286 LINE SMOOTH",
"103 286 OFFCURVE",
"30 225 OFFCURVE",
"11 135 CURVE SMOOTH",
"-9 38 OFFCURVE",
"59 -10 OFFCURVE",
"154 -10 CURVE SMOOTH"
);
},
{
closed = 1;
nodes = (
"132 68 OFFCURVE",
"102 88 OFFCURVE",
"113 137 CURVE SMOOTH",
"123 188 OFFCURVE",
"156 212 OFFCURVE",
"220 212 CURVE SMOOTH",
"370 212 LINE",
"351 127 LINE",
"311 90 OFFCURVE",
"263 68 OFFCURVE",
"194 68 CURVE SMOOTH"
);
},
{
closed = 1;
nodes = (
"507 359 OFFCURVE",
"548 402 OFFCURVE",
"649 402 CURVE SMOOTH",
"734 402 OFFCURVE",
"759 363 OFFCURVE",
"745 298 CURVE SMOOTH",
"738 265 LINE",
"487 265 LINE"
);
}
);
width = 881;
}
);
leftKerningGroup = a;
note = ae;
rightKerningGroup = e;
unicode = 00E6;
},
{
glyphname = aeacute;
lastChange = "2015-11-25 05:32:26 +0000";
layers = (
{
layerId = "51D8E656-CCF3-4A73-A171-84F1BD8DE29C";
name = "Regular Italic";
paths = (
{
closed = 1;
nodes = (
"276 -10 OFFCURVE",
"343 26 OFFCURVE",
"401 73 CURVE",
"430 17 OFFCURVE",
"497 -10 OFFCURVE",
"584 -10 CURVE SMOOTH",
"647 -10 OFFCURVE",
"705 -1 OFFCURVE",
"752 18 CURVE",
"769 97 LINE",
"728 81 OFFCURVE",
"672 72 OFFCURVE",
"624 72 CURVE SMOOTH",
"509 72 OFFCURVE",
"463 102 OFFCURVE",
"472 194 CURVE",
"819 194 LINE",
"837 282 LINE SMOOTH",
"863 400 OFFCURVE",
"807 484 OFFCURVE",
"663 484 CURVE SMOOTH",
"588 484 OFFCURVE",
"520 460 OFFCURVE",
"474 421 CURVE",
"449 463 OFFCURVE",
"399 484 OFFCURVE",
"318 484 CURVE SMOOTH",
"247 484 OFFCURVE",
"182 472 OFFCURVE",
"135 455 CURVE",
"118 374 LINE",
"168 390 OFFCURVE",
"225 399 OFFCURVE",
"280 399 CURVE SMOOTH",
"385 399 OFFCURVE",
"404 374 OFFCURVE",
"390 307 CURVE SMOOTH",
"385 286 LINE",
"233 286 LINE SMOOTH",
"103 286 OFFCURVE",
"30 225 OFFCURVE",
"11 135 CURVE SMOOTH",
"-9 38 OFFCURVE",
"59 -10 OFFCURVE",
"154 -10 CURVE SMOOTH"
);
},
{
closed = 1;
nodes = (
"132 68 OFFCURVE",
"102 88 OFFCURVE",
"113 137 CURVE SMOOTH",
"123 188 OFFCURVE",
"156 212 OFFCURVE",
"220 212 CURVE SMOOTH",
"370 212 LINE",
"351 127 LINE",
"311 90 OFFCURVE",
"263 68 OFFCURVE",
"194 68 CURVE SMOOTH"
);
},
{
closed = 1;
nodes = (
"507 359 OFFCURVE",
"548 402 OFFCURVE",
"649 402 CURVE SMOOTH",
"734 402 OFFCURVE",
"759 363 OFFCURVE",
"745 298 CURVE SMOOTH",
"738 265 LINE",
"487 265 LINE"
);
},
{
closed = 1;
nodes = (
"530 522 LINE",
"652 699 LINE",
"556 699 LINE",
"443 522 LINE"
);
}
);
width = 881;
}
);
leftKerningGroup = a;
note = aeacute;
rightKerningGroup = e;
unicode = 01FD;
},
{
glyphname = b;
lastChange = "2015-11-25 05:32:26 +0000";
layers = (
{
layerId = "51D8E656-CCF3-4A73-A171-84F1BD8DE29C";
name = "Regular Italic";
paths = (
{
closed = 1;
nodes = (
"400 -10 OFFCURVE",
"493 69 OFFCURVE",
"530 241 CURVE SMOOTH",
"566 411 OFFCURVE",
"491 484 OFFCURVE",
"363 484 CURVE SMOOTH",
"306 484 OFFCURVE",
"254 471 OFFCURVE",
"206 443 CURVE",
"255 674 LINE",
"146 674 LINE",
"3 0 LINE",
"97 0 LINE",
"112 47 LINE",
"147 8 OFFCURVE",
"191 -10 OFFCURVE",
"260 -10 CURVE SMOOTH"
);
},
{
closed = 1;
nodes = (
"201 72 OFFCURVE",
"161 89 OFFCURVE",
"137 122 CURVE",
"188 360 LINE",
"223 386 OFFCURVE",
"268 401 OFFCURVE",
"317 401 CURVE SMOOTH",
"418 401 OFFCURVE",
"445 358 OFFCURVE",
"420 241 CURVE SMOOTH",
"396 128 OFFCURVE",
"351 72 OFFCURVE",
"249 72 CURVE SMOOTH"
);
}
);
width = 582;
}
);
note = b;
unicode = 0062;
},
{
glyphname = c;
lastChange = "2015-11-25 05:32:25 +0000";
layers = (
{
layerId = "51D8E656-CCF3-4A73-A171-84F1BD8DE29C";
name = "Regular Italic";
paths = (
{
closed = 1;
nodes = (
"294 -10 OFFCURVE",
"345 -1 OFFCURVE",
"393 17 CURVE",
"411 100 LINE",
"368 82 OFFCURVE",
"321 73 OFFCURVE",
"276 73 CURVE SMOOTH",
"147 73 OFFCURVE",
"119 123 OFFCURVE",
"143 237 CURVE SMOOTH",
"168 357 OFFCURVE",
"238 400 OFFCURVE",
"348 400 CURVE SMOOTH",
"397 400 OFFCURVE",
"438 391 OFFCURVE",
"468 374 CURVE",
"485 455 LINE",
"447 475 OFFCURVE",
"409 484 OFFCURVE",
"344 484 CURVE SMOOTH",
"176 484 OFFCURVE",
"68 403 OFFCURVE",
"33 237 CURVE SMOOTH",
"-1 77 OFFCURVE",
"79 -10 OFFCURVE",
"233 -10 CURVE SMOOTH"
);
}
);
width = 493;
}
);
leftKerningGroup = c;
note = c;
rightKerningGroup = c;
unicode = 0063;
},
